SplineFontDB: 3.0
FontName: Vinron-BoldOblique
FullName: Vinron Bold Oblique
FamilyName: Vinron
Weight: Bold
Copyright: Copyright (c) 2018, Jeong-il Seok
UComments: "2018-2-18: Created with FontForge (http://fontforge.org)"
Version: 1.001
ItalicAngle: -11
UnderlinePosition: -200
UnderlineWidth: 100
Ascent: 800
Descent: 200
InvalidEm: 0
LayerCount: 2
Layer: 0 0 "+tLe6dAAA" 1
Layer: 1 0 "+xV66dAAA" 0
PreferredKerning: 4
XUID: [1021 752 363211294 2835]
FSType: 0
OS2Version: 0
OS2_WeightWidthSlopeOnly: 0
OS2_UseTypoMetrics: 1
CreationTime: 1518945957
ModificationTime: 1526560022
PfmFamily: 33
TTFWeight: 700
TTFWidth: 5
LineGap: 90
VLineGap: 0
OS2TypoAscent: 0
OS2TypoAOffset: 1
OS2TypoDescent: 0
OS2TypoDOffset: 1
OS2TypoLinegap: 90
OS2WinAscent: 0
OS2WinAOffset: 1
OS2WinDescent: 0
OS2WinDOffset: 1
HheadAscent: 0
HheadAOffset: 1
HheadDescent: 0
HheadDOffset: 1
OS2Vendor: 'PfEd'
Lookup: 4 0 0 "+x4THWMCsxqkA +1WnHTMeQ" { "+x4THWMCsxqkA +1WnHTMeQ"  } ['dlig' ('DFLT' <'dflt' > 'latn' <'dflt' > ) ]
Lookup: 4 0 1 "Base ligature" { "about f"  } ['liga' ('DFLT' <'dflt' > 'grek' <'dflt' > 'latn' <'dflt' > ) ]
Lookup: 258 0 0 "Kerning" { "Latin Capital" [150,15,0] "Latin Small" [150,15,0] "Special" [153,15,0] } ['kern' ('DFLT' <'dflt' > 'cans' <'dflt' > 'latn' <'dflt' > ) ]
MarkAttachClasses: 1
DEI: 91125
KernClass2: 7 20 "Special"
 5 space
 20 quotedbl quotesingle
 6 exclam
 8 question
 10 asciitilde
 12 comma period
 41 f t longs f_f f_i f_l f_f_i f_f_l longs_t
 354 B D E F H I K L M N P R b h i k l p Egrave Eacute Ecircumflex Edieresis Igrave Iacute Icircumflex Idieresis Ntilde Dcaron Emacron Ebreve Edotaccent Ecaron Hcircumflex hcircumflex Imacron Ibreve Idotaccent IJ ij Kcommaaccent kcommaaccent Lacute lacute Lcommaaccent lcommaaccent Lcaron lcaron Ldot ldot Nacute Ncommaaccent Ncaron Racute Rcommaaccent Rcaron

StartChar: exclam
Encoding: 33 33 0
Width: 300
Flags: W
HStem: 0 130<105 220> 720 20G<220.074 364>
VStem: 224 140<600 740>
DStem2: 80 0 220 0 0.190809 0.981627<26.7133 132.382 381.77 753.881>
LayerCount: 2
Fore
SplineSet
171 470 m 1
 224 740 l 1
 364 740 l 1
 311 470 l 1
 227 190 l 1
 147 190 l 1
 171 470 l 1
80 0 m 1
 105 130 l 1
 245 130 l 1
 220 0 l 1
 80 0 l 1
EndSplineSet
Validated: 1
EndChar

StartChar: quotesingle
Encoding: 39 39 1
Width: 300
Flags: W
HStem: 480 260<224 313>
VStem: 173 140<480 620> 224 140<600 740>
DStem2: 173 480 313 480 0.190809 0.981627<26.7133 264.954>
LayerCount: 2
Fore
SplineSet
173 480 m 1xc0
 224 740 l 1
 364 740 l 1xa0
 313 480 l 1
 173 480 l 1xc0
EndSplineSet
Validated: 1
EndChar

StartChar: numbersign
Encoding: 35 35 4
Width: 820
VWidth: 0
Flags: W
HStem: 0 21G<130 277.333 423 570.333> 150 120<72 185 370 478 663 779> 450 120<181 296 482 589 775 887>
DStem2: 130 0 270 0 0.347696 0.937607<48.6774 159.764 336.601 479.641 656.825 767.912> 423 0 563 0 0.347696 0.937607<48.6774 159.764 336.601 479.641 656.825 767.912>
LayerCount: 2
Fore
SplineSet
589 450 m 1
 436 450 l 1
 370 270 l 1
 523 270 l 1
 589 450 l 1
802 270 m 1
 779 150 l 1
 618 150 l 1
 563 0 l 1
 423 0 l 1
 478 150 l 1
 325 150 l 1
 270 0 l 1
 130 0 l 1
 185 150 l 1
 49 150 l 1
 72 270 l 1
 230 270 l 1
 296 450 l 1
 157 450 l 1
 181 570 l 1
 342 570 l 1
 397 720 l 1
 537 720 l 1
 482 570 l 1
 635 570 l 1
 690 720 l 1
 830 720 l 1
 775 570 l 1
 911 570 l 1
 887 450 l 1
 729 450 l 1
 663 270 l 1
 802 270 l 1
EndSplineSet
Validated: 1
EndChar

StartChar: period
Encoding: 46 46 5
Width: 300
Flags: W
HStem: 0 130<105 220>
VStem: 80 165
LayerCount: 2
Fore
SplineSet
80 0 m 1
 105 130 l 1
 245 130 l 1
 220 0 l 1
 80 0 l 1
EndSplineSet
Validated: 1
EndChar

StartChar: comma
Encoding: 44 44 6
Width: 300
Flags: W
HStem: -150 280
VStem: 51 69<-150 -81>
LayerCount: 2
Fore
SplineSet
80 0 m 1
 105 130 l 1
 245 130 l 1
 220 0 l 2
 212 -43 178 -93 120 -150 c 1
 51 -150 l 1
 109 -94 141 -44 150 0 c 1
 80 0 l 1
EndSplineSet
Validated: 1
EndChar

StartChar: colon
Encoding: 58 58 8
Width: 300
Flags: W
HStem: 0 130<105 220> 430 130<189 304>
VStem: 80 249
DStem2: 80 0 220 0 0.190809 0.981627<26.7133 132.382 464.841 570.509>
LayerCount: 2
Fore
SplineSet
80 0 m 1
 105 130 l 1
 245 130 l 1
 220 0 l 1
 80 0 l 1
164 430 m 1
 189 560 l 1
 329 560 l 1
 304 430 l 1
 164 430 l 1
EndSplineSet
Validated: 1
EndChar

StartChar: semicolon
Encoding: 59 59 9
Width: 300
Flags: W
HStem: 430 130<189 304>
VStem: 51 69<-150 -81>
DStem2: 50.843 -150 190.843 -150 0.190809 0.981627<166.908 285.189 617.648 723.317>
LayerCount: 2
Fore
SplineSet
164 430 m 1
 189 560 l 1
 329 560 l 1
 304 430 l 1
 164 430 l 1
80 0 m 1
 105 130 l 1
 245 130 l 1
 220 0 l 2
 212 -43 178 -93 120 -150 c 1
 51 -150 l 1
 109 -94 141 -44 150 0 c 1
 80 0 l 1
EndSplineSet
Validated: 1
EndChar

StartChar: hyphen
Encoding: 45 45 10
Width: 360
VWidth: 0
Flags: W
HStem: 275 110<115 373>
VStem: 93 302
LayerCount: 2
Fore
SplineSet
93 275 m 1
 115 385 l 1
 395 385 l 1
 373 275 l 1
 93 275 l 1
EndSplineSet
Validated: 1
EndChar

StartChar: slash
Encoding: 47 47 11
Width: 580
VWidth: 0
Flags: W
VStem: 4 140<-80 60> 576 140<660 800>
DStem2: 4 -80 144 -80 0.544988 0.838444<76.2984 1049.56>
LayerCount: 2
Fore
SplineSet
4 -80 m 1
 576 800 l 1
 716 800 l 1
 144 -80 l 1
 4 -80 l 1
EndSplineSet
Validated: 1
EndChar

StartChar: equal
Encoding: 61 61 13
Width: 520
VWidth: 0
Flags: W
HStem: 215 110<103 522> 405 110<140 559>
LayerCount: 2
Fore
SplineSet
82 215 m 1
 103 325 l 1
 543 326 l 1
 522 216 l 1
 82 215 l 1
119 405 m 1
 140 515 l 1
 580 516 l 1
 559 406 l 1
 119 405 l 1
EndSplineSet
Validated: 1
EndChar

StartChar: plus
Encoding: 43 43 14
Width: 600
VWidth: 0
Flags: W
HStem: 315 110<103 291 453 641>
VStem: 249 140<100 240> 351 140<480 620>
DStem2: 249 100 389 100 0.190809 0.981627<26.7133 219.064 357.954 529.909>
LayerCount: 2
Fore
SplineSet
81 315 m 1xc0
 103 425 l 1
 313 425 l 1
 351 620 l 1
 491 620 l 1xa0
 453 425 l 1
 663 425 l 1
 641 315 l 1
 431 315 l 1
 389 100 l 1
 249 100 l 1
 291 315 l 1
 81 315 l 1xc0
EndSplineSet
Validated: 1
EndChar

StartChar: less
Encoding: 60 60 15
Width: 640
VWidth: 0
Flags: W
DStem2: 240 360 99 305 0.926991 -0.375083<0 429.883> 121 415 240 360 0.943858 0.33035<94.1499 582.125>
LayerCount: 2
Fore
SplineSet
99 305 m 1
 121 415 l 1
 721 625 l 1
 701 520 l 1
 240 360 l 1
 639 200 l 1
 618 95 l 1
 99 305 l 1
EndSplineSet
Validated: 1
EndChar

StartChar: greater
Encoding: 62 62 16
Width: 640
VWidth: 0
Flags: W
DStem2: 79 200 58 95 0.94403 0.329861<0 487.975> 161 625 141 520 0.927242 -0.374463<20.7738 450.657>
LayerCount: 2
Fore
SplineSet
659 305 m 1
 58 95 l 1
 79 200 l 1
 540 360 l 1
 141 520 l 1
 161 625 l 1
 681 415 l 1
 659 305 l 1
EndSplineSet
Validated: 1
EndChar

StartChar: percent
Encoding: 37 37 17
Width: 720
VWidth: 0
Flags: W
HStem: 5 90<522.307 592.918> 205 90<535.405 606.083> 405 90<249.917 320.656> 605 90<263.082 333.699>
VStem: 144 101<498.246 587.846> 338 102<512.154 601.929> 417 101<98.0706 188.258> 611 101<112.154 201.754>
DStem2: 137 85 208 40 0.665009 0.746836<13.608 769.25>
LayerCount: 2
Fore
SplineSet
553 95 m 0xfb
 584 95 611 126 611 164 c 0
 611 187 598 205 575 205 c 0
 544 205 518 174 518 136 c 0
 518 113 530 95 553 95 c 0xfb
536 5 m 0
 466 5 417 56 417 123 c 0
 417 221 508 295 592 295 c 0
 662 295 712 244 712 177 c 0
 712 81 620 5 536 5 c 0
137 85 m 5
 648 660 l 5
 720 615 l 5
 208 40 l 5
 137 85 l 5
281 495 m 0
 312 495 338 526 338 564 c 0xfd
 338 587 326 605 303 605 c 0
 272 605 245 574 245 536 c 0
 245 513 258 495 281 495 c 0
264 405 m 0
 194 405 144 456 144 523 c 0
 144 619 236 695 320 695 c 0
 390 695 440 644 440 577 c 0
 440 481 348 405 264 405 c 0
EndSplineSet
Validated: 1
EndChar

StartChar: parenleft
Encoding: 40 40 18
Width: 380
VWidth: 0
Flags: W
HStem: 720 20G<313.5 484>
VStem: 121 138<-0.529819 309.443>
LayerCount: 2
Fore
SplineSet
138 300 m 0
 179 510 253 605 374 740 c 1
 484 740 l 1
 381 606 316 496 278 300 c 0
 265 232 259 174 259 122 c 0
 259 25 280 -53 313 -140 c 1
 203 -140 l 1
 154 -44 121 31 121 143 c 0
 121 188 126 239 138 300 c 0
EndSplineSet
Validated: 1
EndChar

StartChar: parenright
Encoding: 41 41 19
Width: 380
VWidth: 0
Flags: W
HStem: 720 20G<184 318.5>
VStem: 238 137<290.557 600.815>
LayerCount: 2
Fore
SplineSet
358 300 m 0
 317 90 244 -5 123 -140 c 1
 13 -140 l 1
 116 -6 180 104 218 300 c 0
 231 369 238 427 238 479 c 0
 238 576 217 653 184 740 c 1
 294 740 l 1
 343 644 375 569 375 457 c 0
 375 412 370 361 358 300 c 0
EndSplineSet
Validated: 1
EndChar

StartChar: asterisk
Encoding: 42 42 20
Width: 305
VWidth: 900
Flags: W
HStem: 455 285<280 319>
VStem: 259 80<660 740>
LayerCount: 2
Fore
SplineSet
132 600 m 1
 147 681 l 1
 241 646 l 1
 259 740 l 1
 339 740 l 1
 321 646 l 1
 427 681 l 1
 412 600 l 1
 319 568 l 1
 377 455 l 1
 280 455 l 1
 251 510 l 1
 201 455 l 1
 104 455 l 1
 207 568 l 1
 132 600 l 1
EndSplineSet
Validated: 1
EndChar

StartChar: zero
Encoding: 48 48 21
Width: 620
VWidth: 0
Flags: W
HStem: -20 112<270.631 390.591> 648 112<373.409 493.369>
VStem: 95 143<125.204 411.074> 526 143<328.926 614.796>
LayerCount: 2
Fore
SplineSet
458 760 m 0
 610 760 669 665 669 521 c 0
 669 238 539 -20 306 -20 c 0
 154 -20 95 75 95 219 c 0
 95 502 225 760 458 760 c 0
238 219 m 0
 238 146 259 92 328 92 c 0
 467 92 526 352 526 521 c 0
 526 594 505 648 436 648 c 0
 297 648 238 388 238 219 c 0
EndSplineSet
Validated: 1
EndChar

StartChar: one
Encoding: 49 49 22
Width: 620
VWidth: 0
Flags: W
HStem: 0 21G<306 453.892> 720 20G<476.923 594>
VStem: 306 144<0 144>
DStem2: 229 610 205 488 0.914069 0.405559<0 162.723> 306 0 450 0 0.190809 0.981627<27.4765 593.85>
LayerCount: 2
Fore
SplineSet
205 488 m 1
 229 610 l 1
 522 740 l 1
 594 740 l 1
 450 0 l 1
 306 0 l 1
 419 583 l 1
 205 488 l 1
EndSplineSet
Validated: 1
EndChar

StartChar: A
Encoding: 65 65 23
Width: 700
VWidth: 1914
Flags: W
HStem: 0 21G<20 164.251 543.588 680> 199 112<313 507> 720 20G<389.73 590.486>
VStem: 546 134<0 134>
DStem2: 20 0 154 0 0.456805 0.889567<61.2118 284.83 410.499 753.535> 588 740 470 616 0.123375 -0.99236<108.494 415.729 528.724 729.165>
LayerCount: 2
Fore
SplineSet
313 311 m 1
 507 311 l 1
 470 616 l 1
 313 311 l 1
154 0 m 1
 20 0 l 1
 400 740 l 1
 588 740 l 1
 680 0 l 1
 546 0 l 1
 522 199 l 1
 256 199 l 1
 154 0 l 1
EndSplineSet
Validated: 1
EndChar

StartChar: bracketleft
Encoding: 91 91 24
Width: 360
VWidth: 0
Flags: W
HStem: -140 110<214 313> 630 110<342 462>
DStem2: 53 -140 192.618 -140 0.190809 0.981627<138.699 810.997>
LayerCount: 2
Fore
SplineSet
53 -140 m 1
 224 740 l 1
 484 740 l 1
 462 630 l 1
 342 630 l 1
 214 -30 l 1
 334 -30 l 1
 313 -140 l 1
 53 -140 l 1
EndSplineSet
Validated: 1
EndChar

StartChar: bracketright
Encoding: 93 93 25
Width: 360
VWidth: 0
Flags: W
HStem: -140 110<14 134> 630 110<164 262>
DStem2: 112.618 -140 253 -140 0.190809 0.981627<112.059 784.356>
LayerCount: 2
Fore
SplineSet
253 -140 m 1
 -7 -140 l 1
 14 -30 l 1
 134 -30 l 1
 262 630 l 1
 142 630 l 1
 164 740 l 1
 424 740 l 1
 253 -140 l 1
EndSplineSet
Validated: 1
EndChar

StartChar: degree
Encoding: 176 176 26
Width: 370
VWidth: 0
Flags: W
HStem: 405 90<249.917 320.656> 605 90<263.082 333.699>
VStem: 144 101<498.246 588.052> 338 102<511.948 601.929>
LayerCount: 2
Fore
SplineSet
264 405 m 0
 194 405 144 456 144 523 c 0
 144 620 236 695 320 695 c 0
 390 695 440 644 440 577 c 0
 440 480 348 405 264 405 c 0
281 495 m 0
 312 495 338 526 338 564 c 0
 338 587 326 605 303 605 c 0
 272 605 245 574 245 536 c 0
 245 513 258 495 281 495 c 0
EndSplineSet
Validated: 1
EndChar

StartChar: H
Encoding: 72 72 27
Width: 760
VWidth: 0
Flags: W
HStem: 0 21G<80 227.885 536 683.892> 314 112<307 597> 720 20G<220.108 368 676.115 824>
VStem: 80 144<0 144> 224 144<596 740> 536 144<0 144> 680 144<596 740>
DStem2: 80 0 224 0 0.190809 0.981627<27.4765 347.347 461.487 753.881> 536 0 680 0 0.190809 0.981627<27.4765 319.87 434.01 753.881>
LayerCount: 2
Fore
SplineSet
80 0 m 1xf4
 224 740 l 1
 368 740 l 1
 307 426 l 1
 619 426 l 1
 680 740 l 1
 824 740 l 1xea
 680 0 l 1
 536 0 l 1
 597 314 l 1
 285 314 l 1
 224 0 l 1
 80 0 l 1xf4
EndSplineSet
Validated: 1
EndChar

StartChar: I
Encoding: 73 73 28
Width: 300
VWidth: 0
Flags: W
HStem: 0 21G<78 225.892> 720 20G<218.108 366>
VStem: 78 144<0 144> 222 144<596 740>
DStem2: 78 0 222 0 0.190809 0.981627<27.4765 753.881>
LayerCount: 2
Fore
SplineSet
222 0 m 1xe0
 78 0 l 1xe0
 222 740 l 1
 366 740 l 1xd0
 222 0 l 1xe0
EndSplineSet
Validated: 1
EndChar

StartChar: E
Encoding: 69 69 29
Width: 660
VWidth: 0
Flags: W
HStem: 0 112<246 640> 314 112<307 671> 628 112<346 762>
DStem2: 80 0 224.229 0 0.190809 0.981627<141.617 347.347 461.487 667.217>
CounterMasks: 1 e0
LayerCount: 2
Fore
SplineSet
80 0 m 1
 224 740 l 1
 784 740 l 1
 762 628 l 1
 346 628 l 1
 307 426 l 1
 693 426 l 1
 671 314 l 1
 285 314 l 1
 246 112 l 1
 662 112 l 1
 640 0 l 1
 80 0 l 1
EndSplineSet
Validated: 1
EndChar

StartChar: F
Encoding: 70 70 30
Width: 660
VWidth: 0
Flags: W
HStem: 0 21G<80 227.885> 314 112<307 671> 629 111<346 762>
VStem: 80 144<0 144>
DStem2: 80 0 224 0 0.190809 0.981627<27.4765 347.347 461.487 668.199>
LayerCount: 2
Fore
SplineSet
80 0 m 1
 224 740 l 1
 784 740 l 1
 762 629 l 1
 346 629 l 1
 307 426 l 1
 693 426 l 1
 671 314 l 1
 285 314 l 1
 224 0 l 1
 80 0 l 1
EndSplineSet
Validated: 1
EndChar

StartChar: L
Encoding: 76 76 31
Width: 660
VWidth: 0
Flags: W
HStem: 0 112<246 640> 720 20G<220.108 368>
VStem: 224 144<596 740>
DStem2: 80 0 224.229 0 0.190809 0.981627<141.617 753.881>
LayerCount: 2
Fore
SplineSet
246 112 m 1
 662 112 l 1
 640 0 l 1
 80 0 l 1
 224 740 l 1
 368 740 l 1
 246 112 l 1
EndSplineSet
Validated: 1
EndChar

StartChar: V
Encoding: 86 86 32
Width: 700
VWidth: 1914
Flags: W
HStem: 0 21G<253.514 454.27> 720 20G<164 300.468 679.74 824>
VStem: 164 134<606 740>
DStem2: 298 740 164 740 0.123375 -0.99236<0 620.67> 374 124 444 0 0.456805 0.889567<0 692.324>
LayerCount: 2
Fore
SplineSet
298 740 m 1
 374 124 l 1
 690 740 l 1
 824 740 l 1
 444 0 l 1
 256 0 l 1
 164 740 l 1
 298 740 l 1
EndSplineSet
Validated: 1
EndChar

StartChar: T
Encoding: 84 84 33
Width: 640
VWidth: 0
Flags: W
HStem: 0 21G<248 395.885> 628 112<164 370 514 742>
VStem: 248 144<0 144>
DStem2: 248 0 392 0 0.190809 0.981627<27.4765 639.741>
LayerCount: 2
Fore
SplineSet
142 628 m 1
 164 740 l 1
 764 740 l 1
 742 628 l 1
 514 628 l 1
 392 0 l 1
 248 0 l 1
 370 628 l 1
 142 628 l 1
EndSplineSet
Validated: 1
EndChar

StartChar: X
Encoding: 88 88 34
Width: 700
VWidth: 0
Flags: W
HStem: 0 21G<20 191.588 516.195 680> 720 20G<164 327.805 652.412 824>
VStem: 20 154<0 154> 670 154<586 740>
DStem2: 20 0 174 0 0.659941 0.751317<101.631 443.866 642.701 984.937> 318 740 164 740 0.439428 -0.898278<0 286.225 469.901 756.127>
LayerCount: 2
Fore
SplineSet
174 0 m 1
 20 0 l 1
 345 370 l 1
 164 740 l 1
 318 740 l 1
 444 483 l 1
 670 740 l 1
 824 740 l 1
 499 370 l 1
 680 0 l 1
 526 0 l 1
 400 257 l 1
 174 0 l 1
EndSplineSet
Validated: 1
EndChar

StartChar: O
Encoding: 79 79 35
Width: 800
VWidth: 0
Flags: W
HStem: -20 112<327.369 509.838> 648 112<434.162 616.631>
VStem: 102 145<176.715 422.96> 697 145<317.04 563.285>
LayerCount: 2
Fore
SplineSet
548 760 m 0
 740 760 842 647 842 472 c 0
 842 182 645 -20 396 -20 c 0
 204 -20 102 93 102 268 c 0
 102 558 299 760 548 760 c 0
247 284 m 0
 247 170 301 92 418 92 c 0
 582 92 697 257 697 456 c 0
 697 570 643 648 526 648 c 0
 362 648 247 483 247 284 c 0
EndSplineSet
Validated: 1
EndChar

StartChar: Q
Encoding: 81 81 36
Width: 820
VWidth: 0
Flags: W
HStem: -20 112<327.369 492.25> 648 112<434.162 616.631>
VStem: 102 145<176.715 422.775> 697 145<316.65 563.285>
LayerCount: 2
Fore
SplineSet
619 200 m 1
 662 260 697 353 697 456 c 0
 697 570 643 648 526 648 c 0
 362 648 247 483 247 284 c 0
 247 170 301 92 418 92 c 0
 444 92 469 97 494 105 c 1
 433 170 l 1
 548 275 l 1
 619 200 l 1
575 18 m 1
 520 -7 460 -20 396 -20 c 0
 204 -20 102 93 102 268 c 0
 102 557 299 760 548 760 c 0
 740 760 842 647 842 472 c 0
 842 317 784 193 704 109 c 1
 764 45 l 1
 648 -60 l 1
 575 18 l 1
EndSplineSet
Validated: 1
EndChar

StartChar: i
Encoding: 105 105 37
Width: 300
VWidth: 0
Flags: W
HStem: 0 21G<80 223.889> 520 20G<181.111 325> 610 130<224 339>
VStem: 80 140<0 140> 185 140<400 540>
DStem2: 80 0 220 0 0.190809 0.981627<26.7133 550.114 648.212 753.881>
LayerCount: 2
Fore
SplineSet
220 0 m 1xf0
 80 0 l 1xf0
 185 540 l 1
 325 540 l 1xe8
 220 0 l 1xf0
199 610 m 1
 224 740 l 1
 364 740 l 1
 339 610 l 1
 199 610 l 1
EndSplineSet
Validated: 1
EndChar

StartChar: l
Encoding: 108 108 38
Width: 300
VWidth: 0
Flags: W
HStem: 0 21G<80 223.892> 720 20G<220.108 364>
VStem: 80 140<0 140> 224 140<600 740>
DStem2: 80 0 220 0 0.190809 0.981627<26.7133 753.881>
LayerCount: 2
Fore
SplineSet
220 0 m 1
 80 0 l 1
 224 740 l 5
 364 740 l 5
 220 0 l 1
EndSplineSet
Validated: 1
EndChar

StartChar: two
Encoding: 50 50 39
Width: 620
VWidth: 0
Flags: W
HStem: 0 112<291 580> 648 112<354.413 490.723>
VStem: 137 144<500 644> 518 145<452.293 617.559>
DStem2: 82 112 291 112 0.820007 0.572354<171.381 492.701>
LayerCount: 2
Fore
SplineSet
426 648 m 0
 343 648 298 586 281 500 c 1
 137 500 l 1
 168 659 288 760 447 760 c 0
 581 760 663 680 663 559 c 0
 663 540 661 521 657 500 c 0
 627 347 503 266 399 190 c 2
 291 112 l 1
 602 112 l 1
 580 0 l 1
 60 0 l 1
 82 112 l 1
 380 320 l 2
 455 373 500 433 513 500 c 0
 517 518 518 535 518 551 c 0
 518 610 492 648 426 648 c 0
EndSplineSet
Validated: 1
EndChar

StartChar: C
Encoding: 67 67 40
Width: 760
VWidth: 0
Flags: W
HStem: -20 112<323.813 509.073> 648 112<426.25 607.575>
VStem: 101 145<175.904 419.308> 677 134<470 578.189>
LayerCount: 2
Fore
SplineSet
534 760 m 0
 741 760 811 655 811 481 c 2
 811 470 l 1
 677 470 l 1
 677 477 l 2
 677 591 625 648 521 648 c 0
 355 648 246 479 246 279 c 0
 246 168 297 92 413 92 c 0
 519 92 594 151 638 270 c 1
 772 270 l 1
 705 90 593 -20 382 -20 c 0
 198 -20 101 96 101 267 c 0
 101 550 293 760 534 760 c 0
EndSplineSet
Validated: 1
EndChar

StartChar: o
Encoding: 111 111 41
Width: 620
VWidth: 0
Flags: W
HStem: -20 110<261.799 397.546> 450 110<327.033 462.87>
VStem: 85 141<127.536 326.608> 499 141<213.392 412.464>
LayerCount: 2
Fore
SplineSet
419 560 m 0
 561 560 640 474 640 343 c 0
 640 130 489 -20 306 -20 c 0
 164 -20 85 66 85 197 c 0
 85 410 236 560 419 560 c 0
226 208 m 0
 226 138 256 90 327 90 c 0
 432 90 499 203 499 332 c 0
 499 402 468 450 397 450 c 0
 292 450 226 337 226 208 c 0
EndSplineSet
Validated: 1
EndChar

StartChar: N
Encoding: 78 78 42
Width: 790
VWidth: 0
Flags: W
HStem: 0 21G<80 227.887 541.585 713.892> 720 20G<220.108 392.415 706.113 854>
VStem: 80 144<0 144> 710 144<596 740>
DStem2: 80 0 224 0 0.190809 0.981627<27.4765 567.392> 384 740 327 530 0.387824 -0.921734<171.458 575.003> 566.18 0 710 0 0.190809 0.981627<213.931 753.846>
LayerCount: 2
Fore
SplineSet
80 0 m 1
 224 740 l 1
 384 740 l 1
 607 210 l 1
 710 740 l 1
 854 740 l 1
 710 0 l 1
 550 0 l 1
 327 530 l 1
 224 0 l 1
 80 0 l 1
EndSplineSet
Validated: 1
EndChar

StartChar: G
Encoding: 71 71 43
Width: 800
VWidth: 0
Flags: W
HStem: -20 112<322.365 504.974> 0 21G<596 723.895> 289 132<467 642> 648 112<429.174 622.445>
VStem: 101 146<173.77 420.39> 683 134<500 586.259>
LayerCount: 2
Fore
SplineSet
391 -20 m 0xbc
 200 -20 101 93 101 266 c 0
 101 555 294 760 543 760 c 0
 726 760 817 675 817 507 c 2
 817 500 l 1
 683 500 l 1
 683 506 l 2
 683 601 629 648 521 648 c 0
 355 648 247 480 247 280 c 0
 247 170 296 92 408 92 c 0xbc
 526 92 615 152 638 270 c 1
 642 289 l 1
 441 289 l 1
 467 421 l 1
 802 421 l 1
 720 0 l 1
 596 0 l 1x7c
 600 70 l 1
 559 16 477 -20 391 -20 c 0xbc
EndSplineSet
Validated: 1
EndChar

StartChar: P
Encoding: 80 80 44
Width: 670
VWidth: 0
Flags: W
HStem: 0 21G<80 227.862> 290 112<302 526.819> 628 112<346 564.094>
VStem: 80 144<0 144> 589 146<463.718 602.339>
DStem2: 80 0 224 0 0.190809 0.981627<27.4765 322.834 436.974 667.217>
LayerCount: 2
Fore
SplineSet
80 0 m 1
 224 740 l 1
 574 740 l 2
 673 740 735 665 735 565 c 0
 735 412 611 290 486 290 c 2
 280 290 l 1
 224 0 l 1
 80 0 l 1
589 545 m 0
 589 601 552 628 488 628 c 2
 346 628 l 1
 302 402 l 1
 444 402 l 2
 525 402 589 450 589 545 c 0
EndSplineSet
Validated: 1
EndChar

StartChar: R
Encoding: 82 82 45
Width: 670
VWidth: 0
Flags: W
HStem: 0 21G<80 227.862 503.379 650> 290 112<302 414> 628 112<346 564.094>
VStem: 80 144<0 144> 589 146<464.345 602.339>
DStem2: 80 0 224 0 0.190809 0.981627<27.4765 322.834 436.974 667.217> 551 301 414 290 0.312438 -0.949938<-0.805507 273.121>
LayerCount: 2
Fore
SplineSet
589 545 m 0
 589 601 552 628 488 628 c 2
 346 628 l 1
 302 402 l 1
 444 402 l 2
 526 402 589 450 589 545 c 0
551 301 m 1
 650 0 l 1
 510 0 l 1
 414 290 l 1
 280 290 l 1
 224 0 l 1
 80 0 l 1
 224 740 l 1
 574 740 l 2
 673 740 735 665 735 565 c 0
 735 428 644 332 551 301 c 1
EndSplineSet
Validated: 1
EndChar

StartChar: D
Encoding: 68 68 46
Width: 760
VWidth: 0
Flags: W
HStem: 0 112<246 484.271> 628 112<346 580.729>
VStem: 657 144<318.626 550.439>
DStem2: 80 0 224.229 0 0.190809 0.981627<141.617 667.217>
LayerCount: 2
Fore
SplineSet
80 0 m 1
 224 740 l 1
 544 740 l 2
 706 740 801 625 801 461 c 0
 801 201 609 0 400 0 c 2
 80 0 l 1
657 453 m 0
 657 563 602 628 488 628 c 2
 346 628 l 1
 246 112 l 1
 388 112 l 2
 546 112 657 253 657 453 c 0
EndSplineSet
Validated: 1
EndChar

StartChar: Z
Encoding: 90 90 47
Width: 680
VWidth: 0
Flags: W
HStem: 0 112<206 660> 628 112<184 598>
DStem2: 42 112 206 112 0.732981 0.680249<120.209 758.546>
LayerCount: 2
Fore
SplineSet
682 112 m 1
 660 0 l 1
 20 0 l 1
 42 112 l 1
 598 628 l 1
 162 628 l 1
 184 740 l 1
 784 740 l 1
 762 628 l 1
 206 112 l 1
 682 112 l 1
EndSplineSet
Validated: 1
EndChar

StartChar: K
Encoding: 75 75 48
Width: 650
VWidth: 0
Flags: W
HStem: 0 21G<80 227.857 455.508 634> 720 20G<220.108 368 592.652 778>
VStem: 80 144<0 144> 224 144<596 740> 614 164<576 740>
DStem2: 80 0 224 0 0.190809 0.981627<27.4765 312.636 494.044 753.881> 414 408 306 305 0.474614 -0.880194<39.4016 383.799> 313 458 414 408 0.735931 0.677057<40.4762 412.445>
LayerCount: 2
Fore
SplineSet
614 740 m 1xd8
 778 740 l 1
 414 408 l 1
 634 0 l 1
 466 0 l 1
 306 305 l 1
 278 280 l 1
 224 0 l 1
 80 0 l 1xe8
 224 740 l 1
 368 740 l 1
 313 458 l 1
 614 740 l 1xd8
EndSplineSet
Validated: 1
EndChar

StartChar: U
Encoding: 85 85 49
Width: 740
VWidth: 0
Flags: W
HStem: -20 112<289.207 495.358> 720 20G<190.122 338 686.089 834>
VStem: 92 150<136.793 325.859> 194 144<596 740> 690 144<596 740>
DStem2: 46.5173 -20 189.742 -20 0.190809 0.981627<268.061 774.178> 541.742 -20 686.517 -20 0.190809 0.981627<185.166 774.326>
LayerCount: 2
Fore
SplineSet
99 250 m 2xe8
 194 740 l 1
 338 740 l 1xd8
 250 290 l 2
 245 262 242 237 242 214 c 0
 242 136 279 92 388 92 c 0
 528 92 578 165 602 290 c 2
 690 740 l 1
 834 740 l 1
 739 250 l 2
 704 70 566 -20 366 -20 c 0
 192 -20 92 49 92 185 c 0
 92 205 94 227 99 250 c 2xe8
EndSplineSet
EndChar

StartChar: bar
Encoding: 124 124 50
Width: 300
VWidth: 0
Flags: W
VStem: 64 140<-80 60> 236 140<660 800>
DStem2: 64 -80 204 -80 0.190809 0.981627<26.7133 896.651>
LayerCount: 2
Fore
SplineSet
64 -80 m 1
 236 800 l 1
 376 800 l 1
 204 -80 l 1
 64 -80 l 1
EndSplineSet
Validated: 1
EndChar

StartChar: backslash
Encoding: 92 92 51
Width: 580
VWidth: 1220
Flags: W
VStem: 176 140<660 800> 404 140<-80 60>
DStem2: 316 800 176 800 0.250809 -0.968036<0 873.943>
LayerCount: 2
Fore
SplineSet
176 800 m 1
 316 800 l 1
 544 -80 l 1
 404 -80 l 1
 176 800 l 1
EndSplineSet
Validated: 1
EndChar

StartChar: exclamdown
Encoding: 161 161 52
Width: 300
VWidth: 1762
Flags: W
HStem: 410 130<185 300>
VStem: 41 140<-200 -60>
DStem2: 41 -200 181 -200 0.190809 0.981627<26.7133 275.152 648.212 753.881>
LayerCount: 2
Fore
SplineSet
94 70 m 1
 178 350 l 1
 258 350 l 1
 234 70 l 1
 181 -200 l 1
 41 -200 l 1
 94 70 l 1
185 540 m 1
 325 540 l 1
 300 410 l 1
 160 410 l 1
 185 540 l 1
EndSplineSet
Validated: 1
EndChar

StartChar: j
Encoding: 106 106 53
Width: 300
VWidth: 0
Flags: W
HStem: -240 110<-45.9565 48.4115> 520 20G<181.105 325> 610 130<224 339>
VStem: 185 140<400 540>
DStem2: 33.1801 -240 173.068 -240 0.190809 0.981627<117.146 794.638 892.736 998.405>
LayerCount: 2
Fore
SplineSet
11 -130 m 0
 52 -130 64 -82 74 -30 c 2
 185 540 l 1
 325 540 l 1
 210 -50 l 2
 188 -165 141 -240 39 -240 c 0
 -4 -240 -39 -235 -64 -225 c 1
 -44 -125 l 1
 -23 -128 -4 -130 11 -130 c 0
199 610 m 1
 224 740 l 1
 364 740 l 1
 339 610 l 1
 199 610 l 1
EndSplineSet
Validated: 1
EndChar

StartChar: f
Encoding: 102 102 54
Width: 350
VWidth: 0
Flags: W
HStem: 0 21G<90 233.907> 430 110<125 174 335 404> 650 110<362.589 456.957>
VStem: 90 140<0 140>
DStem2: 90 0 230 0 0.190809 0.981627<26.7133 438.128 576.827 683.809>
LayerCount: 2
Fore
SplineSet
400 650 m 0
 359 650 347 602 337 550 c 2
 335 540 l 1
 425 540 l 1
 404 430 l 1
 314 430 l 1
 230 0 l 1
 90 0 l 1
 174 430 l 1
 104 430 l 1
 125 540 l 1
 195 540 l 1
 201 570 l 2
 223 685 270 760 372 760 c 0
 415 760 450 755 475 745 c 1
 455 645 l 1
 434 648 415 650 400 650 c 0
EndSplineSet
Validated: 1
EndChar

StartChar: four
Encoding: 52 52 55
Width: 620
VWidth: 0
Flags: W
HStem: 0 21G<336 483.885> 139 112<220 363 529 607> 720 20G<464.008 624>
DStem2: 89 251 220 251 0.6245 0.781025<81.8095 423.673> 336 0 480 0 0.190809 0.981627<27.4765 141.598 283.215 525.601>
LayerCount: 2
Fore
SplineSet
480 740 m 1
 624 740 l 1
 529 251 l 1
 629 251 l 1
 607 139 l 1
 507 139 l 1
 480 0 l 1
 336 0 l 1
 363 139 l 1
 67 139 l 1
 89 251 l 1
 480 740 l 1
436 516 m 1
 220 251 l 1
 385 251 l 1
 436 516 l 1
EndSplineSet
Validated: 1
EndChar

StartChar: Y
Encoding: 89 89 56
Width: 700
VWidth: 0
Flags: W
HStem: 0 21G<278 425.892> 720 20G<164 327.767 652.481 824>
VStem: 278 144<0 144> 670 154<586 740>
DStem2: 318 740 164 740 0.449144 -0.893459<0 287.105> 278 0 422 0 0.190809 0.981627<27.4765 376.94> 444 482 494 370 0.665615 0.746295<0 342.973>
LayerCount: 2
Fore
SplineSet
494 370 m 1
 422 0 l 1
 278 0 l 1
 350 370 l 1
 164 740 l 1
 318 740 l 1
 444 482 l 1
 670 740 l 1
 824 740 l 1
 494 370 l 1
EndSplineSet
Validated: 1
EndChar

StartChar: seven
Encoding: 55 55 57
Width: 620
VWidth: 0
Flags: W
HStem: 0 21G<136 292.319> 628 112<204 523>
VStem: 136 144<0 144>
DStem2: 136 0 280 0 0.524455 0.851438<75.5215 737.667>
LayerCount: 2
Fore
SplineSet
182 628 m 1
 204 740 l 1
 704 740 l 1
 689 664 l 1
 280 0 l 1
 136 0 l 1
 523 628 l 1
 182 628 l 1
EndSplineSet
Validated: 1
EndChar

StartChar: J
Encoding: 74 74 58
Width: 600
VWidth: 0
Flags: W
HStem: -20 112<238.87 365.84> 720 20G<516.113 664>
VStem: 74 147<109.233 219.844> 520 144<596 740>
DStem2: 372.293 -20 516.349 -20 0.190809 0.981627<144.319 774.221>
LayerCount: 2
Fore
SplineSet
81 210 m 2
 83 220 l 1
 227 220 l 1
 225 210 l 2
 222 195 221 181 221 169 c 0
 221 118 246 92 298 92 c 0
 362 92 402 131 417 210 c 2
 520 740 l 1
 664 740 l 1
 563 220 l 2
 532 60 436 -20 276 -20 c 0
 142 -20 74 28 74 139 c 0
 74 160 76 184 81 210 c 2
EndSplineSet
Validated: 1
EndChar

StartChar: M
Encoding: 77 77 59
Width: 900
VWidth: 0
Flags: W
HStem: 0 21G<80 227.867 367.378 540.356 676 823.892> 720 20G<220.108 400.574 779.637 964>
VStem: 80 144<0 144> 676 144<0 144>
DStem2: 80 0 224 0 0.190809 0.981627<27.4765 485.809> 398 740 311 450 0.12766 -0.991818<276.521 610.999> 476 134 530 0 0.460061 0.887888<0 412.61> 676 0 820 0 0.190809 0.981627<27.4765 458.333>
LayerCount: 2
Fore
SplineSet
224 0 m 1
 80 0 l 1
 224 740 l 1
 398 740 l 1
 476 134 l 1
 790 740 l 1
 964 740 l 1
 820 0 l 1
 676 0 l 1
 763 450 l 1
 530 0 l 1
 370 0 l 1
 311 450 l 1
 224 0 l 1
EndSplineSet
Validated: 1
EndChar

StartChar: c
Encoding: 99 99 60
Width: 610
VWidth: 0
Flags: W
HStem: -20 110<261.96 403.939> 450 110<325.509 464.269>
VStem: 85 141<126.449 326.256> 498 140<350 415.641>
LayerCount: 2
Fore
SplineSet
607 190 m 1
 559 61 456 -20 302 -20 c 0
 163 -20 85 67 85 197 c 0
 85 409 235 560 415 560 c 0
 567 560 638 481 638 355 c 2
 638 350 l 1
 498 350 l 1
 498 353 l 2
 498 411 466 450 396 450 c 0
 292 450 226 337 226 207 c 0
 226 137 255 90 326 90 c 0
 397 90 446 131 467 190 c 1
 607 190 l 1
EndSplineSet
Validated: 1
EndChar

StartChar: e
Encoding: 101 101 61
Width: 620
VWidth: 0
Flags: W
HStem: -20 110<262.672 409.618> 230 110<246 506> 450 110<318.377 468.6>
VStem: 85 139<128.7 226.784>
LayerCount: 2
Fore
SplineSet
225 230 m 1
 225 224 224 217 224 211 c 0
 224 141 254 90 329 90 c 0
 388 90 446 124 463 170 c 1
 603 170 l 1
 558 53 447 -20 302 -20 c 0
 163 -20 85 67 85 197 c 0
 85 412 237 560 421 560 c 4
 568 560 635 469 635 332 c 0
 635 300 632 266 625 230 c 1
 225 230 l 1
506 340 m 1
 500 408 477 450 397 450 c 0
 317 450 278 408 246 340 c 1
 506 340 l 1
EndSplineSet
Validated: 1
EndChar

StartChar: z
Encoding: 122 122 62
Width: 540
VWidth: 0
Flags: W
HStem: 0 110<201 520> 430 110<145 424>
DStem2: 41 110 201 110 0.767399 0.641169<122.784 499.088>
LayerCount: 2
Fore
SplineSet
541 110 m 1
 520 0 l 1
 20 0 l 1
 41 110 l 1
 424 430 l 1
 124 430 l 1
 145 540 l 1
 605 540 l 1
 584 430 l 1
 201 110 l 1
 541 110 l 1
EndSplineSet
Validated: 1
EndChar

StartChar: B
Encoding: 66 66 63
Width: 670
VWidth: 0
Flags: W
HStem: 0 112<246 484.967> 329 112<310 517.205> 628 112<346 549.205>
VStem: 542 136<168.732 308.132> 563 146<491.188 613.76>
DStem2: 80 0 224.229 0 0.190809 0.981627<141.617 362.644 476.784 667.217>
LayerCount: 2
Fore
SplineSet
709 582 m 0xe8
 709 490 656 415 598 385 c 1
 651 364 678 324 678 266 c 0xf0
 678 117 561 0 440 0 c 2
 80 0 l 1
 224 740 l 1
 564 740 l 2
 655 740 709 669 709 582 c 0xe8
418 112 m 2
 489 112 542 167 542 250 c 0
 542 299 514 329 460 329 c 2
 288 329 l 1
 246 112 l 1
 418 112 l 2
462 441 m 2
 516 441 563 500 563 562 c 0xe8
 563 601 540 628 498 628 c 2
 346 628 l 1
 310 441 l 1
 462 441 l 2
EndSplineSet
Validated: 1
EndChar

StartChar: W
Encoding: 87 87 64
Width: 1030
VWidth: 0
Flags: W
HStem: 0 21G<204.865 392.876 644.895 832.919> 720 20G<164 309.105 561.124 749.105 1001.12 1154>
VStem: 164 144<596 740>
DStem2: 308 740 164 740 0.0566656 -0.998393<0 525.8> 337 215 384 0 0.405654 0.914027<0 396.931> 748 740 617 525 0.055154 -0.998478<207.448 525.8> 777 215 824 0 0.407283 0.913302<0 574.38>
LayerCount: 2
Fore
SplineSet
384 0 m 1
 206 0 l 1
 164 740 l 1
 308 740 l 1
 337 215 l 1
 570 740 l 1
 748 740 l 1
 777 215 l 1
 1010 740 l 1
 1154 740 l 1
 824 0 l 1
 646 0 l 1
 617 525 l 1
 384 0 l 1
EndSplineSet
Validated: 1
EndChar

StartChar: d
Encoding: 100 100 65
Width: 670
VWidth: 0
Flags: W
HStem: -20 110<259.327 386.213> 0 21G<450 593.892> 450 110<320.981 467.223> 720 20G<590.077 734>
VStem: 83 134<132.279 315.131> 594 140<600 740>
DStem2: 446.112 -20 586.112 -20 0.190809 0.981627<47.0876 81.5617 509.301 774.255>
LayerCount: 2
Fore
SplineSet
397 450 m 0xbc
 291 450 217 344 217 215 c 0
 217 142 251 90 327 90 c 0
 433 90 508 197 508 325 c 0
 508 398 473 450 397 450 c 0xbc
399 560 m 0
 473 560 524 528 543 480 c 1
 594 740 l 1
 734 740 l 1
 590 0 l 1
 450 0 l 1x7c
 462 60 l 1
 425 12 360 -20 286 -20 c 0
 154 -20 83 64 83 188 c 0
 83 388 230 560 399 560 c 0
EndSplineSet
Validated: 1
EndChar

StartChar: b
Encoding: 98 98 66
Width: 670
VWidth: 0
Flags: W
HStem: -20 110<307.447 453.976> 0 21G<80 224> 450 110<390.495 515.155> 720 20G<220.108 364>
VStem: 224 140<600 740> 558 130<215.73 407.19>
DStem2: 76.1124 -20 216.112 -20 0.190809 0.981627<47.0876 108.275 536.014 774.255>
LayerCount: 2
Fore
SplineSet
377 90 m 0xbc
 483 90 558 197 558 325 c 0
 558 398 523 450 447 450 c 0
 341 450 267 344 267 215 c 0
 267 142 301 90 377 90 c 0xbc
376 -20 m 0
 302 -20 251 12 232 60 c 1
 220 0 l 1
 80 0 l 1x7c
 224 740 l 1
 364 740 l 1
 313 480 l 1
 350 528 415 560 489 560 c 0
 619 560 688 462 688 335 c 0
 688 130 548 -20 376 -20 c 0
EndSplineSet
Validated: 1
EndChar

StartChar: p
Encoding: 112 112 67
Width: 670
VWidth: 0
Flags: W
HStem: -20 110<307.447 453.606> 450 110<390.495 515.342> 520 20G<181.108 325>
VStem: 41 140<-200 -60> 558 134<224.669 406.593>
DStem2: 41 -200 181 -200 0.190809 0.981627<26.7133 291.668 719.407 753.881>
LayerCount: 2
Fore
SplineSet
377 90 m 0xd8
 483 90 558 196 558 325 c 0
 558 398 523 450 447 450 c 0
 341 450 267 344 267 215 c 0
 267 142 301 90 377 90 c 0xd8
376 -20 m 0
 302 -20 251 12 232 60 c 1
 181 -200 l 1
 41 -200 l 1
 185 540 l 1
 325 540 l 1xb8
 313 480 l 1
 350 528 415 560 489 560 c 0
 621 560 692 476 692 352 c 0
 692 151 545 -20 376 -20 c 0
EndSplineSet
Validated: 1
EndChar

StartChar: q
Encoding: 113 113 68
Width: 670
VWidth: 0
Flags: W
HStem: -20 110<256.669 386.213> 450 110<320.611 467.223> 520 20G<551 695>
VStem: 87 130<131.681 324.492> 411 140<-200 -60>
DStem2: 411 -200 551 -200 0.190809 0.981627<26.7133 264.954 692.693 753.881>
LayerCount: 2
Fore
SplineSet
397 450 m 0xd8
 291 450 217 344 217 215 c 0
 217 142 251 90 327 90 c 0
 433 90 508 196 508 325 c 0
 508 398 473 450 397 450 c 0xd8
399 560 m 0
 473 560 524 528 543 480 c 1
 555 540 l 1
 695 540 l 1xb8
 551 -200 l 1
 411 -200 l 1
 462 60 l 1
 425 12 360 -20 286 -20 c 0
 156 -20 87 78 87 205 c 0
 87 410 227 560 399 560 c 0
EndSplineSet
Validated: 1
EndChar

StartChar: g
Encoding: 103 103 69
Width: 670
VWidth: 0
Flags: W
HStem: -240 110<218.097 379.516> -20 110<256.669 386.213> 450 110<320.611 467.223> 520 20G<551 695>
VStem: 87 130<131.681 324.492>
DStem2: 403.405 -240 543.405 -240 0.190809 0.981627<163.755 305.669 733.408 794.595>
LayerCount: 2
Fore
SplineSet
397 450 m 0xe8
 291 450 217 344 217 215 c 0
 217 142 251 90 327 90 c 0
 433 90 508 196 508 325 c 0
 508 398 473 450 397 450 c 0xe8
290 -130 m 0
 386 -130 434 -85 452 10 c 2
 462 60 l 1
 425 12 360 -20 286 -20 c 0
 156 -20 87 78 87 205 c 0
 87 410 227 560 399 560 c 0xe8
 473 560 524 528 543 480 c 1
 555 540 l 1
 695 540 l 1xd8
 592 10 l 2
 560 -153 434 -240 268 -240 c 0
 132 -240 50 -172 50 -57 c 2
 50 -50 l 1
 190 -50 l 1
 190 -52 l 2
 190 -101 232 -130 290 -130 c 0
EndSplineSet
Validated: 1
EndChar

StartChar: u
Encoding: 117 117 70
Width: 650
VWidth: 0
Flags: W
HStem: -20 110<269.556 374.982> 0 21G<430 573.889> 520 20G<171.105 315 531.121 675>
VStem: 97 150<113.146 194.103> 175 140<400 540> 535 140<400 540>
DStem2: 66.0115 -20 206.293 -20 0.190809 0.981627<223.514 570.507> 426.112 -20 566.112 -20 0.190809 0.981627<47.0876 81.5617 146.647 570.488>
LayerCount: 2
Fore
SplineSet
442 60 m 1x74
 416 15 348 -20 286 -20 c 0
 178 -20 97 26 97 122 c 0xb4
 97 134 98 146 101 160 c 2
 175 540 l 1
 315 540 l 1xac
 251 210 l 2
 248 196 247 183 247 172 c 0
 247 117 277 90 337 90 c 0xb4
 410 90 455 130 471 210 c 2
 535 540 l 1
 675 540 l 1
 570 0 l 1
 430 0 l 1
 442 60 l 1x74
EndSplineSet
Validated: 1
EndChar

StartChar: n
Encoding: 110 110 71
Width: 650
VWidth: 0
Flags: W
HStem: 0 21G<80 223.879 440 583.895> 450 110<381.031 484.502> 520 20G<181.111 325>
VStem: 80 140<0 140> 440 140<0 140> 508 150<345.897 426.854>
DStem2: 80 0 220 0 0.190809 0.981627<26.7133 450.477 515.64 550.114> 440 0 580 0 0.190809 0.981627<26.7133 373.662>
LayerCount: 2
Fore
SplineSet
313 480 m 1xb4
 339 525 407 560 469 560 c 0
 577 560 658 514 658 418 c 0xd4
 658 406 657 394 654 380 c 2
 580 0 l 1
 440 0 l 1xd8
 504 330 l 2
 507 344 508 356 508 368 c 0
 508 422 477 450 417 450 c 0xd4
 344 450 300 410 284 330 c 2
 220 0 l 1
 80 0 l 1
 185 540 l 1
 325 540 l 1
 313 480 l 1xb4
EndSplineSet
Validated: 1
EndChar

StartChar: m
Encoding: 109 109 72
Width: 1010
VWidth: 0
Flags: W
HStem: 0 21G<80 223.879 440 583.879 800 943.895> 450 110<376.236 484.788 720.169 844.566> 520 20G<181.111 325>
VStem: 80 140<0 140> 440 140<0 140> 800 140<0 140> 868 150<345.897 426.551>
DStem2: 80 0 220 0 0.190809 0.981627<26.7133 450.477 515.64 550.114> 440 0 580 0 0.190809 0.981627<26.7133 373.662> 800 0 940 0 0.190809 0.981627<26.7133 373.662>
LayerCount: 2
Fore
SplineSet
313 480 m 1xba
 341 529 402 560 469 560 c 0
 554 560 608 533 635 480 c 1
 688 533 754 560 829 560 c 0
 938 560 1018 520 1018 422 c 0xda
 1018 409 1017 395 1014 380 c 2
 940 0 l 1
 800 0 l 1xdc
 864 330 l 2
 867 344 868 356 868 368 c 0
 868 422 837 450 777 450 c 0
 704 450 660 410 644 330 c 2
 580 0 l 1
 440 0 l 1
 504 330 l 2
 507 344 508 356 508 368 c 0
 508 422 477 450 417 450 c 0xda
 344 450 300 410 284 330 c 2
 220 0 l 1
 80 0 l 1
 185 540 l 1
 325 540 l 1
 313 480 l 1xba
EndSplineSet
Validated: 1
EndChar

StartChar: eight
Encoding: 56 56 73
Width: 620
VWidth: 0
Flags: W
HStem: -20 112<260.272 405.293> 344 112<339.931 448.565> 648 112<365.25 497.664>
VStem: 77 147<128.495 271.321> 174 145<476.145 602.026> 482 145<168.658 311.182> 516 146<504.476 629.803>
LayerCount: 2
Fore
SplineSet
306 -20 m 0xe4
 164 -20 77 43 77 163 c 0xf4
 77 284 137 356 238 400 c 1
 195 425 174 464 174 514 c 0
 174 672 313 760 458 760 c 0
 580 760 662 700 662 597 c 0xea
 662 500 613 433 543 400 c 1
 600 371 627 326 627 265 c 0
 627 78 473 -20 306 -20 c 0xe4
328 92 m 0
 408 92 482 156 482 249 c 0
 482 308 442 344 377 344 c 0
 296 344 224 285 224 191 c 0
 224 132 264 92 328 92 c 0
399 456 m 0
 464 456 516 504 516 579 c 0
 516 624 487 648 436 648 c 0
 370 648 319 605 319 530 c 0xea
 319 484 348 456 399 456 c 0
EndSplineSet
Validated: 1
EndChar

StartChar: h
Encoding: 104 104 74
Width: 650
VWidth: 0
Flags: W
HStem: 0 21G<80 223.879 440 583.895> 450 110<381.031 485.206> 720 20G<220.108 364>
VStem: 80 140<0 140> 224 140<600 740> 440 140<0 140> 508 150<345.897 426.854>
DStem2: 80 0 220 0 0.190809 0.981627<26.7133 450.477 515.64 753.881> 440 0 580 0 0.190809 0.981627<26.7133 373.706>
LayerCount: 2
Fore
SplineSet
313 480 m 1xfa
 339 525 407 560 469 560 c 0
 577 560 658 514 658 418 c 0xfa
 658 406 657 394 654 380 c 2
 580 0 l 1
 440 0 l 1xfc
 504 330 l 2
 507 344 508 357 508 368 c 0
 508 423 477 450 417 450 c 0
 344 450 300 410 284 330 c 2
 220 0 l 1
 80 0 l 1
 224 740 l 1
 364 740 l 1
 313 480 l 1xfa
EndSplineSet
Validated: 1
EndChar

StartChar: r
Encoding: 114 114 75
Width: 410
VWidth: 0
Flags: W
HStem: 0 21G<60 203.871> 425 135<360.347 473.377> 520 20G<161.111 305>
VStem: 60 140<0 140>
DStem2: 60 0 200 0 0.190809 0.981627<26.7133 426.783 515.64 550.114>
LayerCount: 2
Fore
SplineSet
471 415 m 1xd0
 447 422 421 425 393 425 c 0xd0
 320 425 275 387 260 310 c 2
 200 0 l 1
 60 0 l 1
 165 540 l 1
 305 540 l 1xb0
 293 480 l 1
 316 521 386 560 439 560 c 0
 463 560 482 558 498 555 c 1
 471 415 l 1xd0
EndSplineSet
Validated: 1
EndChar

StartChar: k
Encoding: 107 107 76
Width: 560
VWidth: 0
Flags: W
HStem: 0 21G<80 223.92 378.72 540> 520 20G<443.625 625> 720 20G<220.108 364>
VStem: 80 140<0 140> 224 140<600 740> 465 160<380 540>
DStem2: 80 0 220 0 0.190809 0.981627<26.7133 229.499 413.851 753.881> 370 303 271 211 0.489304 -0.872113<31.7933 274.036> 294 380 370 303 0.731653 0.681677<3.11652 234.181>
LayerCount: 2
Fore
SplineSet
465 540 m 1
 625 540 l 1
 370 303 l 1
 540 0 l 1
 390 0 l 1
 271 211 l 1
 259 199 l 1
 220 0 l 1
 80 0 l 1
 224 740 l 1
 364 740 l 1
 294 380 l 1
 465 540 l 1
EndSplineSet
Validated: 1
EndChar

StartChar: a
Encoding: 97 97 77
Width: 590
VWidth: 0
Flags: W
HStem: -20 110<221.078 329.369> 0 21G<400 533.882> 230 110<253.011 431.77> 450 110<307.124 447.011>
VStem: 65 144<103.157 191.108> 463 139<332.578 433.584>
LayerCount: 2
Fore
SplineSet
241 -20 m 0xbc
 138 -20 65 20 65 112 c 0
 65 263 221 340 361 340 c 0
 391 340 422 337 454 330 c 1
 460 360 l 2
 462 370 463 379 463 387 c 0
 463 429 437 450 382 450 c 0
 317 450 281 418 272 370 c 1
 132 370 l 1
 155 489 265 560 405 560 c 0
 534 560 602 499 602 395 c 0
 602 378 600 359 596 340 c 2
 530 0 l 1
 400 0 l 1x7c
 402 60 l 1
 368 16 310 -20 241 -20 c 0xbc
282 90 m 0xbc
 359 90 415 127 429 200 c 2
 433 220 l 1
 409 227 385 230 360 230 c 0
 290 230 209 212 209 141 c 0
 209 105 244 90 282 90 c 0xbc
EndSplineSet
Validated: 1
EndChar

StartChar: t
Encoding: 116 116 78
Width: 350
VWidth: 0
Flags: W
HStem: -20 110<181.5 328.589> 430 110<125 174 335 404>
VStem: 114 145<57.1054 235> 224 140<550 690>
DStem2: 86.0677 -20 226.18 -20 0.190809 0.981627<182.989 458.51 597.21 723.274>
LayerCount: 2
Fore
SplineSet
267 190 m 2xd0
 263 169 259 149 259 132 c 0
 259 107 267 90 291 90 c 0
 306 90 325 92 348 95 c 1
 329 -5 l 1
 300 -15 263 -20 220 -20 c 0
 143 -20 114 23 114 93 c 0xe0
 114 116 117 142 123 170 c 2
 174 430 l 1
 104 430 l 1
 125 540 l 1
 195 540 l 1
 224 690 l 1
 364 690 l 1
 335 540 l 1
 425 540 l 1
 404 430 l 1
 314 430 l 1
 267 190 l 2xd0
EndSplineSet
Validated: 1
EndChar

StartChar: S
Encoding: 83 83 79
Width: 680
VWidth: 0
Flags: W
HStem: -20 112<261.2 460.923> 648 112<372.864 552.025>
VStem: 78 145<128.67 220> 159 146<466.334 586.118> 540 147<161.459 274.614> 582 146<530 619.426>
LayerCount: 2
Fore
SplineSet
83 220 m 1xe8
 227 220 l 1
 225 208 223 197 223 187 c 0
 223 124 268 92 358 92 c 0
 457 92 540 138 540 232 c 0xe8
 540 273 496 303 406 319 c 0
 269 344 159 370 159 487 c 0
 159 666 322 760 488 760 c 0
 629 760 728 694 728 576 c 0
 728 561 726 546 723 530 c 1
 579 530 l 1
 581 541 582 552 582 562 c 0
 582 620 544 648 466 648 c 0
 375 648 305 603 305 512 c 0xd4
 305 459 360 444 424 432 c 0
 559 407 687 374 687 257 c 0
 687 70 536 -20 336 -20 c 0
 182 -20 78 43 78 169 c 0
 78 185 79 202 83 220 c 1xe8
EndSplineSet
Validated: 1
EndChar

StartChar: dollar
Encoding: 36 36 80
Width: 680
VWidth: 0
Flags: W
HStem: -18 114<256.708 285 411 464.616> 643 114<364.544 413 539 559.085>
VStem: 78 146<128.194 221> 159 147<471.999 585.882> 540 147<162.235 272.354> 583 145<531 618.782>
DStem2: 269 -100 373 -100 0.190809 0.981627<19.8441 83.5464 219.494 431.305 559.139 756.825 892.773 957.457>
LayerCount: 2
Fore
SplineSet
451 304 m 1xc8
 411 96 l 1
 478 108 540 156 540 232 c 0
 540 264 510 287 451 304 c 1xc8
375 449 m 1
 413 643 l 1
 355 630 306 586 306 514 c 0xd0
 306 476 335 461 375 449 c 1
451 840 m 1
 555 840 l 1
 539 757 l 1
 648 744 728 681 728 576 c 0
 728 562 726 547 723 531 c 1
 579 531 l 1
 581 542 583 553 583 563 c 0xd4
 583 606 561 632 517 643 c 1
 475 427 l 1
 587 401 687 362 687 258 c 0
 687 86 557 -5 389 -18 c 1
 373 -100 l 1
 269 -100 l 1
 285 -18 l 1
 161 -6 78 56 78 169 c 0
 78 185 79 203 83 221 c 1
 227 221 l 1
 225 209 224 198 224 188 c 0xe8
 224 138 252 107 307 96 c 1
 351 325 l 1
 243 350 159 386 159 488 c 0
 159 650 297 741 435 757 c 1
 451 840 l 1
EndSplineSet
Validated: 1
EndChar

StartChar: s
Encoding: 115 115 81
Width: 550
VWidth: 0
Flags: W
HStem: -20 110<227.215 366.924> 450 110<299.474 414.649>
VStem: 67 143<108.299 160> 132 141<341.791 421.929> 402 142<121.343 197.03> 426 142<380 438.413>
LayerCount: 2
Fore
SplineSet
362 450 m 0xd4
 318 450 273 421 273 373 c 0xd4
 273 345 299 337 339 330 c 0
 447 310 544 284 544 191 c 0
 544 44 405 -20 271 -20 c 0
 154 -20 67 25 67 123 c 0
 67 135 68 147 71 160 c 1
 211 160 l 1
 210 156 210 152 210 148 c 0
 210 111 245 90 292 90 c 0
 342 90 402 116 402 167 c 0xe8
 402 192 374 209 318 220 c 0
 194 244 132 290 132 357 c 0
 132 489 264 560 384 560 c 0
 491 560 568 509 568 417 c 0
 568 405 566 393 564 380 c 1
 424 380 l 1
 425 386 426 391 426 396 c 0
 426 430 401 450 362 450 c 0xd4
EndSplineSet
Validated: 1
EndChar

StartChar: w
Encoding: 119 119 82
Width: 850
VWidth: 0
Flags: W
HStem: 0 21G<158.704 349.009 508.799 699.074> 520 20G<125 266.183 436.042 616.183 786.042 935>
VStem: 125 140<400 540>
DStem2: 265 540 125 540 0.0646791 -0.997906<0 355.615> 286 185 340 0 0.408761 0.912642<0 218.458> 636 185 690 0 0.413168 0.910655<0 388.976>
LayerCount: 2
Fore
SplineSet
160 0 m 1
 125 540 l 1
 265 540 l 1
 286 185 l 1
 445 540 l 1
 615 540 l 1
 636 185 l 1
 795 540 l 1
 935 540 l 1
 690 0 l 1
 510 0 l 1
 490 333 l 1
 340 0 l 1
 160 0 l 1
EndSplineSet
Validated: 1
EndChar

StartChar: v
Encoding: 118 118 83
Width: 580
VWidth: 0
Flags: W
HStem: 0 21G<187.593 400.185> 520 20G<125 267.421 514.831 665>
VStem: 125 140<400 540>
DStem2: 265 540 125 540 0.119508 -0.992833<0 416.016> 315 127 390 0 0.453802 0.891102<0 463.324>
LayerCount: 2
Fore
SplineSet
125 540 m 1
 265 540 l 1
 315 127 l 1
 525 540 l 1
 665 540 l 1
 390 0 l 1
 190 0 l 1
 125 540 l 1
EndSplineSet
Validated: 1
EndChar

StartChar: y
Encoding: 121 121 84
Width: 580
VWidth: 0
Flags: W
HStem: -240 110<33.7141 171.147> 520 20G<125 268.659 514.83 670>
VStem: 125 139<401 540>
DStem2: 264 540 125 540 0.225518 -0.974239<0 361.425> 250 0 395 0 0.453802 0.891102<-118.127 0 211.092 605.991>
LayerCount: 2
Fore
SplineSet
125 540 m 1
 264 540 l 1
 346 188 l 1
 525 540 l 1
 670 540 l 1
 395 0 l 2
 326 -136 244 -240 93 -240 c 0
 52 -240 26 -237 15 -230 c 1
 36 -125 l 1
 52 -128 75 -130 104 -130 c 0
 179 -130 214 -70 250 0 c 1
 125 540 l 1
EndSplineSet
Validated: 1
EndChar

StartChar: x
Encoding: 120 120 85
Width: 580
VWidth: 0
Flags: W
HStem: 0 21G<20 188.313 399.398 560> 520 20G<125 285.602 496.687 665>
VStem: 20 150<0 150> 515 150<390 540>
DStem2: 20 0 170 0 0.675725 0.737154<101.359 326.436 507.469 732.547> 275 540 125 540 0.466759 -0.884385<0 187.883 352.698 540.58>
LayerCount: 2
Fore
SplineSet
170 0 m 1
 20 0 l 1
 267 270 l 1
 125 540 l 1
 275 540 l 1
 363 374 l 1
 515 540 l 1
 665 540 l 1
 417 270 l 1
 560 0 l 1
 410 0 l 1
 322 166 l 1
 170 0 l 1
EndSplineSet
Validated: 1
EndChar

StartChar: cent
Encoding: 162 162 86
Width: 610
VWidth: 0
Flags: W
VStem: 85 141<126.771 326.026> 498 140<350 419.304>
DStem2: 239 -100 343 -100 0.190809 0.981627<19.8441 85.5096 222.439 548.941 688.024 733.485>
LayerCount: 2
Fore
SplineSet
343 439 m 1
 277 411 226 320 226 206 c 0
 226 154 243 119 278 101 c 1
 343 439 l 1
366 556 m 1
 379 620 l 1
 483 620 l 1
 470 556 l 1
 581 539 638 466 638 358 c 2
 638 350 l 1
 498 350 l 1
 498 357 l 2
 498 399 481 427 448 441 c 1
 381 99 l 1
 422 114 451 144 467 190 c 1
 607 190 l 1
 566 77 479 1 359 -16 c 1
 343 -100 l 1
 239 -100 l 1
 255 -16 l 1
 148 3 85 81 85 197 c 0
 85 395 214 531 366 556 c 1
EndSplineSet
Validated: 1
EndChar

StartChar: yen
Encoding: 165 165 87
Width: 700
VWidth: 0
Flags: W
HStem: 0 21G<278 425.8> 100 110<101 297 463 659> 260 110<132 329 494 691> 720 20G<164 327.767 652.481 824>
VStem: 670 154<586 740>
DStem2: 318 740 164 740 0.449144 -0.893459<0 287.105> 444 482 494 370 0.665615 0.746295<0 342.973>
LayerCount: 2
Fore
SplineSet
111 260 m 1
 132 370 l 1
 350 370 l 1
 164 740 l 1
 318 740 l 1
 444 482 l 1
 670 740 l 1
 824 740 l 1
 494 370 l 1
 712 370 l 1
 691 260 l 1
 473 260 l 1
 463 210 l 1
 681 210 l 1
 659 100 l 1
 441 100 l 1
 422 0 l 1
 278 0 l 1
 297 100 l 1
 79 100 l 1
 101 210 l 1
 319 210 l 1
 329 260 l 1
 111 260 l 1
EndSplineSet
Validated: 1
EndChar

StartChar: underscore
Encoding: 95 95 88
Width: 560
VWidth: 0
Flags: W
HStem: -200 110<-37 541>
LayerCount: 2
Fore
SplineSet
-37 -90 m 1
 563 -90 l 1
 541 -200 l 1
 -59 -200 l 1
 -37 -90 l 1
EndSplineSet
Validated: 1
EndChar

StartChar: grave
Encoding: 96 96 89
Width: 260
VWidth: 0
Flags: W
HStem: 590 170<245 328>
VStem: 168 187
LayerCount: 2
Fore
SplineSet
168 760 m 1
 328 760 l 1
 355 590 l 1
 245 590 l 1
 168 760 l 1
EndSplineSet
Validated: 1
EndChar

StartChar: nine
Encoding: 57 57 90
Width: 620
VWidth: 0
Flags: W
HStem: -20 112<249.69 392.774> 240 112<304.358 427.462> 648 112<352.161 499.788>
VStem: 122 145<388.019 555.559> 537 135<444.682 611.592>
LayerCount: 2
Fore
SplineSet
225 160 m 1
 225 159 l 2
 225 120 266 92 313 92 c 0
 414 92 479 172 510 331 c 1
 463 270 405 240 335 240 c 0
 208 240 122 327 122 448 c 0
 122 640 285 760 453 760 c 0
 599 760 672 678 672 515 c 0
 672 470 666 418 655 360 c 0
 606 107 484 -20 291 -20 c 0
 164 -20 81 45 81 156 c 2
 81 160 l 1
 225 160 l 1
431 648 m 0
 338 648 267 568 267 460 c 0
 267 395 303 352 373 352 c 0
 466 352 537 432 537 540 c 0
 537 605 501 648 431 648 c 0
EndSplineSet
Validated: 1
EndChar

StartChar: six
Encoding: 54 54 91
Width: 620
VWidth: 0
Flags: W
HStem: -20 112<264.212 412.033> 388 112<336.091 459.333> 648 112<371.226 514.31>
VStem: 92 135<128.408 295.318> 497 145<184.248 351.015>
LayerCount: 2
Fore
SplineSet
539 580 m 1
 539 581 l 2
 539 620 498 648 451 648 c 0
 350 648 285 568 254 409 c 1
 301 470 359 500 429 500 c 0
 556 500 642 413 642 292 c 0
 642 99 480 -20 311 -20 c 0
 165 -20 92 62 92 225 c 0
 92 270 98 322 109 380 c 0
 158 633 280 760 473 760 c 0
 600 760 683 695 683 584 c 2
 683 580 l 1
 539 580 l 1
333 92 m 0
 426 92 497 172 497 280 c 0
 497 345 460 388 390 388 c 0
 297 388 227 308 227 200 c 0
 227 135 263 92 333 92 c 0
EndSplineSet
Validated: 1
EndChar

StartChar: three
Encoding: 51 51 92
Width: 620
VWidth: 0
Flags: W
HStem: -20 112<260.272 404.712> 344 112<329 432.289> 555 21G<178 328> 648 112<365.035 497.833>
VStem: 77 147<128.495 220> 178 144<555 699> 481 146<167.98 302.413> 516 146<507.885 630.34>
LayerCount: 2
Fore
SplineSet
306 -20 m 0xf2
 164 -20 77 43 77 163 c 0
 77 181 79 200 83 220 c 1
 227 220 l 1
 225 210 224 200 224 191 c 0
 224 132 264 92 328 92 c 0
 406 92 481 155 481 246 c 0xfa
 481 312 424 344 307 344 c 1
 329 456 l 1
 432 456 516 477 516 579 c 0
 516 624 488 648 436 648 c 0
 376 648 334 615 322 555 c 1
 178 555 l 1
 203 684 320 760 458 760 c 0
 580 760 662 700 662 597 c 0xf5
 662 500 613 433 543 400 c 1
 600 371 627 326 627 265 c 0
 627 78 473 -20 306 -20 c 0xf2
EndSplineSet
Validated: 1
EndChar

StartChar: braceleft
Encoding: 123 123 93
Width: 370
VWidth: 900
Flags: W
HStem: -140 110<269.475 323> 630 110<385.7 472>
VStem: 117 145<-63 148.039> 134 144<3.68688 204.44>
LayerCount: 2
Fore
SplineSet
278 182 m 0xd0
 278 143 262 74 262 34 c 0
 262 -9 276 -30 304 -30 c 2
 344 -30 l 1
 323 -140 l 1
 193 -140 l 2
 140 -140 117 -90 117 -36 c 0xe0
 117 17 134 74 134 118 c 0
 134 177 118 220 67 240 c 1
 90 360 l 1
 177 389 213 478 234 588 c 0
 250 668 290 740 364 740 c 2
 494 740 l 1
 472 630 l 1
 432 630 l 2
 376 630 361 571 348 505 c 0
 331 418 288 325 218 300 c 1
 258 283 278 244 278 182 c 0xd0
EndSplineSet
Validated: 1
EndChar

StartChar: braceright
Encoding: 125 125 94
Width: 370
VWidth: 900
Flags: W
HStem: -140 110<14 96.8756> 630 110<164 220.749>
VStem: 210 143<395.103 600.401> 227 145<456.644 669>
LayerCount: 2
Fore
SplineSet
353 482 m 0xe0
 353 423 370 380 420 360 c 1
 397 240 l 1
 312 211 275 129 254 21 c 0
 239 -58 197 -140 123 -140 c 2
 -7 -140 l 1
 14 -30 l 1
 54 -30 l 2
 94 -30 122 13 139 100 c 0
 161 211 204 277 268 300 c 1
 226 318 210 368 210 427 c 0xe0
 210 474 227 532 227 575 c 0
 227 607 216 630 182 630 c 2
 142 630 l 1
 164 740 l 1
 294 740 l 2
 348 740 372 695 372 643 c 0xd0
 372 590 353 526 353 482 c 0xe0
EndSplineSet
Validated: 1
EndChar

StartChar: asciicircum
Encoding: 94 94 95
Width: 440
VWidth: 0
Flags: W
HStem: 420 280<272 296>
VStem: 102 110<420 530> 392 110<420 530>
DStem2: 102 420 212 420 0.569515 0.821981<62.6467 281.793> 416 700 337 600 0.293606 -0.955927<72.3978 260.613>
LayerCount: 2
Fore
SplineSet
212 420 m 1
 102 420 l 1
 296 700 l 1
 416 700 l 1
 502 420 l 1
 392 420 l 1
 337 600 l 1
 212 420 l 1
EndSplineSet
Validated: 1
EndChar

StartChar: brokenbar
Encoding: 166 166 96
Width: 240
VWidth: 0
Flags: W
VStem: 34 140<-80 60> 110 140<170 310> 130 140<410 550> 206 140<660 800>
DStem2: 34 -80 174 -80 0.190809 0.981627<26.7133 397.336 526.028 896.651>
LayerCount: 2
Fore
SplineSet
34 -80 m 1x80
 110 310 l 1
 250 310 l 1x40
 174 -80 l 1
 34 -80 l 1x80
130 410 m 1x20
 206 800 l 1
 346 800 l 1x10
 270 410 l 1
 130 410 l 1x20
EndSplineSet
Validated: 1
EndChar

StartChar: mu
Encoding: 181 181 97
Width: 620
VWidth: 0
Flags: W
HStem: -20 110<258.813 385.127> 0 21G<420 563.889> 520 20G<161.108 305 521.121 665>
VStem: 21 140<-200 -60> 165 140<400 540> 525 140<400 540>
DStem2: 21 -200 161 -200 0.190809 0.981627<26.7133 271.272 405.951 753.881> 381.124 -200 521.124 -200 0.190809 0.981627<230.457 244.535 330.016 753.857>
LayerCount: 2
Fore
SplineSet
306 -20 m 0xbc
 259 -20 213 6 208 40 c 1
 161 -200 l 1
 21 -200 l 1
 165 540 l 1
 305 540 l 1
 241 210 l 2
 238 196 237 183 237 171 c 0
 237 117 267 90 327 90 c 0xbc
 400 90 445 130 461 210 c 2
 525 540 l 1
 665 540 l 1
 560 0 l 1
 420 0 l 1x7c
 428 40 l 1
 409 6 353 -20 306 -20 c 0xbc
EndSplineSet
Validated: 1
EndChar

StartChar: at
Encoding: 64 64 98
Width: 1000
VWidth: 0
Flags: W
HStem: -200 120<366.7 642.686> 50 90<471.777 579.869> 440 110<524.812 640.913> 650 110<505.184 756.314>
VStem: 85 140<61.0485 326.224> 301 141<171.872 342.712> 888 140<247.32 518.443>
LayerCount: 2
Fore
SplineSet
484 -80 m 0
 548 -80 676 -60 722 -40 c 1
 699 -160 l 1
 633 -187 546 -200 441 -200 c 0
 211 -200 85 -41 85 173 c 0
 85 513 357 760 652 760 c 0
 888 760 1028 619 1028 402 c 0
 1028 202 916 -30 744 -30 c 2
 604 -30 l 1
 633 120 l 1
 602 73 554 50 488 50 c 0
 370 50 301 124 301 234 c 0
 301 407 440 550 587 550 c 0
 643 550 692 519 703 480 c 1
 713 530 l 1
 853 530 l 1
 766 80 l 1
 843 80 888 307 888 400 c 0
 888 555 806 650 632 650 c 0
 397 650 225 456 225 183 c 0
 225 24 310 -80 484 -80 c 0
527 140 m 0
 606 140 670 236 670 331 c 0
 670 391 643 440 586 440 c 0
 507 440 442 344 442 249 c 0
 442 189 470 140 527 140 c 0
EndSplineSet
Validated: 1
EndChar

StartChar: paragraph
Encoding: 182 182 99
Width: 580
VWidth: 0
Flags: W
HStem: 0 21G<360 503.892> 720 20G<315.5 644>
VStem: 360 140<0 140>
DStem2: 360 0 500 0 0.190809 0.981627<26.7133 274.961>
LayerCount: 2
Fore
SplineSet
384 740 m 2
 644 740 l 1
 500 0 l 1
 360 0 l 1
 412 270 l 1
 292 270 l 2
 188 270 132 342 132 444 c 0
 132 610 247 740 384 740 c 2
EndSplineSet
Validated: 1
EndChar

StartChar: question
Encoding: 63 63 100
Width: 560
Flags: W
HStem: 0 130<235 350> 650 110<337.676 467.002>
VStem: 141 140<520 660> 486 141<472.254 631.1>
DStem2: 210 0 350 0 0.190809 0.981627<26.7133 132.382 220.282 307.297>
LayerCount: 2
Fore
SplineSet
428 760 m 0
 552 760 627 690 627 577 c 0
 627 476 586 415 510 360 c 0
 440 310 401 260 391 210 c 2
 387 190 l 1
 247 190 l 1
 253 220 l 2
 265 283 326 346 374 380 c 0
 451 436 486 480 486 568 c 0
 486 623 459 650 406 650 c 0
 339 650 298 607 281 520 c 1
 141 520 l 1
 169 665 284 760 428 760 c 0
210 0 m 1
 235 130 l 1
 375 130 l 1
 350 0 l 1
 210 0 l 1
EndSplineSet
Validated: 1
EndChar

StartChar: section
Encoding: 167 167 101
Width: 550
VWidth: 0
Flags: W
HStem: -50 110<234.706 348.988> 650 110<339.012 453.294>
VStem: 82 142<71.5875 129.555> 105 142<312.97 389.099> 170 142<539.661 621.278> 376 142<88.7223 170.339> 441 142<320.901 397.03> 464 142<580.445 638.413>
LayerCount: 2
Fore
SplineSet
357 420 m 1xd2
 307 420 247 394 247 343 c 0
 247 318 275 301 331 290 c 1
 381 290 441 316 441 367 c 0
 441 392 413 409 357 420 c 1xd2
401 650 m 0
 355 650 312 620 312 570 c 0
 312 539 339 537 378 530 c 0
 486 510 583 484 583 391 c 0xca
 583 313 543 258 487 224 c 1
 508 204 518 180 518 153 c 0
 518 22 384 -50 265 -50 c 0
 158 -50 82 1 82 93 c 0
 82 105 83 117 85 130 c 1
 225 130 l 1
 224 124 224 119 224 114 c 0xe4
 224 80 248 60 287 60 c 0
 333 60 376 90 376 140 c 0
 376 171 349 173 310 180 c 0
 202 200 105 226 105 319 c 0xd4
 105 397 145 452 201 486 c 1
 180 506 170 530 170 557 c 0
 170 688 304 760 423 760 c 0
 530 760 606 709 606 617 c 0
 606 605 605 593 603 580 c 1
 463 580 l 1
 464 586 464 591 464 596 c 0xc9
 464 630 440 650 401 650 c 0
EndSplineSet
Validated: 1
EndChar

StartChar: dieresis
Encoding: 168 168 102
Width: 490
Flags: W
HStem: 640 130<210 324 440 554>
LayerCount: 2
Fore
SplineSet
184 640 m 1
 210 770 l 1
 350 770 l 1
 324 640 l 1
 184 640 l 1
414 640 m 1
 440 770 l 1
 580 770 l 1
 554 640 l 1
 414 640 l 1
EndSplineSet
Validated: 1
EndChar

StartChar: dotlessi
Encoding: 305 305 108
Width: 300
VWidth: 0
Flags: W
HStem: 0 21G<80 223.889> 520 20G<181.111 325>
VStem: 80 140<0 140> 185 140<400 540>
DStem2: 80 0 220 0 0.190809 0.981627<26.7133 550.114>
LayerCount: 2
Fore
SplineSet
220 0 m 1xe0
 80 0 l 1xe0
 185 540 l 1
 325 540 l 1xd0
 220 0 l 1xe0
EndSplineSet
Validated: 1
EndChar

StartChar: sterling
Encoding: 163 163 115
Width: 600
VWidth: 937
Flags: W
HStem: 0 110<211 560> 300 110<100 138 300 448> 650 110<382.507 505.413>
VStem: 526 142<520.983 629.502>
DStem2: 80.2363 0 220.236 0 0.190809 0.981627<144.112 305.51 444.4 643.124>
LayerCount: 2
Fore
SplineSet
446 650 m 0
 374 650 334 586 319 510 c 2
 300 410 l 1
 470 410 l 1
 448 300 l 1
 278 300 l 1
 263 220 l 2
 252 163 234 127 211 110 c 1
 581 110 l 1
 560 0 l 1
 40 0 l 1
 61 110 l 1
 92 132 113 169 123 220 c 2
 138 300 l 1
 78 300 l 1
 100 410 l 1
 160 410 l 1
 179 510 l 2
 210 669 317 760 469 760 c 0
 598 760 668 702 668 588 c 0
 668 567 666 544 661 520 c 1
 521 520 l 1
 524 538 526 554 526 568 c 0
 526 623 499 650 446 650 c 0
EndSplineSet
Validated: 1
EndChar

StartChar: acute
Encoding: 180 180 117
Width: 260
VWidth: 0
Flags: W
HStem: 590 170<228 245>
VStem: 135 253
LayerCount: 2
Fore
SplineSet
388 760 m 1
 245 590 l 1
 135 590 l 1
 228 760 l 1
 388 760 l 1
EndSplineSet
Validated: 1
EndChar

StartChar: five
Encoding: 53 53 138
Width: 620
VWidth: 0
Flags: W
HStem: -20 112<251.022 395.32> 388 112<340.209 442.512> 630 110<367 652>
VStem: 85 144<115.019 180> 479 146<184.251 352.675>
DStem2: 108 300 301 440 0.334164 0.942515<196.446 397.578>
LayerCount: 2
Fore
SplineSet
479 281 m 0
 479 346 444 388 375 388 c 0
 323 388 280 359 248 300 c 1
 108 300 l 1
 264 740 l 1
 674 740 l 1
 652 630 l 1
 367 630 l 1
 301 440 l 1
 321 471 362 500 417 500 c 0
 548 500 625 424 625 304 c 0
 625 106 476 -20 296 -20 c 0
 171 -20 85 70 85 178 c 2
 85 180 l 1
 229 180 l 1
 229 177 l 2
 229 120 258 92 318 92 c 0
 413 92 479 169 479 281 c 0
EndSplineSet
Validated: 1
EndChar

StartChar: questiondown
Encoding: 191 191 140
Width: 560
Flags: W
HStem: -220 110<198.615 327.324> 410 130<315 430>
VStem: 38 141<-88.561 67.9967> 384 140<-120 20>
DStem2: 167.091 -220 307.035 -220 0.190809 0.981627<493.676 580.69 668.591 774.259>
LayerCount: 2
Fore
SplineSet
237 -220 m 0
 113 -220 38 -150 38 -37 c 0
 38 64 79 125 155 180 c 0
 225 230 264 280 274 330 c 2
 278 350 l 1
 418 350 l 1
 412 320 l 2
 400 257 339 194 291 160 c 0
 215 105 179 60 179 -27 c 0
 179 -82 206 -110 259 -110 c 0
 326 -110 367 -67 384 20 c 1
 524 20 l 1
 496 -125 381 -220 237 -220 c 0
455 540 m 1
 430 410 l 1
 290 410 l 1
 315 540 l 1
 455 540 l 1
EndSplineSet
Validated: 1
EndChar

StartChar: thorn
Encoding: 254 254 141
Width: 670
VWidth: 0
Flags: W
HStem: -20 110<307.33 452.415> 450 110<390.676 517.238> 720 20G<220.106 364>
VStem: 41 140<-200 -60> 224 140<600 740> 558 134<224.875 407.59>
DStem2: 41 -200 181 -200 0.190809 0.981627<26.7133 291.668 719.407 957.648>
LayerCount: 2
Fore
SplineSet
377 90 m 0
 484 90 558 197 558 326 c 0
 558 399 523 450 447 450 c 0
 341 450 267 344 267 215 c 0
 267 141 301 90 377 90 c 0
376 -20 m 0
 302 -20 250 12 232 60 c 1
 181 -200 l 1
 41 -200 l 1
 224 740 l 1
 364 740 l 1
 313 480 l 1
 351 528 415 560 489 560 c 0
 611 560 692 485 692 358 c 0
 692 164 560 -20 376 -20 c 0
EndSplineSet
Validated: 1
EndChar

StartChar: dotlessj
Encoding: 567 567 144
Width: 300
VWidth: 0
Flags: W
HStem: -240 110<-45.9565 48.4115> 520 20G<181.105 325>
VStem: 185 140<400 540>
DStem2: 33.1801 -240 173.068 -240 0.190809 0.981627<117.146 794.638>
LayerCount: 2
Fore
SplineSet
11 -130 m 0
 52 -130 64 -82 74 -30 c 2
 185 540 l 1
 325 540 l 1
 210 -50 l 2
 188 -165 141 -240 39 -240 c 0
 -4 -240 -39 -235 -64 -225 c 1
 -44 -125 l 1
 -23 -128 -4 -130 11 -130 c 0
EndSplineSet
Validated: 1
EndChar

StartChar: asciitilde
Encoding: 126 126 160
Width: 670
VWidth: 0
Flags: W
HStem: 200 100<478.49 557.373> 360 100<241.138 319.564>
VStem: 63 140<220 295.41> 596 140<364.59 440>
DStem2: 383 425 416 235 0.665788 -0.746141<-20.8012 183.873>
LayerCount: 2
Fore
SplineSet
63 220 m 1
 94 380 172 460 299 460 c 0
 334 460 362 448 383 425 c 2
 440 360 l 2
 475 320 501 300 520 300 c 0
 539 300 553 309 564 328 c 0
 575 347 585 385 596 440 c 1
 736 440 l 1
 705 280 626 200 499 200 c 0
 464 200 437 212 416 235 c 2
 358 300 l 2
 323 340 297 360 278 360 c 0
 259 360 246 351 235 332 c 0
 224 313 214 275 203 220 c 1
 63 220 l 1
EndSplineSet
Validated: 1
EndChar

StartChar: logicalnot
Encoding: 172 172 161
Width: 490
VWidth: 45
Flags: W
HStem: 275 110<95 383>
LayerCount: 2
Fore
SplineSet
73 275 m 1
 95 385 l 1
 545 385 l 1
 497 140 l 1
 357 140 l 1
 383 275 l 1
 73 275 l 1
EndSplineSet
Validated: 1
EndChar

StartChar: ampersand
Encoding: 38 38 164
Width: 740
VWidth: 0
Flags: W
HStem: -20 110<237.806 432.77> 0 21G<555.957 720> 650 110<402.233 514.154>
VStem: 71 142<115.492 235.461> 223 141<470.6 612.643> 527 141<516.243 638.112> 662 110<297.634 370>
DStem2: 471 373 338 322 0.555215 -0.831707<0 198.305>
LayerCount: 2
Fore
SplineSet
465 130 m 1xb8
 338 322 l 1
 270 286 213 235 213 162 c 0
 213 114 256 90 327 90 c 0
 382 90 429 104 465 130 c 1xb8
461 650 m 0
 402 650 364 604 364 539 c 0
 364 505 376 470 407 450 c 1
 483 476 527 520 527 589 c 0x3c
 527 626 507 650 461 650 c 0
306 -20 m 0xba
 147 -20 71 42 71 139 c 0
 71 269 154 340 267 398 c 1
 242 423 223 470 223 523 c 0
 223 673 359 760 488 760 c 0
 595 760 668 693 668 601 c 0xbc
 668 490 616 437 471 373 c 1
 581 208 l 1
 617 234 646 290 662 370 c 1
 772 370 l 1
 751 263 702 172 643 115 c 1
 720 0 l 1
 569 0 l 1x7a
 539 46 l 1
 473 -5 396 -20 306 -20 c 0xba
EndSplineSet
Validated: 1
EndChar

StartChar: longs
Encoding: 383 383 165
Width: 350
VWidth: 0
Flags: W
HStem: 0 21G<90 233.891> 430 110<125 174> 650 110<362.589 456.957>
VStem: 90 140<0 140>
DStem2: 90 0 230 0 0.190809 0.981627<26.7133 438.128 550.114 683.809>
LayerCount: 2
Fore
SplineSet
230 0 m 1
 90 0 l 1
 174 430 l 1
 104 430 l 1
 125 540 l 1
 195 540 l 1
 201 570 l 2
 223 685 270 760 372 760 c 0
 415 760 450 755 475 745 c 1
 455 645 l 1
 434 648 415 650 400 650 c 0
 359 650 347 602 337 550 c 2
 230 0 l 1
EndSplineSet
Validated: 1
EndChar

StartChar: divide
Encoding: 247 247 166
Width: 600
VWidth: 0
Flags: W
HStem: 100 110<271 389> 315 110<103 641> 510 110<351 469>
LayerCount: 2
Fore
SplineSet
663 425 m 1
 641 315 l 1
 81 315 l 1
 103 425 l 1
 663 425 l 1
411 210 m 1
 389 100 l 1
 249 100 l 1
 271 210 l 1
 411 210 l 1
329 510 m 1
 351 620 l 1
 491 620 l 1
 469 510 l 1
 329 510 l 1
EndSplineSet
Validated: 1
EndChar

StartChar: f_f
Encoding: 64256 64256 167
Width: 660
VWidth: 0
Flags: W
HStem: 0 21G<90 233.907 400 543.907> 430 110<125 174 335 484 645 714> 645 100<410.94 476.4 710.706 766.4> 650 110<366.016 476.493 672.589 766.957>
VStem: 90 140<0 140> 400 140<0 140>
DStem2: 90 0 230 0 0.190809 0.981627<26.7133 438.128 576.827 679.63> 400 0 540 0 0.190809 0.981627<26.7133 438.128 576.827 683.809>
LayerCount: 2
Fore
SplineSet
410 650 m 0xdc
 360 650 347 602 337 550 c 2
 335 540 l 1
 505 540 l 1
 511 570 l 2
 533 685 580 760 682 760 c 0xdc
 725 760 760 755 785 745 c 1
 765 645 l 1xec
 744 648 725 650 710 650 c 0
 669 650 657 602 647 550 c 2
 645 540 l 1
 735 540 l 1
 714 430 l 1
 624 430 l 1
 540 0 l 1
 400 0 l 1
 484 430 l 1
 314 430 l 1
 230 0 l 1
 90 0 l 1
 174 430 l 1
 104 430 l 1
 125 540 l 1
 195 540 l 1
 201 570 l 2
 223 685 272 760 382 760 c 0xdc
 425 760 470 755 495 745 c 1
 475 645 l 1xec
 454 648 430 650 410 650 c 0xdc
EndSplineSet
Validated: 1
LCarets2: 1 0
Ligature2: "about f" f f
EndChar

StartChar: f_i
Encoding: 64257 64257 168
Width: 600
VWidth: 0
Flags: W
HStem: 0 21G<90 233.907 380 523.889> 430 110<125 174 335 405> 650 110<370.852 491.08>
VStem: 90 140<0 140> 380 140<0 140> 485 140<400 540>
DStem2: 90 0 230 0 0.190809 0.981627<26.7133 438.128 576.827 674.562> 380 0 520 0 0.190809 0.981627<26.7133 550.114>
LayerCount: 2
Fore
SplineSet
485 540 m 1xf4
 625 540 l 1xf4
 520 0 l 1
 380 0 l 1xf8
 485 540 l 1xf4
426 540 m 1
 405 430 l 1
 314 430 l 1
 230 0 l 1
 90 0 l 1
 174 430 l 1
 104 430 l 1
 125 540 l 1
 195 540 l 1
 201 570 l 2
 228 710 343 760 453 760 c 0
 553 760 641 718 641 635 c 0
 641 627 641 619 639 610 c 1
 499 610 l 1
 499 611 499 612 499 613 c 0
 499 632 469 650 431 650 c 0
 391 650 352 630 341 570 c 2
 335 540 l 1
 426 540 l 1
EndSplineSet
Validated: 1
LCarets2: 1 0
Ligature2: "about f" f i
EndChar

StartChar: f_l
Encoding: 64258 64258 169
Width: 600
VWidth: 0
Flags: W
HStem: 0 21G<90 233.907 380 523.902> 430 110<125 174 335 405> 650 110<370.852 491.08>
VStem: 90 140<0 140> 380 140<0 140>
DStem2: 90 0 230 0 0.190809 0.981627<26.7133 438.128 576.827 674.562> 380 0 520 0 0.190809 0.981627<26.7133 624.444>
LayerCount: 2
Fore
SplineSet
426 540 m 1
 405 430 l 1
 314 430 l 1
 230 0 l 1
 90 0 l 1
 174 430 l 1
 104 430 l 1
 125 540 l 1
 195 540 l 1
 201 570 l 2
 228 710 343 760 453 760 c 0
 553 760 641 718 641 635 c 0
 641 627 641 619 639 610 c 2
 520 0 l 1
 380 0 l 1
 499 610 l 2
 499 611 499 612 499 613 c 0
 499 632 469 650 431 650 c 0
 391 650 352 630 341 570 c 2
 335 540 l 1
 426 540 l 1
EndSplineSet
Validated: 1
LCarets2: 1 0
Ligature2: "about f" f l
EndChar

StartChar: f_f_i
Encoding: 64259 64259 170
Width: 910
VWidth: 0
Flags: W
HStem: 0 21G<90 233.907 399 542.907 689 833.889> 430 110<125 174 335 483 644 714> 650 110<366.016 476.493 680.055 800.101>
VStem: 90 140<0 140> 399 140<0 140> 689 141<0 141> 794 141<399 540>
DStem2: 90 0 230 0 0.190809 0.981627<26.7133 438.128 576.827 679.63> 399 0 539 0 0.190809 0.981627<26.7133 438.128 576.827 673.899> 689 0 830 0 0.190809 0.981627<26.9041 550.114>
LayerCount: 2
Fore
SplineSet
314 430 m 1xf8
 230 0 l 1
 90 0 l 1
 174 430 l 1
 104 430 l 1
 125 540 l 1
 195 540 l 1
 201 570 l 2
 223 685 272 760 382 760 c 0
 425 760 470 755 495 745 c 1
 475 645 l 1
 454 648 430 650 410 650 c 0
 360 650 347 602 337 550 c 2
 335 540 l 1
 504 540 l 1
 510 570 l 2
 537 710 652 760 762 760 c 0
 862 760 951 718 951 635 c 0
 951 627 951 619 949 610 c 1
 808 610 l 1
 808 611 808 612 808 613 c 0
 808 632 778 650 740 650 c 0
 700 650 662 630 650 570 c 2
 644 540 l 1
 735 540 l 1
 714 430 l 1
 623 430 l 1
 539 0 l 1
 399 0 l 1
 483 430 l 1
 314 430 l 1xf8
794 540 m 1xfa
 935 540 l 1xfa
 830 0 l 1
 689 0 l 1xfc
 794 540 l 1xfa
EndSplineSet
Validated: 1
LCarets2: 2 0 0
Ligature2: "about f" f f i
EndChar

StartChar: f_f_l
Encoding: 64260 64260 171
Width: 910
VWidth: 0
Flags: W
HStem: 0 21G<90 233.907 399 542.907 690 834.902> 430 110<125 174 335 483 644 714> 650 110<366.016 476.493 680.489 801.245>
VStem: 90 140<0 140> 399 140<0 140> 690 141<0 141>
DStem2: 90 0 230 0 0.190809 0.981627<26.7133 438.128 576.827 679.63> 399 0 539 0 0.190809 0.981627<26.7133 438.128 576.827 673.916> 690 0 831 0 0.190809 0.981627<26.9041 624.444>
LayerCount: 2
Fore
SplineSet
314 430 m 1
 230 0 l 1
 90 0 l 1
 174 430 l 1
 104 430 l 1
 125 540 l 1
 195 540 l 1
 201 570 l 2
 223 685 272 760 382 760 c 0
 425 760 470 755 495 745 c 1
 475 645 l 1
 454 648 430 650 410 650 c 0
 360 650 347 602 337 550 c 2
 335 540 l 1
 504 540 l 1
 510 570 l 2
 537 710 653 760 763 760 c 0
 864 760 952 719 952 635 c 0
 952 627 952 619 950 610 c 2
 831 0 l 1
 690 0 l 1
 809 610 l 2
 809 611 809 612 809 613 c 0
 809 632 779 650 741 650 c 0
 701 650 661 630 650 570 c 2
 644 540 l 1
 735 540 l 1
 714 430 l 1
 623 430 l 1
 539 0 l 1
 399 0 l 1
 483 430 l 1
 314 430 l 1
EndSplineSet
Validated: 1
LCarets2: 2 0 0
Ligature2: "about f" f f l
EndChar

StartChar: longs_t
Encoding: 64261 64261 172
Width: 640
VWidth: 0
Flags: W
HStem: -20 110<471.5 618.807> 0 21G<90 233.895> 430 110<125 174 415 464 625 694> 650 110<370.852 491.08>
VStem: 90 140<0 140> 405 144<57.1035 238.906> 499 142<575 638.861>
DStem2: 86.1124 -20 226.112 -20 0.190809 0.981627<47.0876 458.502 570.488 694.936> 376.068 -20 516.18 -20 0.190809 0.981627<182.008 458.51 597.21 644.827>
LayerCount: 2
Fore
SplineSet
230 0 m 1x7a
 90 0 l 1
 174 430 l 1
 104 430 l 1
 125 540 l 1
 195 540 l 1
 201 570 l 2
 228 710 343 760 453 760 c 0
 553 760 641 718 641 635 c 0x7a
 641 627 641 619 639 610 c 2
 625 540 l 1
 715 540 l 1
 694 430 l 1
 604 430 l 1
 557 190 l 2
 553 169 549 148 549 131 c 0
 549 107 557 90 581 90 c 0
 596 90 616 92 638 95 c 1
 619 -5 l 1
 590 -15 553 -20 510 -20 c 0
 433 -20 405 23 405 93 c 0xbc
 405 116 408 142 413 170 c 2
 464 430 l 1
 394 430 l 1
 415 540 l 1
 485 540 l 1
 499 610 l 2
 499 611 499 612 499 613 c 0
 499 632 469 650 431 650 c 0
 391 650 352 630 341 570 c 2
 230 0 l 1x7a
EndSplineSet
Validated: 1
EndChar

StartChar: macron
Encoding: 175 175 175
Width: 360
VWidth: 0
Flags: W
HStem: 660 110<170 468>
LayerCount: 2
Fore
SplineSet
148 660 m 1
 170 770 l 1
 490 770 l 1
 468 660 l 1
 148 660 l 1
EndSplineSet
Validated: 1
EndChar

StartChar: ae
Encoding: 230 230 185
Width: 970
VWidth: 0
Flags: W
HStem: -20 110<221.078 364.275 610.112 758.681> 230 110<253.011 431.77 596 856> 450 110<307.124 448.197 665.312 818.6>
VStem: 65 144<103.157 191.108>
LayerCount: 2
Fore
SplineSet
856 340 m 1
 850 408 827 450 747 450 c 0
 667 450 628 408 596 340 c 1
 856 340 l 1
282 90 m 0
 359 90 415 127 429 200 c 2
 433 220 l 1
 409 227 385 230 360 230 c 0
 290 230 209 212 209 141 c 0
 209 105 244 90 282 90 c 0
241 -20 m 0
 138 -20 65 20 65 112 c 0
 65 263 221 340 361 340 c 0
 391 340 422 337 454 330 c 1
 460 360 l 2
 462 370 463 379 463 387 c 0
 463 429 437 450 382 450 c 0
 317 450 281 418 272 370 c 1
 132 370 l 1
 155 489 265 560 405 560 c 0
 495 560 539 536 571 492 c 1
 625 535 694 560 771 560 c 0
 918 560 985 469 985 332 c 0
 985 300 982 266 975 230 c 1
 575 230 l 1
 575 223 574 216 574 210 c 0
 574 140 602 90 677 90 c 0
 736 90 796 124 813 170 c 1
 953 170 l 1
 908 53 796 -20 651 -20 c 0
 561 -20 497 16 463 77 c 1
 416 17 349 -20 241 -20 c 0
EndSplineSet
Validated: 1
EndChar

StartChar: s_t
Encoding: 64262 64262 186
Width: 900
VWidth: 0
Flags: W
HStem: -20 110<226.647 366.924 731.5 878.807> 430 110<675 724 885 954> 450 110<299.554 415.419> 650 110<630.852 751.08>
VStem: 67 143<108.089 160> 132 142<342.582 424.144> 402 142<121.343 196.843> 665 144<57.1035 238.906> 759 142<575 638.861>
DStem2: 636.068 -20 776.18 -20 0.190809 0.981627<182.008 458.51 597.21 644.827>
LayerCount: 2
Fore
SplineSet
362 450 m 0xb280
 317 450 274 421 274 372 c 0xb680
 274 344 300 337 339 330 c 0
 447 310 544 284 544 191 c 0
 544 44 405 -20 271 -20 c 0
 154 -20 67 26 67 123 c 0
 67 135 68 147 71 160 c 1
 211 160 l 1
 210 156 210 151 210 147 c 0xba
 210 110 245 90 292 90 c 0
 342 90 402 116 402 167 c 0
 402 191 373 209 318 220 c 0
 194 244 132 289 132 356 c 0
 132 489 264 560 384 560 c 0
 411 560 435 557 457 551 c 1
 461 570 l 1
 488 710 603 760 713 760 c 0
 813 760 901 718 901 635 c 0xb680
 901 627 901 619 899 610 c 2
 885 540 l 1
 975 540 l 1
 954 430 l 1
 864 430 l 1
 817 190 l 2
 813 169 809 148 809 131 c 0
 809 107 817 90 841 90 c 0
 856 90 876 92 898 95 c 1
 879 -5 l 1
 850 -15 813 -20 770 -20 c 0
 693 -20 665 23 665 93 c 0
 665 116 668 142 673 170 c 2
 724 430 l 1
 654 430 l 1
 675 540 l 1
 745 540 l 1xd3
 759 610 l 2
 759 611 759 612 759 613 c 0
 759 632 729 650 691 650 c 0
 651 650 612 630 601 570 c 2
 564 380 l 1
 424 380 l 1
 425 385 425 391 425 396 c 0
 425 431 401 450 362 450 c 0xb280
EndSplineSet
Validated: 1
LCarets2: 1 0
Ligature2: "+x4THWMCsxqkA +1WnHTMeQ" s t
EndChar

StartChar: AE
Encoding: 198 198 187
Width: 820
VWidth: 1914
Flags: W
HStem: 0 112<541 800> 199 112<313 414> 314 112<602 831> 628 112<477 497 641 922>
DStem2: 20 0 154 0 0.456805 0.889567<61.2118 284.83 410.499 767.408> 375.318 0 519.229 0 0.190809 0.981627<141.556 202.725 316.674 347.286 461.426 639.68>
LayerCount: 2
Fore
SplineSet
435 311 m 1
 497 628 l 1
 477 628 l 1
 313 311 l 1
 435 311 l 1
154 0 m 1
 20 0 l 1
 400 740 l 1
 944 740 l 1
 922 628 l 1
 641 628 l 1
 602 426 l 1
 853 426 l 1
 831 314 l 1
 580 314 l 1
 541 112 l 1
 822 112 l 1
 800 0 l 1
 375 0 l 1
 414 199 l 1
 256 199 l 1
 154 0 l 1
EndSplineSet
Validated: 1
EndChar

StartChar: one.superior
Encoding: 185 185 188
Width: 425
VWidth: 0
VStem: 264 108<307 415>
DStem2: 212 715 194 624 0.919622 0.392804<0 103.169> 264 307 372 307 0.190809 0.981627<20.6074 384.984>
LayerCount: 2
Fore
SplineSet
194 624 m 5
 212 715 l 5
 411 800 l 5
 468 800 l 5
 372 307 l 5
 264 307 l 5
 337 685 l 5
 194 624 l 5
EndSplineSet
Validated: 1
EndChar

StartChar: two.superior
Encoding: 178 178 189
Width: 437
VWidth: 0
HStem: 303 84<287 470> 726 84<294.256 403.167>
VStem: 150 108<632 740> 416 109<590.485 711.61>
DStem2: 325 520 287 387 0.832663 0.55378<-105.294 102.984>
LayerCount: 2
Fore
SplineSet
353 726 m 0
 298 726 268 686 258 632 c 1
 150 632 l 1
 171 741 255 810 368 810 c 0
 465 810 525 755 525 671 c 0
 525 659 524 646 521 632 c 0
 501 527 410 471 335 419 c 2
 287 387 l 1
 486 387 l 1
 470 303 l 5
 101 303 l 1
 116 381 l 1
 325 520 l 2
 374 553 405 591 413 633 c 0
 415 643 416 653 416 662 c 0
 416 700 397 726 353 726 c 0
EndSplineSet
Validated: 1
EndChar

StartChar: three.superior
Encoding: 179 179 190
Width: 445
VWidth: 0
HStem: 284 85<236.968 360.682> 527 85<293 377.375> 729 85<304.696 414.301>
VStem: 111 110<385.924 449> 400 109<408.745 505.691> 421 110<636.546 721.404>
LayerCount: 2
Fore
SplineSet
506 447 m 0xf8
 485 341 396 284 278 284 c 0
 174 284 111 329 111 412 c 0
 111 424 111 436 114 449 c 1
 222 449 l 1
 221 443 221 438 221 433 c 0
 221 395 249 369 295 369 c 0
 347 369 389 402 398 449 c 0
 399 454 400 459 400 464 c 0xf8
 400 506 359 527 276 527 c 1
 293 612 l 1
 360 612 409 622 419 671 c 0
 420 676 421 681 421 685 c 0
 421 714 400 729 364 729 c 0
 322 729 293 709 286 672 c 1
 180 672 l 1
 197 761 281 814 381 814 c 0
 470 814 531 773 531 702 c 0xf4
 531 693 530 685 528 675 c 0
 518 625 491 589 444 569 c 1
 488 549 509 518 509 476 c 0
 509 467 508 457 506 447 c 0xf8
EndSplineSet
Validated: 1
EndChar

StartChar: circumflex
Encoding: 710 710 191
Width: 380
VWidth: 0
Flags: W
HStem: 580 180<243 278>
VStem: 133 110<580 690>
DStem2: 133 580 243 580 0.62733 0.778754<69.0062 194.883>
LayerCount: 2
Fore
SplineSet
322 678 m 1
 243 580 l 1
 133 580 l 1
 278 760 l 1
 398 760 l 1
 473 580 l 1
 363 580 l 1
 322 678 l 1
EndSplineSet
Validated: 1
EndChar

StartChar: caron
Encoding: 711 711 219
Width: 380
VWidth: 0
Flags: W
HStem: 580 180<243 278>
VStem: 398 110<650 760>
DStem2: 319 662 363 580 0.62733 0.778754<0 125.877>
LayerCount: 2
Fore
SplineSet
319 662 m 1
 398 760 l 1
 508 760 l 1
 363 580 l 1
 243 580 l 1
 168 760 l 1
 278 760 l 1
 319 662 l 1
EndSplineSet
Validated: 1
EndChar

StartChar: germandbls
Encoding: 223 223 230
Width: 650
VWidth: 0
Flags: W
HStem: -20 110<307.981 459.051> 0 21G<80 223.891> 335 110<416 474.551> 650 110<378.439 526.827>
VStem: 80 140<0 140> 513 142<148.434 299.196> 553 141<498.924 623.966>
DStem2: 76.1124 -20 216.112 -20 0.190809 0.981627<47.0876 675.042>
LayerCount: 2
Fore
SplineSet
397 90 m 0xbc
 470.195685624 90 513 161.354190729 513 235 c 0xbc
 513 287 481 335 395 335 c 1
 416 445 l 1
 498.687149246 445 553 496.143830866 553 570 c 0
 553 612 525 650 456 650 c 0
 376 650 337 600 327 550 c 2
 220 0 l 1
 80 0 l 1
 187 550 l 2
 204 640 298 760 478 760 c 0
 636 760 694 668 694 584 c 0x7a
 694 486.290769089 633.324355116 427.583878218 560 392 c 1
 619 362 655 317 655 251 c 0
 655 94.1412060119 531 -20 376 -20 c 4xbc
 346 -20 316 -10 290 0 c 1x7c
 311 110 l 1
 337 100 367 90 397 90 c 0xbc
EndSplineSet
Validated: 1
EndChar

StartChar: breve
Encoding: 728 728 239
Width: 0
VWidth: 0
Flags: W
HStem: 570 80<-83.2279 -17.7537>
VStem: -201 111<654.302 740> 14 110<630 740>
LayerCount: 2
Fore
SplineSet
-196 740 m 1
 -86 740 l 1
 -88 729 -90 718 -90 708 c 0
 -90 674 -77 650 -54 650 c 0
 -24 650 4 690 14 740 c 1
 124 740 l 1
 103 630 21 570 -69 570 c 0
 -146 570 -201 615 -201 697 c 0
 -201 710 -199 725 -196 740 c 1
EndSplineSet
Validated: 1
EndChar

StartChar: ring
Encoding: 730 730 246
Width: 0
VWidth: 0
Flags: W
HStem: 400 80<-116.228 -50.7537> 660 80<-89.5201 -24.0213>
VStem: -234 111<484.83 617.862> -16 111<520.844 655.698>
LayerCount: 2
Fore
SplineSet
91 570 m 0
 70 460 -12 400 -102 400 c 0
 -179 400 -234 445 -234 527 c 0
 -234 540 -232 555 -229 570 c 0
 -208 680 -126 740 -36 740 c 0
 41 740 95 695 95 613 c 0
 95 600 94 585 91 570 c 0
-119 570 m 0
 -121 559 -123 548 -123 538 c 0
 -123 504 -110 480 -87 480 c 0
 -57 480 -29 520 -19 570 c 0
 -17 581 -16 592 -16 602 c 0
 -16 636 -29 660 -52 660 c 0
 -82 660 -109 620 -119 570 c 0
EndSplineSet
Validated: 1
EndChar

StartChar: ogonek
Encoding: 731 731 259
Width: 310
Flags: W
HStem: -220 74<132.939 230.535> -20 20G<104.5 240>
VStem: 16 113<-139.235 -67.1033>
LayerCount: 2
Fore
SplineSet
19 -110 m 0
 29 -60 69 -24 140 0 c 1
 240 0 l 1
 153 -45 137 -70 131 -100 c 0
 130 -104 129 -107 129 -110 c 0
 129 -137 156 -146 192 -146 c 0
 212 -146 228 -139 246 -126 c 1
 231 -200 l 1
 208 -212 177 -220 137 -220 c 0
 66 -220 16 -188 16 -131 c 0
 16 -124 18 -117 19 -110 c 0
EndSplineSet
Validated: 1
EndChar

StartChar: Aogonek
Encoding: 260 260 260
Width: 700
VWidth: 0
HStem: -213 74<557.886 654.535> 0 21G<20 164.251> 199 112<313 507> 720 20G<389.73 590.486>
VStem: 441 113<-132.464 -56.3801>
DStem2: 20 0 154 0 0.456805 0.889567<61.2118 284.83 410.499 753.535> 588 740 470 616 0.123375 -0.99236<108.494 415.729 528.724 734.503>
LayerCount: 2
Fore
SplineSet
154 0 m 1
 20 0 l 1
 400 740 l 1
 588 740 l 1
 680 0 l 1
 651 0 l 1
 573.914252716 -41.1123985514 554 -64.5987701271 554 -103 c 0
 554 -130 580 -139 616 -139 c 0
 636 -139 652 -132 670 -119 c 1
 655 -193 l 1
 632 -205 602 -213 562 -213 c 0
 491 -213 441 -181 441 -124 c 0
 441 -62.1197096279 481.429068811 -24.8283724757 546 1 c 1
 522 199 l 1
 256 199 l 1
 154 0 l 1
313 311 m 1
 507 311 l 1
 470 616 l 1
 313 311 l 1
EndSplineSet
Validated: 1
EndChar

StartChar: aogonek
Encoding: 261 261 261
Width: 590
VWidth: 0
Flags: W
HStem: -215 74<404.386 501.529> -20 110<221.078 329.369> 230 110<253.011 431.77> 450 110<307.124 447.011>
VStem: 65 144<103.157 191.108> 287 114<-134.464 -59.393> 463 139<332.578 433.584>
LayerCount: 2
Fore
SplineSet
241 -20 m 0
 138 -20 65 20 65 112 c 0
 65 263 221 340 361 340 c 0
 391 340 422 337 454 330 c 1
 460 360 l 2
 462 370 463 379 463 387 c 0
 463 429 437 450 382 450 c 0
 317 450 281 418 272 370 c 1
 132 370 l 1
 155 489 265 560 405 560 c 0
 534 560 602 499 602 395 c 0
 602 378 600 359 596 340 c 2
 530 0 l 1
 501 0 l 1
 421 -43 401 -66 401 -105 c 0
 401 -132 427 -141 463 -141 c 0
 483 -141 498 -134 516 -121 c 1
 502 -195 l 1
 479 -207 448 -215 408 -215 c 0
 337 -215 287 -183 287 -126 c 0
 287 -62 331 -25 400 1 c 1
 402 60 l 1
 368 16 310 -20 241 -20 c 0
282 90 m 0
 359 90 415 127 429 200 c 2
 433 220 l 1
 409 227 385 230 360 230 c 0
 290 230 209 212 209 141 c 0
 209 105 244 90 282 90 c 0
EndSplineSet
Validated: 1
EndChar

StartChar: Eogonek
Encoding: 280 280 262
Width: 660
VWidth: 0
HStem: -213 74<504.886 601.535> 0 112<246 492 561.719 640> 314 112<307 671> 628 112<346 762>
VStem: 388 113<-132.464 -58.4107>
DStem2: 38.597 -213 182.826 -213 0.190809 0.981627<358.603 564.333 678.473 884.204>
LayerCount: 2
Fore
SplineSet
80 0 m 1
 224 740 l 1
 784 740 l 1
 762 628 l 1
 346 628 l 1
 307 426 l 1
 693 426 l 1
 671 314 l 1
 285 314 l 1
 246 112 l 1
 662 112 l 1
 640 0 l 1
 598 0 l 1
 523 -41 507 -65 502 -93 c 0
 501 -97 501 -100 501 -103 c 0
 501 -130 527 -139 563 -139 c 0
 583 -139 599 -132 617 -119 c 1
 602 -193 l 1
 579 -205 549 -213 509 -213 c 0
 438 -213 388 -181 388 -124 c 0
 388 -117 389 -110 390 -103 c 0
 399 -58 433 -24 492 0 c 1
 80 0 l 1
EndSplineSet
Validated: 1
EndChar

StartChar: eogonek
Encoding: 281 281 263
Width: 620
VWidth: 0
HStem: -233 74<246.886 344.419> 230 110<246 506> 450 110<314.659 468.6>
VStem: 85 139<129.045 229.158> 130 113<-152.961 -76.9218>
LayerCount: 2
Fore
SplineSet
506 340 m 1xe0
 500 408 477 450 397 450 c 0
 317 450 278 408 246 340 c 1
 506 340 l 1xe0
225 230 m 1
 224 223 224 217 224 210 c 0xf0
 224 140 254 90 329 90 c 0
 388 90 446 124 463 170 c 1
 603 170 l 1
 562 64 468 -5 344 -18 c 1
 264 -61 243 -84 243 -123 c 0
 243 -150 269 -159 305 -159 c 0
 325 -159 341 -152 359 -139 c 1
 345 -213 l 1
 321 -225 291 -233 251 -233 c 0
 180 -233 130 -202 130 -145 c 0xe8
 130 -79 175 -41 247 -15 c 1
 142 6 85 87 85 199 c 0xf0
 85 413 238 560 421 560 c 0
 568 560 635 470 635 332 c 0
 635 300 632 266 625 230 c 1
 225 230 l 1
EndSplineSet
Validated: 1
EndChar

StartChar: Thorn
Encoding: 222 222 264
Width: 670
VWidth: 0
Flags: W
HStem: 0 21G<80 227.862> 145 112<274 497.914> 483 112<340 536.094> 720 20G<222.054 368>
VStem: 80 144<0 144> 226 142<598 740> 561 146<318.426 456.608>
DStem2: 80 0 224 0 0.190809 0.981627<27.4765 175.155 289.295 519.538 633.679 754.262>
LayerCount: 2
Fore
SplineSet
561 401 m 0
 561 456 524 483 460 483 c 2
 318 483 l 1
 274 257 l 1
 416 257 l 2
 498 257 561 306 561 401 c 0
80 0 m 1
 226 740 l 1
 368 740 l 1
 340 595 l 1
 546 595 l 2
 642 595 707 519 707 418 c 0
 707 266 582 145 458 145 c 2
 252 145 l 1
 224 0 l 1
 80 0 l 1
EndSplineSet
Validated: 1
EndChar

StartChar: tilde
Encoding: 732 732 265
Width: 430
VWidth: 0
Flags: W
HStem: 575 70<379.095 423.451> 660 70<260.345 305.19>
VStem: 152 90<575 637.188> 442 90<667.812 730>
LayerCount: 2
Fore
SplineSet
152 575 m 1
 169 665 232 730 292 730 c 0
 332 730 359 720 370 690 c 0
 381 660 385 645 400 645 c 0
 415 645 428 660 442 730 c 1
 532 730 l 1
 515 640 452 575 392 575 c 0
 352 575 326 585 315 615 c 0
 304 645 298 660 283 660 c 0
 268 660 256 645 242 575 c 1
 152 575 l 1
EndSplineSet
Validated: 1
EndChar

StartChar: hungarumlaut
Encoding: 733 733 276
Width: 420
VWidth: 0
Flags: W
HStem: 590 170
LayerCount: 2
Fore
SplineSet
135 590 m 5
 248 760 l 5
 378 760 l 5
 215 590 l 5
 135 590 l 5
305 590 m 5
 418 760 l 5
 548 760 l 5
 385 590 l 5
 305 590 l 5
EndSplineSet
Validated: 1
EndChar

StartChar: Uogonek
Encoding: 370 370 281
Width: 740
VWidth: 0
Flags: W
HStem: -233 74<310.886 408.442> 720 20G<190.122 338 686.089 834>
VStem: 92 150<136.506 325.859> 194 144<596 740> 194 113<-152.464 -76.3992> 690 144<596 740>
DStem2: 5.11431 -233 148.339 -233 0.190809 0.981627<485.047 991.164> 500.339 -233 645.114 -233 0.190809 0.981627<402.543 991.312>
LayerCount: 2
Fore
SplineSet
99 250 m 2xe4
 194 740 l 1
 338 740 l 1xd4
 250 290 l 2
 245 262 242 237 242 214 c 0xe4
 242 136 279 92 388 92 c 0
 528 92 578 165 602 290 c 2
 690 740 l 1
 834 740 l 1
 739 250 l 2
 706 82 584 -8 406 -19 c 1
 327 -61 307 -84 307 -123 c 0
 307 -150 333 -159 369 -159 c 0
 389 -159 405 -152 423 -139 c 1
 409 -213 l 1
 386 -225 355 -233 315 -233 c 0
 244 -233 194 -201 194 -144 c 0xcc
 194 -80 237 -43 306 -17 c 1
 169 -2 92 64 92 184 c 0
 92 204 94 227 99 250 c 2xe4
EndSplineSet
EndChar

StartChar: uogonek
Encoding: 371 371 282
Width: 650
VWidth: 0
HStem: -215 74<444.386 541.349> -20 110<269.556 374.982> 520 20G<171.105 315 531.121 675>
VStem: 97 150<113.146 194.103> 175 140<400 540> 328 113<-134.897 -58.4379> 535 140<400 540>
DStem2: 28.1074 -215 168.388 -215 0.190809 0.981627<421.228 769.157> 388.208 -215 528.208 -215 0.190809 0.981627<245.737 280.211 345.296 769.138>
LayerCount: 2
Fore
SplineSet
442 60 m 1xf6
 416 15 348 -20 286 -20 c 0
 178 -20 97 26 97 122 c 0xf6
 97 134 98 146 101 160 c 2
 175 540 l 1
 315 540 l 1xee
 251 210 l 2
 248 196 247 183 247 171 c 0
 247 117 277 90 337 90 c 0
 410 90 455 130 471 210 c 2
 535 540 l 1
 675 540 l 1
 570 0 l 1
 541 0 l 1
 461 -43 441 -65 441 -105 c 0
 441 -132 467 -141 503 -141 c 0
 523 -141 539 -134 556 -121 c 1
 542 -195 l 1
 519 -207 488 -215 448 -215 c 0
 377 -215 328 -183 328 -127 c 0
 328 -62 369 -26 437 0 c 1
 430 0 l 1
 442 60 l 1xf6
EndSplineSet
Validated: 1
EndChar

StartChar: Iogonek
Encoding: 302 302 283
Width: 300
VWidth: 0
HStem: -213 74<94.8858 192.442> 720 20G<218.108 366>
VStem: -22 113<-132.464 -56.649> 222 144<596 740>
DStem2: 36.597 -213 180.597 -213 0.190809 0.981627<244.463 970.867>
LayerCount: 2
Fore
SplineSet
82 -0 m 1
 78 0 l 1
 222 740 l 1
 366 740 l 1
 222 0 l 1
 188 -0 l 1
 112 -41 91 -65 91 -103 c 0
 91 -130 117 -139 153 -139 c 0
 173 -139 189 -132 207 -119 c 1
 193 -193 l 1
 170 -205 139 -213 99 -213 c 0
 28 -213 -22 -181 -22 -124 c 0
 -22 -62 18 -26 82 -0 c 1
EndSplineSet
Validated: 1
EndChar

StartChar: iogonek
Encoding: 303 303 284
Width: 300
VWidth: 0
HStem: -213 74<94.8858 192.442> 520 20G<181.111 325> 610 130<224 339>
VStem: -22 113<-132.464 -56.649> 185 140<400 540>
DStem2: 38.597 -213 178.597 -213 0.190809 0.981627<243.7 767.1 865.199 970.867>
LayerCount: 2
Fore
SplineSet
199 610 m 1
 224 740 l 1
 364 740 l 1
 339 610 l 1
 199 610 l 1
82 -0 m 1
 80 0 l 1
 185 540 l 1
 325 540 l 1
 220 0 l 1
 188 -0 l 1
 112 -41 91 -65 91 -103 c 0
 91 -130 117 -139 153 -139 c 0
 173 -139 189 -132 207 -119 c 1
 193 -193 l 1
 170 -205 139 -213 99 -213 c 0
 28 -213 -22 -181 -22 -124 c 0
 -22 -62 18 -26 82 -0 c 1
EndSplineSet
Validated: 1
EndChar

StartChar: eth
Encoding: 240 240 285
Width: 580
VWidth: 0
Flags: W
HStem: -20 113<244.905 374.869> 450 110<309.829 440.802> 720 20G<274 429.5>
VStem: 66 141<133.869 324.982> 479 142<220.121 409.493>
DStem2: 293 660 303 580 0.969938 0.243354<0 60.8766 220.155 276.909>
LayerCount: 2
Fore
SplineSet
286 -20 m 0
 157 -20 66 63 66 201 c 0
 66 418 236 560 379 560 c 0
 409 560 432 555 455 540 c 1
 448 558 432 582 412 608 c 1
 303 580 l 1
 293 660 l 1
 352 675 l 1
 326 701 299 724 274 740 c 1
 424 740 l 1
 435 733 451 721 468 704 c 1
 572 730 l 1
 581 650 l 1
 526 636 l 1
 575 568 621 472 621 357 c 0
 621 129 459 -20 286 -20 c 0
207 214 m 0
 207 132 250 93 308 93 c 0
 389 93 479 186 479 328 c 0
 479 410 435 450 377 450 c 0
 296 450 207 356 207 214 c 0
EndSplineSet
Validated: 1
EndChar

StartChar: multiply
Encoding: 215 215 286
Width: 540
VWidth: 0
Flags: W
VStem: 28 130<40 170> 491 130<390 520>
DStem2: 28 40 158 40 0.694247 0.719737<90.2521 306.668 450.494 666.91> 251 520 121 520 0.499827 -0.866125<0 180.1 309.115 489.215>
LayerCount: 2
Fore
SplineSet
491 520 m 1
 621 520 l 1
 389 280 l 1
 528 40 l 1
 398 40 l 1
 308 196 l 1
 158 40 l 1
 28 40 l 1
 259 280 l 1
 121 520 l 1
 251 520 l 1
 341 364 l 1
 491 520 l 1
EndSplineSet
Validated: 1
EndChar

StartChar: minus
Encoding: 8722 8722 287
Width: 600
VWidth: 0
Flags: W
HStem: 315 110<103 641>
LayerCount: 2
Fore
SplineSet
81 315 m 1
 103 425 l 1
 663 425 l 1
 641 315 l 1
 81 315 l 1
EndSplineSet
Validated: 1
EndChar

StartChar: plusminus
Encoding: 177 177 288
Width: 600
VWidth: 0
Flags: W
HStem: 0 110<41 580> 375 110<114 303 464 653>
VStem: 261 140<160 300> 362 140<540 680>
DStem2: 229.899 0 369.899 0 0.190809 0.981627<189.708 382.058 520.758 692.713>
LayerCount: 2
Fore
SplineSet
93 375 m 5xe0
 114 485 l 5
 324 485 l 5
 362 680 l 5
 502 680 l 5xd0
 464 485 l 5
 674 485 l 5
 653 375 l 5
 443 375 l 5
 401 160 l 5
 261 160 l 5
 303 375 l 5
 93 375 l 5xe0
20 0 m 5
 41 110 l 5
 601 110 l 5
 580 0 l 5
 20 0 l 5
EndSplineSet
Validated: 1
EndChar

StartChar: bullet
Encoding: 8226 8226 289
Width: 460
VWidth: 0
Flags: W
HStem: 210 300<247.874 352.126>
VStem: 147 306<311.83 408.17>
LayerCount: 2
Fore
SplineSet
150 360 m 0
 166 443 246 510 329 510 c 0
 402 510 453 458 453 389 c 0
 453 380 452 370 450 360 c 0
 434 277 354 210 271 210 c 0
 198 210 147 262 147 331 c 0
 147 340 148 350 150 360 c 0
EndSplineSet
Validated: 1
EndChar

StartChar: dagger
Encoding: 8224 8224 290
Width: 500
VWidth: 0
Flags: W
HStem: 430 110<125 264 425 564> 720 20G<320.1 464>
VStem: 153 140<-140 0> 324 140<600 740>
DStem2: 153 -140 293 -140 0.190809 0.981627<26.7133 580.707 719.407 896.46>
LayerCount: 2
Fore
SplineSet
324 740 m 1
 464 740 l 1
 425 540 l 1
 585 540 l 1
 564 430 l 1
 404 430 l 1
 293 -140 l 1
 153 -140 l 1
 264 430 l 1
 104 430 l 1
 125 540 l 1
 285 540 l 1
 324 740 l 1
EndSplineSet
Validated: 1
EndChar

StartChar: daggerdbl
Encoding: 8225 8225 291
Width: 500
VWidth: 0
Flags: W
HStem: 60 110<58 192 353 497> 430 110<125 264 425 564> 720 20G<320.1 464>
VStem: 153 140<-140 0> 324 140<600 740>
DStem2: 153 -140 293 -140 0.190809 0.981627<26.7133 203.767 342.466 580.707 719.407 896.46>
LayerCount: 2
Fore
SplineSet
324 740 m 1
 464 740 l 1
 425 540 l 1
 585 540 l 1
 564 430 l 1
 404 430 l 1
 353 170 l 1
 518 170 l 1
 497 60 l 1
 332 60 l 1
 293 -140 l 1
 153 -140 l 1
 192 60 l 1
 37 60 l 1
 58 170 l 1
 213 170 l 1
 264 430 l 1
 104 430 l 1
 125 540 l 1
 285 540 l 1
 324 740 l 1
EndSplineSet
Validated: 1
EndChar

StartChar: quotesinglbase
Encoding: 8218 8218 292
Width: 300
Flags: W
HStem: -130 260
VStem: 55 69<-130 -61>
LayerCount: 2
Fore
SplineSet
80 0 m 1
 105 130 l 1
 245 130 l 1
 220 0 l 2
 213 -35 182 -73 124 -130 c 1
 55 -130 l 1
 113 -74 143 -35 150 0 c 1
 80 0 l 1
EndSplineSet
Validated: 1
EndChar

StartChar: quoteright
Encoding: 8217 8217 294
Width: 300
VWidth: 1610
Flags: W
HStem: 480 260
VStem: 173 69<480 549>
LayerCount: 2
Fore
SplineSet
199 610 m 1
 224 740 l 1
 364 740 l 1
 339 610 l 2
 332 575 300 537 242 480 c 1
 173 480 l 1
 231 536 262 575 269 610 c 1
 199 610 l 1
EndSplineSet
Validated: 1
EndChar

StartChar: quoteleft
Encoding: 8216 8216 295
Width: 300
VWidth: 1610
Flags: W
HStem: 480 260
VStem: 295 69<671 740>
LayerCount: 2
Fore
SplineSet
339 610 m 1
 313 480 l 1
 173 480 l 1
 199 610 l 2
 206 645 237 683 295 740 c 1
 364 740 l 1
 306 684 276 645 269 610 c 1
 339 610 l 1
EndSplineSet
Validated: 1
EndChar

StartChar: endash
Encoding: 8211 8211 298
Width: 500
VWidth: 0
Flags: W
HStem: 275 110<115 513>
LayerCount: 2
Fore
SplineSet
93 275 m 1
 115 385 l 1
 535 385 l 1
 513 275 l 1
 93 275 l 1
EndSplineSet
Validated: 1
EndChar

StartChar: emdash
Encoding: 8212 8212 299
Width: 1000
VWidth: 0
Flags: W
HStem: 275 110<115 1013>
LayerCount: 2
Fore
SplineSet
93 275 m 1
 115 385 l 1
 1035 385 l 1
 1013 275 l 1
 93 275 l 1
EndSplineSet
Validated: 1
EndChar

StartChar: notequal
Encoding: 8800 8800 300
Width: 580
VWidth: 0
Flags: W
HStem: 216 110<133 195 407 552> 405 111<170 320 532 589> 730 20G<532.838 686>
VStem: 34 140<-30 110> 546 140<610 750>
DStem2: 34 -30 174 -30 0.54875 0.835986<76.825 293.165 502.295 520.597 729.726 933.029>
LayerCount: 2
Fore
SplineSet
546 750 m 1
 686 750 l 1
 532 516 l 1
 610 516 l 1
 589 406 l 1
 460 406 l 1
 407 326 l 1
 573 326 l 1
 552 216 l 1
 335 216 l 1
 174 -30 l 1
 34 -30 l 1
 195 215 l 1
 112 215 l 1
 133 325 l 1
 267 325 l 1
 320 405 l 1
 149 405 l 1
 170 515 l 1
 392 516 l 1
 546 750 l 1
EndSplineSet
Validated: 1
EndChar

StartChar: guilsinglleft
Encoding: 8249 8249 301
Width: 360
VWidth: 0
Flags: W
VStem: 203 140<120 260> 277 140<360 500>
DStem2: 105 335 220 310 0.719779 0.694203<65.4195 238.346>
LayerCount: 2
Fore
SplineSet
95 285 m 1x80
 105 335 l 1
 277 500 l 1
 417 500 l 1x40
 220 310 l 1
 343 120 l 1
 203 120 l 1
 95 285 l 1x80
EndSplineSet
Validated: 1
EndChar

StartChar: guilsinglright
Encoding: 8250 8250 302
Width: 360
VWidth: 0
Flags: W
VStem: 63 140<120 260> 137 140<360 500>
DStem2: 63 120 203 120 0.719779 0.694203<100.769 273.695>
LayerCount: 2
Fore
SplineSet
375 285 m 1x40
 203 120 l 1
 63 120 l 1x80
 260 310 l 1
 137 500 l 1
 277 500 l 1
 385 335 l 1
 375 285 l 1x40
EndSplineSet
Validated: 1
EndChar

StartChar: florin
Encoding: 402 402 303
Width: 380
VWidth: 0
Flags: W
HStem: -240 110<-5.95655 88.4115> 430 110<155 204 365 434> 650 110<392.589 486.957>
DStem2: 73.1801 -240 213.068 -240 0.190809 0.981627<117.146 682.652 821.351 928.334>
LayerCount: 2
Fore
SplineSet
204 430 m 1
 134 430 l 1
 155 540 l 1
 225 540 l 1
 231 570 l 2
 253 685 300 760 402 760 c 0
 445 760 480 755 505 745 c 1
 485 645 l 1
 464 648 445 650 430 650 c 0
 389 650 377 602 367 550 c 2
 365 540 l 1
 455 540 l 1
 434 430 l 1
 344 430 l 1
 250 -50 l 2
 228 -165 181 -240 79 -240 c 0
 36 -240 1 -235 -24 -225 c 1
 -4 -125 l 1
 17 -128 36 -130 51 -130 c 0
 92 -130 104 -82 114 -30 c 2
 204 430 l 1
EndSplineSet
Validated: 1
EndChar

StartChar: Delta
Encoding: 8710 8710 307
Width: 700
VWidth: 1914
Flags: W
HStem: 0 112<211 532> 720 20G<389.73 590.486>
DStem2: 20 0 211 112 0.456805 0.889567<186.881 753.535> 588 740 470 616 0.123375 -0.99236<108.494 616.293>
LayerCount: 2
Fore
SplineSet
532 112 m 1
 470 616 l 1
 211 112 l 1
 532 112 l 1
680 0 m 1
 20 0 l 1
 400 740 l 1
 588 740 l 1
 680 0 l 1
EndSplineSet
Validated: 1
EndChar

StartChar: perthousand
Encoding: 8240 8240 308
Width: 1050
VWidth: 0
Flags: W
HStem: 5 90<522.307 592.169 852.307 922.169> 205 90<535.831 606.083 865.831 936.083> 405 90<249.917 320.169> 605 90<263.831 333.693>
VStem: 144 101<498.693 585.877> 338 101<510.687 601.307> 417 101<98.6934 189.313> 611 101<114.123 201.307> 747 101<98.6934 189.313> 941 101<114.123 201.307>
DStem2: 137 85 208 40 0.665009 0.746836<13.608 769.25>
LayerCount: 2
Fore
SplineSet
264 405 m 0xfdc0
 194 405 144 456 144 523 c 0
 144 532 145 541 147 550 c 0
 162 629 241 695 320 695 c 0
 390 695 439 644 439 577 c 0
 439 568 439 559 437 550 c 0
 422 471 343 405 264 405 c 0xfdc0
303 605 m 0
 275 605 253 580 247 550 c 0
 246 545 245 541 245 536 c 0
 245 513 258 495 281 495 c 0
 309 495 331 520 337 550 c 0
 338 555 338 559 338 564 c 0
 338 587 326 605 303 605 c 0
137 85 m 1
 648 660 l 1
 720 615 l 1
 208 40 l 1
 137 85 l 1
536 5 m 0
 466 5 417 56 417 123 c 0xfbc0
 417 132 417 141 419 150 c 0
 434 229 513 295 592 295 c 0
 662 295 712 244 712 177 c 0
 712 168 711 159 709 150 c 0
 694 71 615 5 536 5 c 0
575 205 m 0
 547 205 525 180 519 150 c 0
 518 145 518 141 518 136 c 0
 518 113 530 95 553 95 c 0
 581 95 603 120 609 150 c 0
 610 155 611 159 611 164 c 0
 611 187 598 205 575 205 c 0
866 5 m 0
 796 5 747 56 747 123 c 0
 747 132 747 141 749 150 c 0
 764 229 843 295 922 295 c 0
 992 295 1042 244 1042 177 c 0
 1042 168 1041 159 1039 150 c 0
 1024 71 945 5 866 5 c 0
905 205 m 0
 877 205 855 180 849 150 c 0
 848 145 848 141 848 136 c 0
 848 113 860 95 883 95 c 0
 911 95 933 120 939 150 c 0
 940 155 941 159 941 164 c 0
 941 187 928 205 905 205 c 0
EndSplineSet
Validated: 1
EndChar

StartChar: acutemodifier
Encoding: 714 714 309
Width: 260
VWidth: 0
Flags: W
HStem: 590 170<228 245>
VStem: 135 253
LayerCount: 2
Fore
SplineSet
388 760 m 1
 245 590 l 1
 135 590 l 1
 228 760 l 1
 388 760 l 1
EndSplineSet
Validated: 1
EndChar

StartChar: quoteleftmod
Encoding: 699 699 311
Width: 300
VWidth: 1610
Flags: W
HStem: 480 260
VStem: 295 69<671 740>
LayerCount: 2
Fore
SplineSet
339 610 m 1
 313 480 l 1
 173 480 l 1
 199 610 l 2
 206 645 237 683 295 740 c 1
 364 740 l 1
 306 684 276 645 269 610 c 1
 339 610 l 1
EndSplineSet
Validated: 1
EndChar

StartChar: apostrophe
Encoding: 700 700 312
Width: 300
VWidth: 1610
Flags: W
HStem: 480 260
VStem: 173 69<480 549>
LayerCount: 2
Fore
SplineSet
199 610 m 1
 224 740 l 1
 364 740 l 1
 339 610 l 2
 332 575 300 537 242 480 c 1
 173 480 l 1
 231 536 262 575 269 610 c 1
 199 610 l 1
EndSplineSet
Validated: 1
EndChar

StartChar: uni02BD
Encoding: 701 701 313
Width: 300
VWidth: 1610
Flags: W
HStem: 610 130<267.001 339>
VStem: 197 70<523.369 609.882>
LayerCount: 2
Fore
SplineSet
339 610 m 1
 269 610 l 1
 268 605 267 600 267 594 c 0
 267 563 282 527 313 480 c 1
 244 480 l 1
 213 529 197 563 197 594 c 0
 197 599 198 605 199 610 c 2
 224 740 l 1
 364 740 l 1
 339 610 l 1
EndSplineSet
Validated: 1
EndChar

StartChar: cedilla
Encoding: 184 184 327
Width: 310
Flags: W
HStem: -235 100<-6 135.895> -80 80<100 137.674>
VStem: -26 277
LayerCount: 2
Fore
SplineSet
-6 -135 m 1
 74 -135 139 -131 139 -107 c 0
 139 -89 101 -84 54 -80 c 1
 100 0 l 1
 210 0 l 1
 196 -20 l 1
 221 -24 251 -49 251 -91 c 0
 251 -97 250 -103 249 -110 c 0
 233 -190 154 -235 -26 -235 c 1
 -6 -135 l 1
EndSplineSet
Validated: 1
EndChar

StartChar: Ccedilla
Encoding: 199 199 328
Width: 760
VWidth: 0
HStem: -247 100<222 365.139> 648 112<426.25 607.575>
VStem: 101 145<174.081 419.308> 677 134<470 578.189>
LayerCount: 2
Fore
SplineSet
222 -147 m 1
 302 -147 368 -143 368 -119 c 0
 368 -101 330 -96 283 -92 c 1
 327 -16 l 1
 179 5 101 114 101 267 c 0
 101 550 293 760 534 760 c 0
 741 760 811 655 811 481 c 0
 811 477 811 474 811 470 c 1
 677 470 l 1
 677 472 677 475 677 477 c 0
 677 591 625 648 521 648 c 0
 355 648 246 479 246 279 c 0
 246 168 297 92 413 92 c 0
 519 92 594 151 638 270 c 1
 772 270 l 1
 711 106 612 -1 435 -18 c 1
 425 -32 l 1
 450 -36 480 -61 480 -103 c 0
 480 -201 385 -247 203 -247 c 1
 222 -147 l 1
EndSplineSet
Validated: 1
EndChar

StartChar: ccedilla
Encoding: 231 231 329
Width: 610
VWidth: 0
HStem: -247 100<142 285.287> 450 110<325.509 464.941>
VStem: 85 141<126.742 326.256> 498 140<350 415.641>
LayerCount: 2
Fore
SplineSet
142 -147 m 1
 222 -147 288 -143 288 -119 c 0
 288 -101 250 -96 203 -92 c 1
 247 -15 l 1
 142 6 85 86 85 197 c 0
 85 409 235 560 415 560 c 0
 567 560 638 481 638 355 c 2
 638 350 l 1
 498 350 l 1
 498 355 l 2
 498 411 465 450 396 450 c 0
 292 450 226 337 226 207 c 0
 226 138 255 90 326 90 c 0
 397 90 445 131 467 190 c 1
 607 190 l 1
 565 77 480 0 356 -17 c 1
 345 -32 l 1
 370 -36 399 -61 399 -103 c 0
 399 -202 306 -247 123 -247 c 1
 142 -147 l 1
EndSplineSet
Validated: 1
EndChar

StartChar: uni0162
Encoding: 354 354 330
Width: 640
VWidth: 0
HStem: -227 100<160 302.845> 628 112<164 370 514 742>
DStem2: 203.876 -227 347.876 -227 0.190809 0.981627<258.725 870.989>
LayerCount: 2
Fore
SplineSet
160 -127 m 1
 240 -127 305 -123 305 -99 c 0
 305 -81 268 -76 221 -72 c 1
 262 0 l 1
 248 0 l 1
 370 628 l 1
 142 628 l 1
 164 740 l 1
 764 740 l 1
 742 628 l 1
 514 628 l 1
 392 0 l 1
 371 0 l 1
 363 -12 l 1
 388 -16 417 -41 417 -83 c 0
 417 -182 323 -227 141 -227 c 1
 160 -127 l 1
EndSplineSet
Validated: 1
EndChar

StartChar: uni0163
Encoding: 355 355 331
Width: 350
VWidth: 0
HStem: -245 100<61 203.09> 430 110<125 174 335 404>
VStem: 114 145<66.6054 235> 224 140<550 690>
DStem2: 42.3322 -245 182.445 -245 0.190809 0.981627<412.201 687.722 826.421 952.485>
LayerCount: 2
Fore
SplineSet
267 190 m 2xd0
 263 169 259 149 259 132 c 0
 259 107 267 90 291 90 c 0
 306 90 325 92 348 95 c 1
 329 -5 l 1
 313 -11 293 -15 272 -17 c 1
 263 -30 l 1
 288 -34 318 -59 318 -101 c 0
 318 -200.275361417 222.88798792 -245 41 -245 c 5
 61 -145 l 1
 141 -145 206 -141 206 -117 c 0
 206 -99 169 -94 122 -90 c 1
 167 -10 l 1
 130 7 114 42 114 93 c 0xe0
 114 116 118 142 123 170 c 2
 174 430 l 1
 104 430 l 1
 125 540 l 1
 195 540 l 1
 224 690 l 1
 364 690 l 1
 335 540 l 1
 425 540 l 1
 404 430 l 1
 314 430 l 1
 267 190 l 2xd0
EndSplineSet
Validated: 1
EndChar

StartChar: Scedilla
Encoding: 350 350 332
Width: 680
VWidth: 0
HStem: -247 100<176 318.578> 648 112<372.864 551.992>
VStem: 78 146<127.817 220> 159 146<466.334 586.118> 540 147<161.995 274.614> 582 145<530 619.426>
LayerCount: 2
Fore
SplineSet
176 -147 m 1xd8
 256 -147 322 -143 322 -119 c 0
 322 -101 284 -96 237 -92 c 1
 280 -17 l 1
 157 -3 78 59 78 169 c 0
 78 185 79 202 83 220 c 1
 227 220 l 1
 225 208 224 197 224 187 c 0
 224 124 268 92 358 92 c 0
 457 92 540 138 540 232 c 0xe8
 540 273 496 303 406 319 c 0
 269 344 159 370 159 487 c 0
 159 666 322 760 488 760 c 0
 629 760 727 694 727 576 c 0
 727 561 726 546 723 530 c 1
 579 530 l 1
 581 541 582 552 582 562 c 0xd4
 582 620 544 648 466 648 c 0
 375 648 305 603 305 512 c 0
 305 459 360 444 424 432 c 0
 559 407 687 374 687 257 c 0
 687 87 557 -5 389 -18 c 1
 379 -32 l 1
 404 -36 434 -61 434 -103 c 0
 434 -109 432 -115 431 -122 c 0
 415 -202 337 -247 157 -247 c 1
 176 -147 l 1xd8
EndSplineSet
Validated: 1
EndChar

StartChar: scedilla
Encoding: 351 351 333
Width: 550
VWidth: 0
HStem: -247 100<111 253.578> 450 110<302.502 414.649>
VStem: 67 143<107.632 160> 132 142<341.517 421.929> 402 142<120.408 197.03> 426 142<380 438.413>
LayerCount: 2
Fore
SplineSet
111 -147 m 1xd8
 191 -147 257 -143 257 -119 c 0
 257 -101 219 -96 172 -92 c 1
 215 -16 l 1
 127 -3 67 42 67 123 c 0
 67 135 68 147 71 160 c 1
 211 160 l 1
 210 156 210 152 210 148 c 0
 210 111 245 90 292 90 c 0
 342 90 402 116 402 167 c 0xe8
 402 192 374 209 318 220 c 0
 194 244 132 290 132 357 c 0
 132 489 264 560 384 560 c 0
 491 560 568 509 568 417 c 0
 568 405 566 393 564 380 c 1
 424 380 l 1
 425 386 426 391 426 396 c 0xd4
 426 430 401 450 362 450 c 0
 318 450 274 421 274 373 c 0
 274 345 299 337 339 330 c 0
 447 310 544 284 544 191 c 0
 544 63 436 -3 325 -17 c 1
 314 -32 l 1
 339 -36 369 -61 369 -103 c 0
 369 -109 367 -115 366 -122 c 0
 350 -202 272 -247 92 -247 c 1
 111 -147 l 1xd8
EndSplineSet
Validated: 1
EndChar

StartChar: Euro
Encoding: 8364 8364 334
Width: 810
VWidth: 0
Flags: W
HStem: -20 112<371.894 559.073> 230 90<82 155.374 300 535> 400 90<115 169 344 568> 648 112<472.737 657.575>
VStem: 153 147<169.513 230 320 399.531> 727 134<470 578.189>
LayerCount: 2
Fore
SplineSet
552 320 m 1
 535 230 l 1
 300 230 l 1
 314 146 365 92 463 92 c 0
 569 92 644 151 688 270 c 1
 822 270 l 1
 755 90 643 -20 432 -20 c 0
 262 -20 166 79 153 230 c 1
 65 230 l 1
 82 320 l 1
 154 320 l 1
 156 336 159 353 162 370 c 0
 164 380 167 390 169 400 c 1
 98 400 l 1
 115 490 l 1
 198 490 l 1
 267 652 406 760 584 760 c 0
 791 760 861 655 861 481 c 0
 861 477 861 474 861 470 c 1
 727 470 l 1
 727 472 727 475 727 477 c 0
 727 591 675 648 571 648 c 0
 465 648 389 585 344 490 c 1
 585 490 l 1
 568 400 l 1
 313 400 l 1
 311 390 308 380 306 370 c 0
 303 353 301 336 299 320 c 1
 552 320 l 1
EndSplineSet
Validated: 1
EndChar

StartChar: trademark
Encoding: 8482 8482 335
Width: 1135
VWidth: -125
Flags: W
HStem: 716 84<169 304 412 564>
VStem: 225 108<307 415> 553 108<295 403> 1024 108<295 403>
DStem2: 222.667 295 330.667 295 0.190809 0.981627<32.832 428.784> 553 295 661 295 0.190809 0.981627<20.6074 351.848> 785 800 725 620 0.191061 -0.981578<165.22 418.714> 865 389 904 295 0.505827 0.862635<0 295.38> 1024 295 1132 295 0.190809 0.981627<20.6074 313.79>
LayerCount: 2
Fore
SplineSet
152 716 m 1
 169 800 l 1
 581 800 l 1
 564 716 l 1
 412 716 l 1
 333 307 l 1
 225 307 l 1
 304 716 l 1
 152 716 l 1
661 295 m 1
 553 295 l 1
 652 800 l 1
 785 800 l 1
 865 389 l 1
 1106 800 l 1
 1231 800 l 1
 1132 295 l 1
 1024 295 l 1
 1084 603 l 1
 904 295 l 1
 788 295 l 1
 725 620 l 1
 661 295 l 1
EndSplineSet
Validated: 1
EndChar

StartChar: ordfeminine
Encoding: 170 170 336
Width: 403
VWidth: 0
Flags: W
HStem: 300 72<99 435> 412 82<236.265 327.317> 574 83<247.486 381.383> 717 83<287.305 397.896>
VStem: 127 107<498.972 557.216> 402 105<649.367 711.223>
DStem2: 337.314 300 435.314 300 0.190809 0.981627<148.076 177.231 217.394 271.897 354.343 384.195>
LayerCount: 2
Fore
SplineSet
254 412 m 0
 179 412 127 444 127 505 c 0
 127 606 237 657 333 657 c 0
 354 657 376 654 398 649 c 1
 401 666 l 2
 402 670 402 675 402 679 c 0
 402 705 383 717 347 717 c 0
 310 717 282 702 276 673 c 1
 173 673 l 1
 188 752 275 800 366 800 c 0
 454 800 507 757 507 685 c 0
 507 675 506 664 504 653 c 2
 460 427 l 1
 362 427 l 1
 371 474 l 1
 346 440 304 412 254 412 c 0
334 574 m 0
 288 574 234 563 234 524 c 0
 234 504 258 494 284 494 c 0
 335 494 372 515 380 557 c 2
 382 568 l 1
 366 572 351 574 334 574 c 0
449 372 m 1
 435 300 l 1
 85 300 l 1
 99 372 l 1
 449 372 l 1
EndSplineSet
Validated: 1
EndChar

StartChar: ordmasculine
Encoding: 186 186 337
Width: 436
VWidth: 0
Flags: W
HStem: 300 72<115 451> 403 84<260.121 373.337> 717 83<296.902 409.644>
VStem: 139 106<501.813 654.522> 426 106<549.899 700.946>
LayerCount: 2
Fore
SplineSet
144 602 m 0
 167 719 256 800 374 800 c 0
 475 800 532 741 532 650 c 0
 532 635 530 619 527 602 c 0
 504 485 414 403 296 403 c 0
 195 403 139 462 139 553 c 0
 139 568 141 585 144 602 c 0
249 602 m 0
 246 588 245 574 245 562 c 0
 245 517 265 487 313 487 c 0
 374 487 409 537 422 602 c 0
 425 616 426 629 426 641 c 0
 426 687 405 717 357 717 c 0
 296 717 262 667 249 602 c 0
465 372 m 1
 451 300 l 1
 101 300 l 1
 115 372 l 1
 465 372 l 1
EndSplineSet
Validated: 1
EndChar

StartChar: currency
Encoding: 164 164 338
Width: 500
VWidth: 0
Flags: W
HStem: 115 90<233.698 355.843> 425 90<267.929 389.652>
VStem: 107 102<229.569 364.112> 414 101<265.888 400.431>
DStem2: 72 165 120 105 0.766758 0.641937<0 70.3192 488.772 559.091>
LayerCount: 2
Fore
SplineSet
130 465 m 1
 202 525 l 1
 236 483 l 1
 271 503 310 515 350 515 c 0
 390 515 425 503 452 483 c 1
 502 525 l 1
 550 465 l 1
 500 423 l 1
 510 402 515 378 515 353 c 0
 515 291 491 246 458 207 c 1
 492 165 l 1
 420 105 l 1
 387 147 l 1
 352 127 312 115 272 115 c 0
 232 115 197 127 170 147 c 1
 120 105 l 1
 72 165 l 1
 122 207 l 1
 112 228 107 252 107 277 c 0
 107 339 131 384 164 423 c 1
 130 465 l 1
333 425 m 0
 268 425 209 365 209 290 c 0
 209 242 239 205 290 205 c 0
 355 205 414 265 414 340 c 0
 414 388 384 425 333 425 c 0
EndSplineSet
Validated: 1
EndChar

StartChar: Eth
Encoding: 208 208 339
Width: 760
VWidth: 0
Flags: W
HStem: 0 112<246 484.271> 324 92<101 143 305 425> 628 112<346 580.729>
VStem: 657 144<318.651 550.439>
DStem2: 80 0 224.229 0 0.190809 0.981627<141.617 330.068 451.289 667.217>
CounterMasks: 1 e0
LayerCount: 2
Fore
SplineSet
657 453 m 0
 657 563 602 628 488 628 c 2
 346 628 l 1
 305 416 l 1
 443 416 l 1
 425 324 l 1
 287 324 l 1
 246 112 l 1
 388 112 l 2
 546 112 657 254 657 453 c 0
161 416 m 1
 224 740 l 1
 544 740 l 2
 706 740 801 625 801 461 c 0
 801 200 609 0 400 0 c 2
 80 0 l 1
 143 324 l 1
 83 324 l 1
 101 416 l 1
 161 416 l 1
EndSplineSet
Validated: 1
EndChar

StartChar: Eng
Encoding: 330 330 340
Width: 790
VWidth: 0
Flags: W
HStem: -240 110<424.076 575> 0 21G<80 227.887> 720 20G<220.108 392.415 706.113 854>
VStem: 80 144<0 144> 710 144<596 740>
DStem2: 33.3487 -240 177.349 -240 0.190809 0.981627<271.969 811.884> 384 740 327 530 0.387824 -0.921734<171.458 575.003> 519.529 -240 663.068 -240 0.190809 0.981627<458.423 998.338>
LayerCount: 2
Fore
SplineSet
80 0 m 1
 224 740 l 1
 384 740 l 1
 607 210 l 1
 710 740 l 1
 854 740 l 1
 700 -50 l 2
 678 -165 631 -240 519 -240 c 0
 466 -240 431 -235 406 -225 c 1
 426 -125 l 1
 447 -128 466 -130 481 -130 c 0
 522 -130 534 -81 544 -30 c 2
 550 0 l 1
 327 530 l 1
 224 0 l 1
 80 0 l 1
EndSplineSet
Validated: 1
EndChar

StartChar: eng
Encoding: 331 331 341
Width: 650
VWidth: 0
Flags: W
HStem: -240 110<314.043 408.411> 0 21G<80 223.879> 450 110<381.031 485.206> 520 20G<181.111 325>
VStem: 80 140<0 140> 508 150<291.641 427.591>
DStem2: 33.3487 -240 173.349 -240 0.190809 0.981627<271.205 694.969 760.132 794.606> 393.18 -240 533.068 -240 0.190809 0.981627<117.146 618.23>
LayerCount: 2
Fore
SplineSet
504 330 m 2xec
 507 344 508 357 508 368 c 0
 508 423 477 450 417 450 c 0xec
 344 450 300 410 284 330 c 2
 220 0 l 1
 80 0 l 1
 185 540 l 1
 325 540 l 1xdc
 313 480 l 1
 339 525 407 560 469 560 c 0
 577 560 658 514 658 418 c 0
 658 406 657 394 654 380 c 2
 570 -50 l 2
 548 -165 501 -240 399 -240 c 0
 356 -240 321 -235 296 -225 c 1
 316 -125 l 1
 337 -128 356 -130 371 -130 c 0
 412 -130 424 -82 434 -30 c 2
 504 330 l 2xec
EndSplineSet
Validated: 1
EndChar

StartChar: kgreenlandic
Encoding: 312 312 344
Width: 580
VWidth: 0
Flags: W
HStem: 0 21G<50 193.925 388.075 560> 520 20G<151.111 295 485.873 665>
VStem: 50 140<0 140> 155 140<400 540> 400 160<0 160> 505 160<380 540>
DStem2: 50 0 190 0 0.190809 0.981627<26.7133 550.114> 402 265 242 265 0.512111 -0.85892<0 226.589> 242 265 402 265 0.691163 0.722699<110.586 380.518>
LayerCount: 2
Fore
SplineSet
190 0 m 1xe8
 50 0 l 1xe8
 155 540 l 1
 295 540 l 1
 242 265 l 1
 505 540 l 1
 665 540 l 1xd4
 402 265 l 1
 560 0 l 1
 400 0 l 1
 242 265 l 1
 190 0 l 1xe8
EndSplineSet
EndChar

StartChar: quotereversed
Encoding: 8219 8219 345
Width: 300
VWidth: 1610
Flags: W
HStem: 610 130<267.001 339>
VStem: 197 70<523.369 609.882>
LayerCount: 2
Fore
SplineSet
339 610 m 1
 269 610 l 1
 268 605 267 600 267 594 c 0
 267 563 282 527 313 480 c 1
 244 480 l 1
 213 529 197 563 197 594 c 0
 197 599 198 605 199 610 c 2
 224 740 l 1
 364 740 l 1
 339 610 l 1
EndSplineSet
Validated: 1
EndChar

StartChar: Hbar
Encoding: 294 294 347
Width: 760
VWidth: 0
Flags: W
HStem: 0 21G<80 227.885 536 683.881> 314 112<307 597> 505 90<146 178 340 634 796 828> 720 20G<220.138 368 676.138 824>
VStem: 80 144<0 144> 224 144<596 740> 536 144<0 144> 680 144<596 740>
DStem2: 80 0 224 0 0.190809 0.981627<27.4765 347.347 461.487 514.421 633.679 753.881> 536 0 680 0 0.190809 0.981627<27.4765 319.87 434.01 514.421 633.679 753.881>
LayerCount: 2
Fore
SplineSet
846 595 m 1xf5
 828 505 l 1
 778 505 l 1
 680 0 l 1
 536 0 l 1
 597 314 l 1
 285 314 l 1
 224 0 l 1
 80 0 l 1xfa
 178 505 l 1
 128 505 l 1
 146 595 l 1
 196 595 l 1
 224 740 l 1
 368 740 l 1
 340 595 l 1
 652 595 l 1
 680 740 l 1
 824 740 l 1
 796 595 l 1
 846 595 l 1xf5
634 505 m 1
 322 505 l 1
 307 426 l 1
 619 426 l 1
 634 505 l 1
EndSplineSet
Validated: 1
EndChar

StartChar: hbar
Encoding: 295 295 348
Width: 650
VWidth: 0
Flags: W
HStem: 0 21G<80 223.879 440 583.895> 450 110<381.031 485.206> 580 90<150 193 350 453> 720 20G<220 364>
VStem: 80 140<0 140> 440 140<0 140> 508 150<345.897 426.854>
DStem2: 80 0 220 0 0.190809 0.981627<26.7133 450.477 515.64 590.905 709.209 753.881> 440 0 580 0 0.190809 0.981627<26.7133 373.706>
LayerCount: 2
Fore
SplineSet
313 480 m 1xfa
 339 525 407 560 469 560 c 0
 577 560 658 514 658 418 c 0xfa
 658 406 657 394 654 380 c 2
 580 0 l 1
 440 0 l 1xfc
 504 330 l 2
 507 344 508 357 508 368 c 0
 508 423 477 450 417 450 c 0
 344 450 300 410 284 330 c 2
 220 0 l 1
 80 0 l 1
 193 580 l 5
 133 580 l 5
 150 670 l 5
 210 670 l 5
 224 740 l 1
 364 740 l 1
 350 670 l 5
 470 670 l 5
 453 580 l 5
 333 580 l 5
 313 480 l 1xfa
EndSplineSet
Validated: 1
EndChar

StartChar: Oslash
Encoding: 216 216 349
Width: 800
VWidth: 0
Flags: W
HStem: -20 112<327.349 509.838> 648 112<434.162 617.279>
VStem: 102 145<202.387 422.96> 697 145<317.04 524.922>
DStem2: 80 0 173 -60 0.663649 0.748044<16.8367 118.413 269.15 797.633 956.318 1042.72>
LayerCount: 2
Fore
SplineSet
772 780 m 1
 860 720 l 1
 795 647 l 1
 826 600 842 541 842 472 c 0
 842 182 645 -20 396 -20 c 0
 334 -20 281 -8 238 14 c 1
 173 -60 l 1
 80 0 l 1
 155 84 l 1
 120 132 102 195 102 268 c 0
 102 558 299 760 548 760 c 0
 616 760 673 745 718 719 c 1
 772 780 l 1
689 526 m 1
 326 114 l 1
 351 100 381 92 418 92 c 0
 582 92 697 257 697 456 c 0
 697 481 694 505 689 526 c 1
629 619 m 1
 603 638 569 648 526 648 c 0
 362 648 247 483 247 284 c 0
 247 254 251 225 259 201 c 1
 629 619 l 1
EndSplineSet
Validated: 1
EndChar

StartChar: oslash
Encoding: 248 248 350
Width: 620
VWidth: 0
Flags: W
HStem: -20 110<297.872 397.246> 450 110<327.022 440.423>
VStem: 85 141<181.42 326.932> 499 141<214.055 344>
DStem2: 80 0 173 -60 0.632 0.774968<12.2779 80.9541 233.805 531.397 690.828 748.418>
LayerCount: 2
Fore
SplineSet
419 560 m 0
 458 560 492 553 521 541 c 1
 553 580 l 1
 641 520 l 1
 604 474 l 1
 627 439 640 395 640 343 c 0
 640 130.227535543 488.500573694 -20 306 -20 c 0
 273 -20 243 -15 217 -6 c 1
 173 -60 l 1
 80 0 l 1
 127 57 l 1
 100 93 85 141 85 197 c 0
 85 411.046003455 235.875529089 560 419 560 c 0
228 181 m 1
 441 443 l 1
 429 448 414 450 397 450 c 0
 292.053696609 450 226 337.516708896 226 208 c 0
 226 199 227 189 228 181 c 1
297 93 m 1
 306 91 316 90 327 90 c 4
 431 90 499 204 499 332 c 4
 499 336 499 340 499 344 c 1
 297 93 l 1
EndSplineSet
Validated: 1
EndChar

StartChar: Dcroat
Encoding: 272 272 351
Width: 760
VWidth: 0
Flags: W
HStem: 0 112<246 484.271> 324 92<101 143 305 425> 628 112<346 580.729>
VStem: 657 144<318.651 550.439>
DStem2: 80 0 224.229 0 0.190809 0.981627<141.617 330.068 451.289 667.217>
CounterMasks: 1 e0
LayerCount: 2
Fore
SplineSet
657 453 m 0
 657 563 602 628 488 628 c 2
 346 628 l 1
 305 416 l 1
 443 416 l 1
 425 324 l 1
 287 324 l 1
 246 112 l 1
 388 112 l 2
 546 112 657 254 657 453 c 0
161 416 m 1
 224 740 l 1
 544 740 l 2
 706 740 801 625 801 461 c 0
 801 200 609 0 400 0 c 2
 80 0 l 1
 143 324 l 1
 83 324 l 1
 101 416 l 1
 161 416 l 1
EndSplineSet
Validated: 1
EndChar

StartChar: dcroat
Encoding: 273 273 352
Width: 670
VWidth: 0
Flags: W
HStem: -20 110<259.158 386.213> 0 21G<450 593.897> 450 110<320.894 467.223> 580 90<460 563 720 763> 720 20G<590 734>
VStem: 83 133<133.407 314.913>
LayerCount: 2
Fore
SplineSet
399 560 m 0xbc
 473 560 524 528 543 480 c 1
 563 580 l 1
 443 580 l 1
 460 670 l 1
 580 670 l 1
 594 740 l 1
 734 740 l 1
 720 670 l 1
 780 670 l 1
 763 580 l 1
 703 580 l 1
 590 0 l 1
 450 0 l 1x7c
 462 60 l 1
 425 12 360 -20 286 -20 c 0
 154 -20 83 64 83 188 c 0
 83 388 230 560 399 560 c 0xbc
397 450 m 0
 291 450 216 343 216 215 c 0
 216 142 251 90 327 90 c 0xbc
 433 90 508 197 508 325 c 0
 508 398 473 450 397 450 c 0
EndSplineSet
Validated: 1
EndChar

StartChar: onequarter
Encoding: 188 188 353
Width: 890
VWidth: 0
Flags: W
HStem: 0 21G<689 800.956> 91 85<627 707 831 882>
VStem: 264 108<307 415>
DStem2: 204.325 0 312.325 0 0.190809 0.981627<333.353 697.73> 212 715 194 624 0.919622 0.392804<0 103.169> 217 85 288 40 0.665009 0.746836<13.608 769.25> 518 165 627 176 0.639723 0.768605<78.1845 274.849> 689 0 797 0 0.190809 0.981627<20.6074 92.7626 199.861 333.204>
LayerCount: 2
Fore
SplineSet
791 493 m 1
 893 493 l 1
 831 176 l 1
 898 176 l 1
 882 91 l 1
 815 91 l 1
 797 0 l 1
 689 0 l 1
 707 91 l 1
 504 91 l 1
 518 165 l 1
 791 493 l 1
753 327 m 1
 627 176 l 1
 723 176 l 1
 753 327 l 1
194 624 m 1
 212 715 l 1
 411 800 l 1
 468 800 l 1
 372 307 l 1
 264 307 l 1
 337 685 l 1
 194 624 l 1
217 85 m 1
 728 660 l 1
 800 615 l 1
 288 40 l 1
 217 85 l 1
EndSplineSet
Validated: 1
EndChar

StartChar: zero.superior
Encoding: 8304 8304 354
Width: 437
VWidth: 0
HStem: 280 85<243.781 342.805> 725 85<306.734 405.732>
VStem: 122 107<378.24 588.567> 421 107<501.433 711.76>
LayerCount: 2
Fore
SplineSet
133 545 m 0
 163 698 233 810 376 810 c 4
 486 810 528 744 528 644 c 0
 528 614 524 581 517 545 c 0
 487 392 416 280 273 280 c 0
 163 280 122 346 122 446 c 0
 122 476 126 509 133 545 c 0
241 545 m 0
 235 512 229 477 229 448 c 0
 229 400 243 365 290 365 c 0
 365 365 392 457 409 545 c 0
 415 578 421 613 421 642 c 0
 421 690 407 725 360 725 c 0
 285 725 258 633 241 545 c 0
EndSplineSet
Validated: 1
EndChar

StartChar: four.superior
Encoding: 8308 8308 355
Width: 431
VWidth: -179
HStem: 398 85<228 307 432 482>
DStem2: 119 472 228 483 0.639723 0.768605<78.1845 274.209> 290 307 398 307 0.190809 0.981627<20.6074 92.5718 199.861 333.013>
LayerCount: 2
Fore
SplineSet
392 800 m 1
 494 800 l 1
 432 483 l 1
 499 483 l 1
 482 398 l 1
 415 398 l 1
 398 307 l 1
 290 307 l 1
 307 398 l 1
 104 398 l 1
 119 472 l 1
 392 800 l 1
353 634 m 1
 228 483 l 1
 324 483 l 1
 353 634 l 1
EndSplineSet
Validated: 1
EndChar

StartChar: five.superior
Encoding: 8309 8309 356
Width: 461
VWidth: -179
HStem: 294 84<237.364 370.218> 559 84<297.507 395.423> 717 83<321 511>
VStem: 414 110<421.442 540.766>
DStem2: 131 505 275 598 0.363208 0.931708<38.8633 90.1977 138.951 266.532>
LayerCount: 2
Fore
SplineSet
412 468 m 0
 413 476 414 483 414 490 c 0
 414 532 387 559 333 559 c 0
 293 559 261 541 238 505 c 1
 131 505 l 1
 246 800 l 1
 528 800 l 1
 511 717 l 1
 321 717 l 1
 275 598 l 1
 290 621 321 643 363 643 c 0
 464 643 524 590 524 507 c 0
 524 495 523 482 520 469 c 0
 500 364 397 294 280 294 c 0
 184 294 117 357 117 432 c 1
 227 432 l 1
 228 396 251 378 297 378 c 0
 363 378 401 412 412 468 c 0
EndSplineSet
Validated: 1
EndChar

StartChar: six.superior
Encoding: 8310 8310 357
Width: 436
VWidth: -187
HStem: 280 85<238.056 353.811> 552 85<285.43 382.63> 725 85<307.057 421.411>
VStem: 119 102<382.419 507.277> 400 108<412.849 535.36>
LayerCount: 2
Fore
SplineSet
428 685 m 1
 428 709 401 725 369 725 c 0
 302 725 258 672 237 568 c 1
 270 614 312 637 361 637 c 0
 449 637 508 577 508 494 c 0
 508 360 396 280 276 280 c 0
 172 280 119 337 119 450 c 0
 119 480 123 514 130 552 c 0
 164 724 249 810 385 810 c 0
 474 810 534 766 534 689 c 2
 534 685 l 1
 428 685 l 1
328 552 m 0
 267 552 221 504 221 435 c 0
 221 393 245 365 292 365 c 0
 353 365 400 416 400 483 c 0
 400 524 376 552 328 552 c 0
EndSplineSet
Validated: 1
EndChar

StartChar: seven.superior
Encoding: 8311 8311 358
Width: 456
VWidth: -179
HStem: 716 84<196 432>
VStem: 154 111<307 418>
DStem2: 154 307 265 307 0.561687 0.82735<62.3473 494.535>
LayerCount: 2
Fore
SplineSet
179 716 m 1
 196 800 l 5
 573 800 l 1
 561 743 l 1
 265 307 l 1
 154 307 l 1
 432 716 l 1
 179 716 l 1
EndSplineSet
Validated: 1
EndChar

StartChar: eight.superior
Encoding: 8312 8312 359
Width: 452
VWidth: -187
HStem: 280 85<237.071 364.755> 523 85<294.26 390.66> 725 85<306.704 421.065>
VStem: 109 110<384.689 486.012> 178 109<615.97 705.526> 406 109<405.562 506.498> 427 110<630.223 717.169>
LayerCount: 2
Fore
SplineSet
280 280 m 0xe4
 174 280 109 324 109 407 c 0xf4
 109 418 111 430 113 443 c 0
 124 499 162 539 227 565 c 1
 194 583 178 610 178 645 c 0
 178 653 178 662 180 671 c 0
 197 759 282 810 384 810 c 0
 475 810 537 769 537 698 c 0xea
 537 689 536 680 534 671 c 0
 524 621 497 585 450 565 c 1
 494 545 515 514 515 472 c 0
 515 463 514 453 512 443 c 0
 491 337 400 280 280 280 c 0xe4
328 523 m 0
 274 523 230 493 221 445 c 0
 220 439 219 434 219 429 c 0
 219 391 249 365 297 365 c 0
 351 365 395 398 404 445 c 0
 405 451 406 456 406 461 c 0
 406 500 376 523 328 523 c 0
368 725 m 0
 325 725 295 705 288 668 c 0
 287 663 287 659 287 655 c 0
 287 626 307 608 345 608 c 0
 388 608 419 631 426 668 c 0
 427 673 427 677 427 681 c 0xea
 427 710 406 725 368 725 c 0
EndSplineSet
Validated: 1
EndChar

StartChar: nine.superior
Encoding: 8313 8313 360
Width: 436
VWidth: -187
HStem: 280 85<226.212 343.517> 453 85<265.362 362.481> 725 85<294.75 410.088>
VStem: 139 109<555.429 676.165> 427 102<582.723 707.581>
LayerCount: 2
Fore
SplineSet
220 405 m 1
 220 381 248 365 280 365 c 0
 347 365 390 418 410 522 c 1
 378 476 336 453 287 453 c 0
 199 453 139 513 139 596 c 0
 139 608 141 620 143 633 c 0
 164 741 259 810 372 810 c 0
 477 810 529 753 529 640 c 0
 529 610 525 576 518 538 c 0
 484 366 398 280 262 280 c 0
 173 280 114 324 114 401 c 2
 114 405 l 1
 220 405 l 1
320 538 m 0
 381 538 427 586 427 655 c 0
 427 697 403 725 356 725 c 0
 300 725 261 685 251 631 c 0
 249 623 248 615 248 607 c 0
 248 566 272 538 320 538 c 0
EndSplineSet
Validated: 1
EndChar

StartChar: onehalf
Encoding: 189 189 361
Width: 1000
VWidth: 0
Flags: W
HStem: 0 84<790 973> 423 84<797.687 906.646>
VStem: 264 108<307 415> 653 108<329 437> 919 109<283.682 409.838>
DStem2: 204.325 0 312.325 0 0.190809 0.981627<333.353 697.73> 212 715 194 624 0.919622 0.392804<0 103.169> 217 85 288 40 0.665009 0.746836<13.608 769.25> 828 217 790 84 0.832663 0.55378<-105.294 105.506>
LayerCount: 2
Fore
SplineSet
856 423 m 0
 801 423 771 383 761 329 c 1
 653 329 l 1
 674 438 759 507 872 507 c 0
 969 507 1028 452 1028 368 c 0
 1028 234.919573462 919.783498421 172.009892239 839 116 c 1
 790 84 l 1
 990 84 l 1
 973 0 l 1
 604 0 l 1
 619 78 l 1
 828 217 l 2
 884.646160561 255.149455072 919 293.940900245 919 359 c 0
 919 397 900 423 856 423 c 0
194 624 m 1
 212 715 l 1
 411 800 l 1
 468 800 l 1
 372 307 l 1
 264 307 l 1
 337 685 l 1
 194 624 l 1
217 85 m 1
 728 660 l 1
 800 615 l 1
 288 40 l 1
 217 85 l 1
EndSplineSet
Validated: 1
EndChar

StartChar: threequarters
Encoding: 190 190 362
Width: 970
VWidth: 0
Flags: W
HStem: 0 21G<769 880.956> 91 85<707 787 911 962> 284 85<236.968 361.013> 527 85<293 378.034> 729 85<304.696 414.301>
VStem: 111 110<385.924 449> 400 109<405.824 505.691> 421 110<636.511 721.404>
DStem2: 297 85 368 40 0.665009 0.746836<13.608 769.25> 598 165 707 176 0.639723 0.768605<78.1845 274.849> 769 0 877 0 0.190809 0.981627<20.6074 92.7626 199.861 333.204>
LayerCount: 2
Fore
SplineSet
278 284 m 0xfe
 174 284 111 329 111 412 c 0
 111 424 111 436 114 449 c 1
 222 449 l 1
 221 443 221 438 221 433 c 0
 221 395 249 369 295 369 c 0
 349.247986242 369 400 407.190259217 400 464 c 0xfe
 400 506 359 527 276 527 c 1
 293 612 l 1
 362.95303118 612 421 623.492119643 421 685 c 0
 421 714 400 729 364 729 c 0
 322 729 293 709 286 672 c 1
 180 672 l 1
 197 761 281 814 381 814 c 0
 470 814 531 773 531 702 c 0xfd
 531 636.180491832 495.259133766 590.812397347 444 569 c 1
 488 549 509 518 509 476 c 0
 509 349.11503965 398.617501776 284 278 284 c 0xfe
871 493 m 1
 973 493 l 1
 911 176 l 1
 978 176 l 1
 962 91 l 1
 895 91 l 1
 877 0 l 1
 769 0 l 1
 787 91 l 1
 584 91 l 1
 598 165 l 1
 871 493 l 1
833 327 m 1
 707 176 l 1
 803 176 l 1
 833 327 l 1
297 85 m 1
 808 660 l 1
 880 615 l 1
 368 40 l 1
 297 85 l 1
EndSplineSet
Validated: 1
EndChar

StartChar: copyright
Encoding: 169 169 363
Width: 880
VWidth: 0
Flags: W
HStem: -20 90<345.492 571.361> 134 86<430.146 550.928> 520 86<480.297 600.626> 670 90<452.578 678.411>
VStem: 104 111<198.91 425.125> 292 112<246.285 423.659> 595 110<198 308> 620 110<432 500.717> 808 112<314.875 541.09>
LayerCount: 2
Fore
SplineSet
215 305 m 0xfc80
 215 168 307 70 454 70 c 0
 637 70 808 224 808 435 c 0
 808 572 717 670 570 670 c 0
 387 670 215 516 215 305 c 0xfc80
588 760 m 0
 789 760 920 637 920 453 c 0
 920 169 682 -20 436 -20 c 0
 235 -20 104 103 104 287 c 0
 104 571 342 760 588 760 c 0
558 606 m 0
 678 606 730 534 730 453 c 0
 730 446 730 439 729 432 c 1
 619 432 l 1
 619 437 620 441 620 446 c 0xfd80
 620 482 603 520 541 520 c 0
 469 520 404 433 404 319 c 0
 404 256 433 220 483 220 c 0
 553 220 584 268 595 308 c 1
 705 308 l 1xfe80
 680 218 596 134 466 134 c 0
 356 134 292 199 292 307 c 0
 292 487 415 606 558 606 c 0
EndSplineSet
Validated: 1
EndChar

StartChar: registered
Encoding: 174 174 364
Width: 860
VWidth: 0
Flags: W
HStem: -20 90<345.492 571.361> 315 75<448 498> 518 80<473 605.073> 670 90<452.578 678.411>
VStem: 104 111<198.91 425.125> 291 110<151 261> 612 111<414.572 509.509> 808 112<314.875 541.09>
DStem2: 257.761 -20 367.761 -20 0.190809 0.981627<195.19 362.282 438.766 569.185> 607 323 498 315 0.329372 -0.9442<0 145.275>
LayerCount: 2
Fore
SplineSet
215 305 m 0
 215 168 307 70 454 70 c 0
 637 70 808 224 808 435 c 0
 808 572 717 670 570 670 c 0
 387 670 215 516 215 305 c 0
588 760 m 0
 789 760 920 637 920 453 c 0
 920 169 682 -20 436 -20 c 0
 235 -20 104 103 104 287 c 0
 104 571 342 760 588 760 c 0
531 390 m 2
 576 390 612 420 612 470 c 0
 612 500 592 518 556 518 c 2
 473 518 l 1
 448 390 l 1
 531 390 l 2
723 483 m 0
 723 399 657 340 607 323 c 1
 667 151 l 1
 555 151 l 1
 498 315 l 1
 433 315 l 1
 401 151 l 1
 291 151 l 1
 378 598 l 1
 611 598 l 2
 664 598 723 556 723 483 c 0
EndSplineSet
Validated: 1
EndChar

StartChar: Lslash
Encoding: 321 321 365
Width: 660
VWidth: 0
Flags: W
HStem: 0 112<246 640> 720 20G<220.107 368>
VStem: 224 144<596 740>
DStem2: 75 285 126 239 0.843569 0.53702<0 18.3191 276.031 384.238> 80 0 224.229 0 0.190809 0.981627<141.617 243.386 335.167 376.959 468.549 753.881>
LayerCount: 2
Fore
SplineSet
452 525 m 1
 435 435 l 1
 291 343 l 1
 246 112 l 1
 662 112 l 1
 640 0 l 1
 80 0 l 1
 126 239 l 1
 58 195 l 1
 75 285 l 1
 144 329 l 1
 224 740 l 1
 368 740 l 1
 308 433 l 1
 452 525 l 1
EndSplineSet
Validated: 1
EndChar

StartChar: lslash
Encoding: 322 322 366
Width: 360
VWidth: 0
Flags: W
HStem: 0 21G<110 253.913> 720 20G<250.082 394>
VStem: 110 140<0 140> 254 140<600 740>
DStem2: 75 285 161 262 0.836929 0.547311<0 59.3878 315.634 375.022> 110 0 250 0 0.190809 0.981627<26.7133 266.918 358.508 401.69 493.281 753.881>
LayerCount: 2
Fore
SplineSet
442 525 m 1
 425 435 l 1
 322 368 l 1
 250 0 l 1
 110 0 l 1
 161 262 l 1
 58 195 l 1
 75 285 l 1
 178 352 l 1
 254 740 l 1
 394 740 l 1
 339 458 l 1
 442 525 l 1
EndSplineSet
Validated: 1
EndChar

StartChar: Tbar
Encoding: 358 358 367
Width: 640
VWidth: 0
Flags: W
HStem: 0 21G<248 395.905> 379 102<173 322 485 634> 628 112<164 370 514 742>
VStem: 248 144<0 144>
DStem2: 248 0 392 0 0.190809 0.981627<27.4765 386.157 517.384 639.741>
LayerCount: 2
Fore
SplineSet
653 481 m 1
 634 379 l 1
 466 379 l 1
 392 0 l 1
 248 0 l 1
 322 379 l 1
 154 379 l 1
 173 481 l 1
 341 481 l 1
 370 628 l 1
 142 628 l 1
 164 740 l 1
 764 740 l 1
 742 628 l 1
 514 628 l 1
 485 481 l 1
 653 481 l 1
EndSplineSet
Validated: 1
EndChar

StartChar: tbar
Encoding: 359 359 368
Width: 350
VWidth: 0
Flags: W
HStem: -20 110<181.5 328.589> 260 90<98 141 298 341> 430 110<125 174 335 404>
VStem: 114 145<57.1054 234.766> 224 140<550 690>
DStem2: 86.0677 -20 226.18 -20 0.190809 0.981627<182.989 285.337 403.641 458.51 597.21 723.274>
LayerCount: 2
Fore
SplineSet
267 190 m 2xe8
 263 169 259 149 259 132 c 0
 259 107 267 90 291 90 c 0
 306 90 325 92 348 95 c 1
 329 -5 l 1
 300 -15 263 -20 220 -20 c 0
 143 -20 114 23 114 93 c 0xf0
 114 116 117 142 123 170 c 2
 141 260 l 1
 81 260 l 1
 98 350 l 1
 158 350 l 1
 174 430 l 1
 104 430 l 1
 125 540 l 1
 195 540 l 1
 224 690 l 1
 364 690 l 1
 335 540 l 1
 425 540 l 1
 404 430 l 1
 314 430 l 1
 298 350 l 1
 358 350 l 1
 341 260 l 1
 281 260 l 1
 267 190 l 2xe8
EndSplineSet
Validated: 1
EndChar

StartChar: uni2010
Encoding: 8208 8208 369
Width: 360
VWidth: 0
Flags: W
HStem: 275 110<115 373>
VStem: 93 301
LayerCount: 2
Fore
SplineSet
93 275 m 1
 115 385 l 1
 394 385 l 1
 373 275 l 1
 93 275 l 1
EndSplineSet
Validated: 1
EndChar

StartChar: figuredash
Encoding: 8210 8210 370
Width: 620
VWidth: 0
Flags: W
HStem: 275 110<115 633>
LayerCount: 2
Fore
SplineSet
93 275 m 1
 115 385 l 1
 655 385 l 1
 633 275 l 1
 93 275 l 1
EndSplineSet
Validated: 1
EndChar

StartChar: uni2015
Encoding: 8213 8213 371
Width: 2000
VWidth: 0
Flags: W
HStem: 275 110<115 2013>
LayerCount: 2
Fore
SplineSet
93 275 m 1
 115 385 l 1
 2035 385 l 1
 2013 275 l 1
 93 275 l 1
EndSplineSet
Validated: 1
EndChar

StartChar: uni203D
Encoding: 8253 8253 373
Width: 560
Flags: W
HStem: 0 130<235 350> 740 20G<356 490>
VStem: 141 140<520 584.135> 486 141<476.056 622.046>
DStem2: 210 0 350 0 0.190809 0.981627<26.7133 132.382 220.282 299.935 460.751 635.623>
LayerCount: 2
Fore
SplineSet
428 760 m 0
 552 760 627 690 627 577 c 0
 627 559 625 540 621 520 c 0
 609 459 572 405 510 360 c 0
 440 310 401 260 391 210 c 2
 387 190 l 1
 247 190 l 1
 253 220 l 2
 258 245 270 269 286 292 c 1
 301 470 l 1
 331 624 l 1
 307 603 290 568 281 520 c 1
 141 520 l 1
 169 665 284 760 428 760 c 0
350 0 m 1
 210 0 l 1
 235 130 l 1
 375 130 l 1
 350 0 l 1
428 427 m 1
 457 457 475 489 481 520 c 0
 484 538 486 554 486 568 c 0
 486 592 481 611 471 624 c 1
 441 470 l 1
 428 427 l 1
EndSplineSet
Validated: 1
EndChar

StartChar: uni203E
Encoding: 8254 8254 374
Width: 560
VWidth: 0
Flags: W
HStem: 690 110<136 714>
LayerCount: 2
Fore
SplineSet
136 800 m 1
 736 800 l 1
 714 690 l 1
 114 690 l 1
 136 800 l 1
EndSplineSet
Validated: 1
EndChar

StartChar: uni0310
Encoding: 784 784 378
Width: 0
VWidth: 0
Flags: W
HStem: 570 80<-133.331 -24.9167> 720 20G<-258 -147 9 124> 730 130<-113 2>
VStem: -261 111<665.919 740> 14 110<630 740>
LayerCount: 2
Fore
SplineSet
-138 730 m 1xb8
 -113 860 l 1
 27 860 l 1
 2 730 l 1
 -138 730 l 1xb8
-257 740 m 1xd8
 -147 740 l 1
 -148 733 -150 725 -150 718 c 0
 -150 679 -127 650 -84 650 c 0
 -34 650 4 690 14 740 c 1
 124 740 l 1
 103 630 1 570 -99 570 c 0
 -188 570 -261 617 -261 705 c 0
 -261 716 -259 728 -257 740 c 1xd8
EndSplineSet
Validated: 1
EndChar

StartChar: uni030F
Encoding: 783 783 379
Width: 420
VWidth: 0
Flags: W
HStem: 590 170<305 338 475 508>
LayerCount: 2
Fore
SplineSet
515 590 m 1
 435 590 l 1
 338 760 l 1
 468 760 l 1
 515 590 l 1
345 590 m 1
 265 590 l 1
 168 760 l 1
 298 760 l 1
 345 590 l 1
EndSplineSet
Validated: 1
EndChar

StartChar: uni0311
Encoding: 785 785 380
Width: 0
VWidth: 0
Flags: W
HStem: 660 80<-89.5201 -23.867>
VStem: -229 110<570 680> -16 111<570 656.121>
LayerCount: 2
Fore
SplineSet
-229 570 m 1
 -208 680 -126 740 -36 740 c 0
 41 740 95 696 95 613 c 0
 95 600 94 585 91 570 c 1
 -19 570 l 1
 -17 581 -16 592 -16 602 c 0
 -16 636 -28 660 -52 660 c 0
 -82 660 -109 620 -119 570 c 1
 -229 570 l 1
EndSplineSet
Validated: 1
EndChar

StartChar: Omega
Encoding: 8486 8486 381
Width: 820
VWidth: 0
Flags: W
HStem: 0 110<41 201 327.32 370 471 539.024 661 800> 650 110<425.187 637.347>
VStem: 106 139<193.92 428.014> 723 140<332.292 568.078>
LayerCount: 2
Fore
SplineSet
558 760 m 0
 732 760 863 662 863 473 c 0
 863 444 860 413 854 380 c 0
 827 240 748 155 661 110 c 1
 821 110 l 1
 800 0 l 1
 450 0 l 1
 471 110 l 1
 588 130 681 210 714 380 c 0
 720 413 723 442 723 468 c 0
 723 595 652 650 536 650 c 0
 396 650 291 570 254 380 c 0
 248 349 245 320 245 295 c 0
 245 182 302 126 391 110 c 1
 370 0 l 1
 20 0 l 1
 41 110 l 1
 201 110 l 1
 145 146 106 208 106 302 c 0
 106 326 108 352 114 380 c 0
 163 630 358 760 558 760 c 0
EndSplineSet
Validated: 1
EndChar

StartChar: integral
Encoding: 8747 8747 382
Width: 380
VWidth: 0
Flags: W
HStem: -260 110<-9.95655 84.4115> 650 110<392.589 486.957>
DStem2: 69.1801 -260 209.068 -260 0.190809 0.981627<117.146 948.729>
LayerCount: 2
Fore
SplineSet
231 570 m 2
 253 685 300 760 402 760 c 0
 445 760 480 755 505 745 c 1
 485 645 l 1
 464 648 445 650 430 650 c 0
 389 650 377 602 367 550 c 2
 246 -70 l 2
 224 -185 177 -260 75 -260 c 0
 32 -260 -3 -255 -28 -245 c 1
 -8 -145 l 1
 13 -148 32 -150 47 -150 c 0
 88 -150 100 -102 110 -50 c 2
 231 570 l 2
EndSplineSet
Validated: 1
EndChar

StartChar: OE
Encoding: 338 338 383
Width: 1200
VWidth: 0
Flags: W
HStem: -20 112<327.369 514.202> 0 112<786 1180> 314 112<847 1211> 628 112<886 1302> 648 112<434.162 617.623>
VStem: 102 145<176.715 422.96>
LayerCount: 2
Fore
SplineSet
247 284 m 0xac
 247 170 301 92 418 92 c 0
 582 92 697 257 697 456 c 0
 697 570 643 648 526 648 c 0
 362 648 247 483 247 284 c 0xac
548 760 m 0
 636 760 705 736 755 693 c 1
 764 740 l 1
 1324 740 l 1
 1302 628 l 1
 886 628 l 1
 847 426 l 1
 1233 426 l 1
 1211 314 l 1
 825 314 l 1
 786 112 l 1
 1202 112 l 1
 1180 0 l 1
 620 0 l 1x74
 629 47 l 1
 563 4 484 -20 396 -20 c 0
 204 -20 102 93 102 268 c 0
 102 558 299 760 548 760 c 0
EndSplineSet
Validated: 1
EndChar

StartChar: oe
Encoding: 339 339 384
Width: 1020
VWidth: 0
Flags: W
HStem: -20 110<261.799 399.059 660.991 809.618> 230 110<646 906> 450 110<327.022 461.604 715.058 868.6>
VStem: 85 141<127.536 326.932>
LayerCount: 2
Fore
SplineSet
625 230 m 1
 625 224 624 217 624 211 c 0
 624 141 654 90 729 90 c 0
 788 90 846 124 863 170 c 1
 1003 170 l 1
 958 53 847 -20 702 -20 c 0
 619 -20 558 11 522 63 c 1
 465 10 391 -20 306 -20 c 0
 164 -20 85 66 85 197 c 0
 85 411.046003455 235.875529089 560 419 560 c 0
 504 560 566 529 603 476 c 1
 660 529 735 560 821 560 c 0
 968 560 1035 469 1035 332 c 0
 1035 300 1032 266 1025 230 c 1
 625 230 l 1
906 340 m 1
 900 408 877 450 797 450 c 0
 717 450 678 408 646 340 c 1
 906 340 l 1
226 208 m 0
 226 138 256 90 327 90 c 0
 431.361759198 90 499 203.680509139 499 332 c 0
 499 402 468 450 397 450 c 0
 292.053696609 450 226 337.516708896 226 208 c 0
EndSplineSet
Validated: 1
EndChar

StartChar: partialdiff
Encoding: 8706 8706 387
Width: 580
VWidth: 0
Flags: W
HStem: -20 113<244.905 375.439> 450 110<309.829 440.802> 720 20G<274 477>
VStem: 66 141<133.869 324.982> 479 143<224.776 409.782>
LayerCount: 2
Fore
SplineSet
622 363 m 0
 622 132 462 -20 286 -20 c 0
 157 -20 66 63 66 201 c 0
 66 418 236 560 379 560 c 0
 409 560 432 555 455 540 c 1
 429 613 338 699 274 740 c 1
 424 740 l 1
 530 676 622 533 622 363 c 0
207 214 m 0
 207 132 250 93 308 93 c 0
 389 93 479 186 479 328 c 0
 479 410 435 450 377 450 c 0
 296 450 207 356 207 214 c 0
EndSplineSet
Validated: 1
EndChar

StartChar: fraction
Encoding: 8260 8260 388
Width: 520
VWidth: 0
Flags: W
DStem2: 37 85 108 40 0.665009 0.746836<13.608 769.25>
LayerCount: 2
Fore
SplineSet
37 85 m 5
 548 660 l 5
 620 615 l 5
 108 40 l 5
 37 85 l 5
EndSplineSet
Validated: 1
EndChar

StartChar: infinity
Encoding: 8734 8734 389
Width: 560
VWidth: 0
Flags: W
HStem: 250 90<219.917 292.084 408.946 480.595> 450 90<230.91 303.749 421.416 493.578>
VStem: 114 101<343.246 433.052> 308 97<355.791 434.209> 498 101<356.948 446.754>
CounterMasks: 1 38
LayerCount: 2
Fore
SplineSet
251 340 m 0
 282 340 308 371 308 409 c 0
 308 432 295 450 272 450 c 0
 241 450 215 419 215 381 c 0
 215 358 228 340 251 340 c 0
234 250 m 0
 164 250 114 301 114 368 c 0
 114 465 206 540 290 540 c 0
 326 540 356 526 378 504 c 1
 408 526 444 540 480 540 c 0
 550 540 599 489 599 422 c 0
 599 325 508 250 424 250 c 0
 388 250 358 264 336 286 c 1
 306 264 270 250 234 250 c 0
462 450 m 0
 431 450 405 419 405 381 c 0
 405 358 418 340 441 340 c 0
 472 340 498 371 498 409 c 0
 498 432 485 450 462 450 c 0
EndSplineSet
Validated: 1
EndChar

StartChar: summation
Encoding: 8721 8721 390
Width: 600
VWidth: 0
Flags: W
HStem: -220 112<153 537> 628 112<296 702>
DStem2: -1 -108 153 -108 0.649631 0.76025<100.043 497.205> 296 628 142 628 0.449209 -0.893427<0 331.526>
LayerCount: 2
Fore
SplineSet
153 -108 m 1
 559 -108 l 1
 537 -220 l 1
 -23 -220 l 1
 -1 -108 l 1
 322 270 l 1
 142 628 l 1
 164 740 l 1
 724 740 l 1
 702 628 l 1
 296 628 l 1
 476 270 l 1
 153 -108 l 1
EndSplineSet
Validated: 1
EndChar

StartChar: product
Encoding: 8719 8719 391
Width: 760
VWidth: 0
Flags: W
HStem: 628 112<346 658>
VStem: 37 144<-220 -76> 224 600<140 740> 493 144<-220 -76>
DStem2: 37 -220 181 -220 0.190809 0.981627<27.4765 891.38> 493 -220 637 -220 0.190809 0.981627<27.4765 863.903>
LayerCount: 2
Fore
SplineSet
37 -220 m 1xd0
 224 740 l 1
 824 740 l 1xe0
 637 -220 l 1
 493 -220 l 1
 658 628 l 1
 346 628 l 1
 181 -220 l 1
 37 -220 l 1xd0
EndSplineSet
Validated: 1
EndChar

StartChar: pi
Encoding: 960 960 392
Width: 610
VWidth: 0
Flags: W
HStem: 0 21G<80 223.907 390 533.907> 430 110<125 164 304 474 614 674>
VStem: 80 140<0 140> 390 140<0 140>
DStem2: 80 0 220 0 0.190809 0.981627<26.7133 438.128> 390 0 530 0 0.190809 0.981627<26.7133 438.128>
LayerCount: 2
Fore
SplineSet
125 540 m 1
 695 540 l 1
 674 430 l 1
 614 430 l 1
 530 0 l 1
 390 0 l 1
 474 430 l 1
 304 430 l 1
 220 0 l 1
 80 0 l 1
 164 430 l 1
 104 430 l 1
 125 540 l 1
EndSplineSet
Validated: 1
EndChar

StartChar: radical
Encoding: 8730 8730 393
Width: 700
VWidth: 1914
Flags: W
HStem: 0 21G<253.535 454.27> 430 110<125 203> 720 20G<679.74 824>
DStem2: 323 540 203 430 0.12233 -0.992489<94.4942 419.114> 374 124 444 0 0.456805 0.889567<0 692.324>
LayerCount: 2
Fore
SplineSet
323 540 m 1
 374 124 l 1
 690 740 l 1
 824 740 l 1
 444 0 l 1
 256 0 l 1
 203 430 l 9
 104 430 l 25
 125 540 l 25
 323 540 l 1
EndSplineSet
Validated: 1
EndChar

StartChar: approxequal
Encoding: 8776 8776 394
Width: 490
VWidth: 0
Flags: W
HStem: 155 70<339.706 417.543> 240 70<162.66 240.931> 325 70<373.813 450.543> 410 70<195.66 274.068>
VStem: 70 70<155 225> 103 70<325 395> 440 70<240 310> 473 70<410 480>
LayerCount: 2
Fore
SplineSet
103 325 m 1xf5
 122 425 183 480 243 480 c 0
 273 480 302 474 344 440 c 0
 386 406 402 395 417 395 c 0
 437 395 459 410 473 480 c 1
 543 480 l 1
 524 380 463 325 403 325 c 0
 373 325 346 331 304 365 c 0
 262 399 245 410 230 410 c 0
 210 410 187 395 173 325 c 1
 103 325 l 1xf5
70 155 m 1xfa
 89 255 150 310 210 310 c 0
 240 310 268 304 310 270 c 0
 352 236 369 225 384 225 c 0
 404 225 426 240 440 310 c 1
 510 310 l 1
 491 210 430 155 370 155 c 0
 340 155 313 161 271 195 c 0
 229 229 212 240 197 240 c 0
 177 240 154 225 140 155 c 1
 70 155 l 1xfa
EndSplineSet
Validated: 1
EndChar

StartChar: lozenge
Encoding: 9674 9674 395
Width: 460
VWidth: 1914
Flags: W
HStem: 0 21G<133.514 334.27> 720 20G<269.73 470.486>
DStem2: 224 370 90 370 0.123375 -0.99236<0 247.822> 90 370 224 370 0.456805 0.889567<61.2118 337.603> 254 124 324 0 0.456805 0.889567<0 276.391> 468 740 350 616 0.123375 -0.99236<108.494 356.316>
LayerCount: 2
Fore
SplineSet
90 370 m 1
 280 740 l 1
 468 740 l 1
 514 370 l 1
 324 0 l 1
 136 0 l 1
 90 370 l 1
224 370 m 1
 254 124 l 1
 380 370 l 1
 350 616 l 1
 224 370 l 1
EndSplineSet
Validated: 1
EndChar

StartChar: uni2113
Encoding: 8467 8467 396
Width: 340
VWidth: 0
Flags: W
HStem: -20 110<171.5 318.589> 720 20G<220.105 364>
VStem: 104 145<57.1054 232.656> 224 140<600 740>
DStem2: 76.0677 -20 216.18 -20 0.190809 0.981627<182.989 774.263>
LayerCount: 2
Fore
SplineSet
364 740 m 1xd0
 257 190 l 2
 253 169 249 149 249 132 c 0
 249 107 257 90 281 90 c 0
 296 90 315 92 338 95 c 1
 319 -5 l 1
 290 -15 253 -20 210 -20 c 0
 133 -20 104 23 104 93 c 0xe0
 104 116 107 142 113 170 c 2
 224 740 l 1
 364 740 l 1xd0
EndSplineSet
Validated: 1
EndChar

StartChar: uni20BA
Encoding: 8378 8378 397
Width: 670
VWidth: 0
Flags: W
HStem: 0 112<256 376.598> 210 110<82 131 296 421> 400 110<119 168 333 458>
VStem: 230 144<576 720>
DStem2: 90.1801 0 234.229 0 0.190809 0.981627<141.582 213.931 353.393 407.5 546.962 733.45>
LayerCount: 2
Fore
SplineSet
61 210 m 1
 82 320 l 1
 152 320 l 1
 168 400 l 1
 98 400 l 1
 119 510 l 1
 189 510 l 1
 230 720 l 1
 374 720 l 1
 333 510 l 1
 479 510 l 1
 458 400 l 1
 312 400 l 1
 296 320 l 1
 442 320 l 1
 421 210 l 1
 275 210 l 1
 256 112 l 1
 426 112 523 212 578 360 c 1
 720 360 l 1
 647 163 494 0 234 0 c 2
 90 0 l 1
 131 210 l 1
 61 210 l 1
EndSplineSet
Validated: 1
EndChar

StartChar: uni20BD
Encoding: 8381 8381 398
Width: 670
VWidth: 0
Flags: W
HStem: 0 21G<100 247.833> 120 112<65 123 289 463> 290 112<98 156 322 546.819> 628 112<366 584.094>
VStem: 609 146<463.718 602.339>
DStem2: 100 0 244 0 0.190809 0.981627<27.4765 122.184 263.8 295.357 436.974 667.217>
LayerCount: 2
Fore
SplineSet
485 232 m 1
 463 120 l 1
 267 120 l 1
 244 0 l 1
 100 0 l 1
 123 120 l 1
 43 120 l 1
 65 232 l 1
 145 232 l 1
 156 290 l 1
 76 290 l 1
 98 402 l 1
 178 402 l 1
 244 740 l 1
 594 740 l 2
 693 740 755 665 755 565 c 0
 755 412 631 290 506 290 c 2
 300 290 l 1
 289 232 l 1
 485 232 l 1
609 545 m 0
 609 601 572 628 508 628 c 2
 366 628 l 1
 322 402 l 1
 464 402 l 2
 546 402 609 450 609 545 c 0
EndSplineSet
Validated: 1
EndChar

StartChar: uni02F8
Encoding: 760 760 399
Width: 300
Flags: W
HStem: 100 130<125 239> 530 130<208 323>
VStem: 99 249
DStem2: 99 100 239 100 0.190809 0.981627<26.7133 132.573 464.841 570.509>
LayerCount: 2
Fore
SplineSet
183 530 m 1
 208 660 l 1
 348 660 l 1
 323 530 l 1
 183 530 l 1
99 100 m 1
 125 230 l 1
 265 230 l 1
 239 100 l 1
 99 100 l 1
EndSplineSet
Validated: 1
EndChar

StartChar: uni01EA
Encoding: 490 490 426
Width: 800
VWidth: 0
Flags: W
HStem: -233 74<340.886 438.442> 648 112<434.162 616.631>
VStem: 102 145<178.152 422.775> 224 113<-152.464 -76.9976> 697 145<315.146 563.285>
LayerCount: 2
Fore
SplineSet
247 284 m 0xe8
 247 170 301 92 418 92 c 0
 582 92 697 257 697 456 c 0
 697 570 643 648 526 648 c 0
 362 648 247 483 247 284 c 0xe8
548 760 m 0
 740 760 842 647 842 472 c 0
 842 197 665 2 438 -18 c 1
 359 -61 337 -84 337 -123 c 0
 337 -150 363 -159 399 -159 c 0
 419 -159 435 -152 453 -139 c 1
 439 -213 l 1
 416 -225 385 -233 345 -233 c 0
 274 -233 224 -201 224 -144 c 0xd8
 224 -79 269 -42 338 -16 c 1
 183 5 102 112 102 268 c 0
 102 557 299 760 548 760 c 0
EndSplineSet
EndChar

StartChar: uni01EB
Encoding: 491 491 427
Width: 620
VWidth: 0
Flags: W
HStem: -233 74<250.886 348.442> 450 110<327.033 462.87>
VStem: 85 141<127.364 326.808> 134 113<-152.464 -76.6022> 499 141<213.735 412.464>
LayerCount: 2
Fore
SplineSet
226 208 m 0xe8
 226 138 256 90 327 90 c 0
 432 90 499 203 499 332 c 0
 499 402 468 450 397 450 c 0
 292 450 226 337 226 208 c 0xe8
419 560 m 0
 561 560 640 474 640 343 c 0
 640 145 509 3 349 -17 c 1
 268 -60 247 -84 247 -123 c 0
 247 -150 273 -159 309 -159 c 0
 329 -159 345 -152 363 -139 c 1
 349 -213 l 1
 326 -225 295 -233 255 -233 c 0
 184 -233 134 -201 134 -144 c 0xd8
 134 -79 179 -41 250 -15 c 1
 143 5 85 84 85 197 c 0
 85 411 236 560 419 560 c 0
EndSplineSet
EndChar

StartChar: uni0228
Encoding: 552 552 473
Width: 660
VWidth: 0
Flags: W
HStem: -227 100<199 340.895> -0 112<246 300 410 640> 314 112<307 671> 628 112<346 762>
DStem2: 35.8757 -227 180.105 -227 0.190809 0.981627<372.865 578.595 692.736 898.466>
LayerCount: 2
Fore
SplineSet
199 -127 m 1
 279 -127 344 -123 344 -99 c 0
 344 -81 306 -76 259 -72 c 1
 300 -0 l 1
 80 0 l 1
 224 740 l 1
 784 740 l 1
 762 628 l 1
 346 628 l 1
 307 426 l 1
 693 426 l 1
 671 314 l 1
 285 314 l 1
 246 112 l 1
 662 112 l 1
 640 0 l 1
 410 -0 l 1
 401 -12 l 1
 426 -16 456 -41 456 -83 c 0
 456 -89 455 -95 454 -102 c 0
 438 -182 359 -227 179 -227 c 1
 199 -127 l 1
EndSplineSet
EndChar

StartChar: uni0229
Encoding: 553 553 474
Width: 620
VWidth: 0
Flags: W
HStem: -247 100<145 286.895> 230 110<246 506> 450 110<318.377 468.6>
VStem: 85 139<128.387 226.784>
LayerCount: 2
Fore
SplineSet
225 230 m 1
 225 224 224 217 224 211 c 0
 224 141 254 90 329 90 c 0
 388 90 446 124 463 170 c 1
 603 170 l 1
 564 69 475 0 358 -16 c 1
 347 -32 l 1
 372 -36 402 -61 402 -103 c 0
 402 -109 401 -115 400 -122 c 0
 384 -202 305 -247 125 -247 c 1
 145 -147 l 1
 225 -147 290 -143 290 -119 c 0
 290 -101 252 -96 205 -92 c 1
 249 -15 l 1
 143 5 85 85 85 197 c 0
 85 412 237 560 421 560 c 0
 568 560 635 469 635 332 c 0
 635 300 632 266 625 230 c 1
 225 230 l 1
506 340 m 1
 500 408 477 450 397 450 c 0
 317 450 278 408 246 340 c 1
 506 340 l 1
EndSplineSet
EndChar

StartChar: uni1E10
Encoding: 7696 7696 501
Width: 760
VWidth: 0
HStem: -227 100<194 335.895> -0 112<246 295 405 481.447> 628 112<346 580.729>
VStem: 657 144<313.735 550.439>
DStem2: 35.8757 -227 180.105 -227 0.190809 0.981627<372.865 898.466>
LayerCount: 2
Fore
SplineSet
194 -127 m 1
 274 -127 339 -123 339 -99 c 0
 339 -81 301 -76 254 -72 c 1
 295 -0 l 1
 80 0 l 1
 224 740 l 1
 544 740 l 2
 706 740 801 625 801 461 c 0
 801 203 612 3 405 0 c 1
 396 -12 l 1
 421 -16 451 -41 451 -83 c 0
 451 -89 450 -95 449 -102 c 0
 433 -182 354 -227 174 -227 c 1
 194 -127 l 1
657 453 m 0
 657 563 602 628 488 628 c 2
 346 628 l 1
 246 112 l 1
 388 112 l 2
 546 112 657 253 657 453 c 0
EndSplineSet
EndChar

StartChar: uni1E11
Encoding: 7697 7697 502
Width: 670
VWidth: 0
HStem: -247 100<124 265.895> 0 21G<450 593.892> 450 110<320.981 467.223> 720 20G<590.077 734>
VStem: 83 134<131.876 315.131> 594 140<600 740>
DStem2: 401.988 -247 541.988 -247 0.190809 0.981627<278.336 312.81 740.549 1005.5>
LayerCount: 2
Fore
SplineSet
124 -147 m 1
 204 -147 269 -143 269 -119 c 0
 269 -101 231 -96 184 -92 c 1
 229 -14 l 1
 134 7 83 83 83 188 c 0
 83 388 230 560 399 560 c 0
 473 560 524 528 543 480 c 1
 594 740 l 1
 734 740 l 1
 590 0 l 1
 450 0 l 1
 462 60 l 1
 434 24 390 -3 338 -14 c 1
 326 -32 l 1
 351 -36 381 -61 381 -103 c 0
 381 -109 380 -115 379 -122 c 0
 363 -202 284 -247 104 -247 c 1
 124 -147 l 1
397 450 m 0
 291 450 217 344 217 215 c 0
 217 142 251 90 327 90 c 0
 433 90 508 197 508 325 c 0
 508 398 473 450 397 450 c 0
EndSplineSet
EndChar

